<?xml version="1.0" encoding="UTF-8"?>
<svg xmlns="http://www.w3.org/2000/svg" xmlns:xlink="http://www.w3.org/1999/xlink" width="507.294pt" height="351.389pt" viewBox="0 0 507.294 351.389">
<defs>
<g>
<g id="glyph-0-0">
<path d="M 2.671875 -11.65625 L 2.296875 -11.65625 C 2.15625 -11.65625 1.578125 -11.671875 0.609375 -11.703125 L 0.609375 -11.0625 L 1.234375 -11.015625 C 2.015625 -10.953125 2.0625 -10.84375 2.0625 -9.328125 L 2.0625 -2.328125 C 2.0625 -0.8125 2.015625 -0.703125 1.234375 -0.640625 L 0.609375 -0.578125 L 0.609375 0.046875 C 2.25 0 2.25 0 2.578125 0 C 2.921875 0 3.71875 0.015625 4.53125 0.046875 L 4.53125 -0.578125 L 3.90625 -0.640625 C 3.125 -0.703125 3.078125 -0.796875 3.078125 -2.328125 L 3.078125 -9.078125 L 8.6875 -2.34375 C 9.140625 -1.78125 9.5625 -1.3125 10.78125 0.046875 L 12.1875 0.28125 L 12.3125 0.203125 C 12.265625 -0.75 12.25 -1.140625 12.25 -1.53125 L 12.25 -9.328125 C 12.25 -10.84375 12.3125 -10.953125 13.078125 -11.015625 L 13.71875 -11.0625 L 13.71875 -11.703125 L 11.75 -11.65625 C 11.5625 -11.65625 11.296875 -11.65625 9.78125 -11.703125 L 9.78125 -11.0625 L 10.421875 -11.015625 C 11.1875 -10.953125 11.234375 -10.84375 11.234375 -9.328125 L 11.234375 -3.15625 L 5.875 -9.421875 C 5.515625 -9.828125 5.203125 -10.25 4.109375 -11.703125 Z M 2.671875 -11.65625 "/>
</g>
<g id="glyph-0-1">
<path d="M 7.921875 -5.078125 C 7.921875 -6.90625 6.640625 -8.09375 4.671875 -8.09375 C 4.078125 -8.09375 3.625 -7.96875 3.15625 -7.703125 L 2.359375 -7.21875 C 1.21875 -6.546875 0.71875 -5.515625 0.71875 -3.890625 C 0.71875 -1.15625 2.09375 0.296875 4.65625 0.296875 C 5.640625 0.296875 6.28125 0.125 7.375 -0.453125 L 7.75 -1.265625 L 7.546875 -1.53125 C 6.734375 -1.078125 6.21875 -0.921875 5.53125 -0.921875 C 4.640625 -0.921875 3.796875 -1.40625 3.375 -2.15625 C 3.09375 -2.625 2.984375 -3.03125 2.953125 -3.828125 L 5.203125 -3.828125 C 6.1875 -3.828125 6.96875 -3.9375 7.921875 -4.171875 Z M 4.296875 -4.6875 L 4.234375 -4.6875 C 4.125 -4.6875 3.65625 -4.703125 3.40625 -4.734375 L 2.859375 -4.75 C 2.90625 -6.453125 3.3125 -7.140625 4.3125 -7.140625 C 5.296875 -7.140625 5.703125 -6.453125 5.734375 -4.75 Z M 4.296875 -4.6875 "/>
</g>
<g id="glyph-0-2">
<path d="M 3.328125 0.046875 L 4.6875 0.046875 C 5.546875 -2.234375 5.734375 -2.640625 7.046875 -5.21875 L 9.3125 0.046875 L 10.703125 0.046875 C 10.859375 -0.453125 10.9375 -0.6875 10.953125 -0.75 C 11.125 -1.328125 11.234375 -1.71875 11.3125 -1.921875 L 12.890625 -6.390625 C 13.09375 -6.96875 13.265625 -7.1875 13.515625 -7.203125 L 14.09375 -7.234375 L 14.09375 -7.890625 C 12.65625 -7.84375 12.65625 -7.84375 12.359375 -7.84375 C 12.0625 -7.84375 12.0625 -7.84375 10.625 -7.890625 L 10.625 -7.234375 L 11.34375 -7.203125 C 11.640625 -7.1875 11.84375 -7.046875 11.84375 -6.84375 C 11.84375 -6.765625 11.8125 -6.578125 11.796875 -6.515625 L 11.171875 -4.578125 C 10.96875 -3.90625 10.796875 -3.4375 10.5 -2.640625 L 8.125 -8.09375 L 7.265625 -8.09375 L 5.78125 -4.75 C 5.625 -4.40625 5.453125 -4.046875 5.28125 -3.65625 C 5.203125 -3.53125 5.15625 -3.390625 5.09375 -3.234375 C 4.984375 -3.03125 4.875 -2.796875 4.796875 -2.59375 L 3.78125 -6.5 C 3.765625 -6.5625 3.75 -6.734375 3.75 -6.828125 C 3.75 -7.046875 3.890625 -7.203125 4.078125 -7.203125 L 4.875 -7.234375 L 4.875 -7.890625 L 2.5625 -7.84375 C 2.328125 -7.84375 2.046875 -7.84375 0.21875 -7.890625 L 0.21875 -7.234375 L 0.796875 -7.203125 C 1.1875 -7.171875 1.359375 -7.015625 1.5 -6.546875 Z M 3.328125 0.046875 "/>
</g>
<g id="glyph-0-3">
<path d="M 5.5625 -1.03125 L 5.4375 -1.359375 C 5.09375 -1.1875 4.921875 -1.140625 4.640625 -1.140625 C 3.828125 -1.140625 3.578125 -1.40625 3.578125 -2.25 L 3.578125 -6.34375 L 5.390625 -6.34375 L 5.53125 -7.453125 L 3.578125 -7.359375 L 3.578125 -8.359375 C 3.578125 -9.265625 3.625 -9.828125 3.78125 -10.6875 L 3.546875 -10.859375 C 2.859375 -10.53125 2.328125 -10.328125 1.4375 -10 C 1.5 -9.109375 1.515625 -8.78125 1.515625 -8.421875 L 1.515625 -7.390625 L 0.375 -6.65625 L 0.375 -6.28125 L 1.484375 -6.34375 L 1.484375 -1.890625 C 1.484375 -0.359375 2.109375 0.296875 3.609375 0.296875 C 4.140625 0.296875 4.578125 0.171875 4.734375 -0.015625 Z M 5.5625 -1.03125 "/>
</g>
<g id="glyph-0-4">
<path d="M 4.9375 -8.09375 C 2.203125 -8.09375 0.6875 -6.578125 0.6875 -3.84375 C 0.6875 -1.203125 2.09375 0.296875 4.59375 0.296875 C 7.34375 0.296875 8.890625 -1.265625 8.890625 -4.0625 C 8.890625 -6.671875 7.484375 -8.09375 4.9375 -8.09375 Z M 4.734375 -7.265625 C 5.96875 -7.265625 6.546875 -6.046875 6.546875 -3.53125 C 6.546875 -1.421875 6.0625 -0.53125 4.90625 -0.53125 C 3.65625 -0.53125 3.03125 -1.78125 3.03125 -4.265625 C 3.03125 -6.34375 3.546875 -7.265625 4.734375 -7.265625 Z M 4.734375 -7.265625 "/>
</g>
<g id="glyph-0-5">
<path d="M 0.40625 -6.734375 L 1.1875 -6.6875 C 1.578125 -6.65625 1.640625 -6.5 1.640625 -5.484375 L 1.640625 -1.71875 C 1.640625 -0.796875 1.546875 -0.65625 1.015625 -0.625 L 0.40625 -0.578125 L 0.40625 0.046875 L 2.625 0 C 2.96875 0 3.796875 0.015625 4.953125 0.046875 L 4.953125 -0.578125 L 4.34375 -0.625 C 3.8125 -0.65625 3.734375 -0.796875 3.734375 -1.71875 L 3.734375 -5.453125 C 3.734375 -6.046875 4.4375 -6.625 5.1875 -6.625 C 6.328125 -6.625 6.8125 -6.015625 6.8125 -4.640625 L 6.8125 0.046875 C 7.78125 0.015625 8.078125 0 8.359375 0 C 8.59375 0 8.59375 0 10.09375 0.046875 L 10.09375 -0.578125 L 9.515625 -0.625 C 8.984375 -0.65625 8.90625 -0.796875 8.90625 -1.71875 L 8.90625 -4.921875 C 8.90625 -6.234375 8.75 -6.890625 8.296875 -7.375 C 7.859375 -7.84375 7.15625 -8.09375 6.3125 -8.09375 C 5.796875 -8.09375 5.375 -8 5.109375 -7.765625 L 3.734375 -6.703125 L 3.734375 -8 L 3.625 -8.09375 C 1.84375 -7.515625 1.359375 -7.40625 0.40625 -7.359375 Z M 0.40625 -6.734375 "/>
</g>
<g id="glyph-0-6">
<path d="M 8.59375 -3.578125 L 8.59375 -5 L 0 -5 L 0 -3.578125 Z M 8.59375 -3.578125 "/>
</g>
<g id="glyph-0-7">
<path d="M 7.859375 -6.125 C 8.8125 -6.515625 9.234375 -6.765625 9.671875 -7.28125 C 10.171875 -7.828125 10.421875 -8.453125 10.421875 -9.171875 C 10.421875 -10.84375 9.3125 -11.703125 7.15625 -11.703125 C 6.96875 -11.703125 6.546875 -11.703125 5.96875 -11.6875 C 5.515625 -11.671875 4.109375 -11.65625 3.734375 -11.65625 C 3.25 -11.65625 3.25 -11.65625 0.671875 -11.703125 L 0.671875 -11.0625 L 1.3125 -11.015625 C 2.078125 -10.953125 2.125 -10.84375 2.125 -9.328125 L 2.125 -2.328125 C 2.125 -0.796875 2.109375 -0.75 1.3125 -0.6875 L 0.671875 -0.640625 L 0.671875 0.046875 C 2.75 0 2.75 0 3.328125 0 C 3.921875 0 3.9375 0 6.015625 0.046875 L 6.015625 -0.640625 L 5.375 -0.6875 C 4.578125 -0.75 4.5625 -0.796875 4.5625 -2.328125 L 4.5625 -10.6875 C 4.796875 -10.796875 5.125 -10.84375 5.5625 -10.84375 C 7.09375 -10.84375 7.96875 -10.03125 7.96875 -8.640625 C 7.96875 -7.734375 7.546875 -6.96875 6.84375 -6.546875 C 6.40625 -6.296875 5.984375 -6.203125 5.21875 -6.21875 L 5.109375 -5.90625 L 8.953125 0.046875 L 10.5 0 C 11.375 0.015625 11.53125 0.015625 12.171875 0.046875 L 12.171875 -0.640625 C 11.546875 -0.75 11.375 -0.859375 10.96875 -1.40625 Z M 7.859375 -6.125 "/>
</g>
<g id="glyph-0-8">
<path d="M 5.140625 -1.15625 L 5.046875 -0.09375 L 5.140625 0.046875 C 6.203125 0.015625 6.5 0 6.703125 0 C 6.90625 0 7.1875 0.015625 8.21875 0.046875 L 8.21875 -0.578125 L 7.703125 -0.640625 C 7.328125 -0.703125 7.234375 -0.875 7.21875 -1.6875 L 7.21875 -2.046875 C 7.203125 -2.59375 7.1875 -3.078125 7.1875 -3.484375 C 7.1875 -3.953125 7.203125 -4.5 7.21875 -5.15625 C 7.234375 -5.375 7.234375 -5.53125 7.234375 -5.65625 C 7.234375 -7.1875 6.203125 -8.09375 4.46875 -8.09375 C 3.75 -8.09375 3.046875 -7.90625 2.40625 -7.515625 L 1.5 -6.96875 L 1.5 -5.78125 L 2.015625 -5.65625 L 2.390625 -6.515625 C 2.4375 -6.640625 2.921875 -6.75 3.390625 -6.75 C 4.53125 -6.75 5.09375 -6.140625 5.140625 -4.734375 L 3.625 -4.421875 C 1.46875 -3.96875 0.6875 -3.296875 0.6875 -1.84375 C 0.6875 -0.453125 1.390625 0.296875 2.703125 0.296875 C 3.078125 0.296875 3.375 0.21875 3.546875 0.09375 Z M 5.140625 -1.984375 C 4.8125 -1.53125 4.171875 -1.203125 3.65625 -1.203125 C 3.109375 -1.203125 2.78125 -1.609375 2.78125 -2.28125 C 2.78125 -3.125 3.140625 -3.46875 4.359375 -3.796875 L 5.140625 -4 Z M 5.140625 -1.984375 "/>
</g>
<g id="glyph-0-9">
<path d="M 3.640625 -8.09375 L 2.4375 -7.71875 C 1.859375 -7.546875 1.5625 -7.5 0.6875 -7.375 L 0.5 -7.359375 L 0.5 -6.734375 L 1.265625 -6.6875 C 1.671875 -6.65625 1.71875 -6.5 1.71875 -5.484375 L 1.71875 2.671875 C 1.71875 3.59375 1.640625 3.734375 1.09375 3.765625 L 0.5 3.796875 L 0.5 4.4375 L 2.71875 4.390625 C 2.9375 4.390625 2.96875 4.390625 5.203125 4.4375 L 5.203125 3.796875 L 4.4375 3.765625 C 3.90625 3.75 3.8125 3.59375 3.8125 2.671875 L 3.8125 0 C 4.65625 0.234375 4.9375 0.296875 5.34375 0.296875 C 5.9375 0.296875 6.53125 -0.015625 7.703125 -0.953125 C 7.796875 -1.015625 7.90625 -1.09375 8 -1.171875 C 9.125 -2.03125 9.75 -3.375 9.75 -4.921875 C 9.75 -6.734375 8.421875 -8.09375 6.640625 -8.09375 C 5.96875 -8.09375 5.46875 -7.90625 4.859375 -7.421875 L 3.8125 -6.578125 L 3.8125 -8 Z M 3.8125 -5.6875 C 4.1875 -6.25 4.765625 -6.546875 5.46875 -6.546875 C 6.796875 -6.546875 7.578125 -5.515625 7.578125 -3.796875 C 7.578125 -2.015625 6.8125 -0.875 5.546875 -0.875 C 4.828125 -0.875 4.28125 -1.171875 3.8125 -1.828125 Z M 3.8125 -5.6875 "/>
</g>
<g id="glyph-0-10">
<path d="M 3.59375 -12.375 L 2.359375 -12 C 1.90625 -11.859375 1.34375 -11.75 0.40625 -11.640625 L 0.40625 -11.015625 L 1.1875 -10.96875 C 1.578125 -10.9375 1.640625 -10.78125 1.640625 -9.765625 L 1.640625 -1.71875 C 1.640625 -0.796875 1.546875 -0.65625 1.015625 -0.625 L 0.40625 -0.578125 L 0.40625 0.046875 L 2.625 0 C 2.96875 0 3.796875 0.015625 4.953125 0.046875 L 4.953125 -0.578125 L 4.34375 -0.625 C 3.8125 -0.65625 3.734375 -0.796875 3.734375 -1.71875 L 3.734375 -5.453125 C 3.734375 -6.046875 4.4375 -6.625 5.1875 -6.625 C 6.328125 -6.625 6.8125 -6.015625 6.8125 -4.625 L 6.8125 0.046875 C 7.78125 0.015625 8.078125 0 8.359375 0 C 8.59375 0 8.59375 0 10.09375 0.046875 L 10.09375 -0.578125 L 9.515625 -0.625 C 8.984375 -0.65625 8.90625 -0.796875 8.90625 -1.71875 L 8.90625 -4.921875 C 8.90625 -6.234375 8.75 -6.890625 8.296875 -7.375 C 7.859375 -7.84375 7.15625 -8.09375 6.3125 -8.09375 C 5.796875 -8.09375 5.375 -8 5.109375 -7.765625 L 3.734375 -6.703125 L 3.734375 -12.265625 Z M 3.59375 -12.375 "/>
</g>
<g id="glyph-0-11">
<path d="M 6.21875 -5.609375 L 6.359375 -7.703125 C 5.6875 -8 5.15625 -8.09375 4.25 -8.09375 C 1.921875 -8.09375 0.671875 -7.171875 0.671875 -5.453125 C 0.671875 -4.3125 1.296875 -3.59375 2.5 -3.296875 L 3.96875 -2.9375 C 4.765625 -2.75 5.046875 -2.453125 5.046875 -1.859375 C 5.046875 -1.046875 4.4375 -0.53125 3.46875 -0.53125 C 2.671875 -0.53125 2.09375 -0.796875 1.546875 -1.421875 L 1.46875 -2.609375 L 0.796875 -2.609375 L 0.671875 -0.1875 C 1.65625 0.15625 2.421875 0.296875 3.328125 0.296875 C 5.5 0.296875 6.96875 -0.890625 6.96875 -2.671875 C 6.96875 -3.90625 6.328125 -4.53125 4.78125 -4.875 L 3.375 -5.1875 C 2.703125 -5.34375 2.421875 -5.625 2.421875 -6.15625 C 2.421875 -6.84375 3.015625 -7.265625 3.9375 -7.265625 C 4.625 -7.265625 5.375 -6.9375 5.4375 -6.59375 L 5.609375 -5.609375 Z M 6.21875 -5.609375 "/>
</g>
<g id="glyph-0-12">
<path d="M 13.34375 -4.75 C 11.203125 -4.6875 11.203125 -4.6875 10.765625 -4.6875 C 10.359375 -4.6875 9.6875 -4.703125 8.296875 -4.75 L 8.296875 -4.046875 L 9.21875 -4 C 9.9375 -3.96875 10.1875 -3.8125 10.1875 -3.375 L 10.1875 -1.09375 C 9.3125 -0.78125 8.75 -0.671875 8.015625 -0.671875 C 5.25 -0.671875 3.390625 -2.890625 3.390625 -6.15625 C 3.390625 -9.171875 5.03125 -10.984375 7.84375 -10.984375 C 8.71875 -10.984375 9.625 -10.8125 10.359375 -10.484375 C 10.796875 -10.3125 10.953125 -10.1875 11.359375 -9.796875 L 11.453125 -8.3125 L 12.125 -8.3125 C 12.3125 -9.96875 12.359375 -10.296875 12.515625 -10.953125 L 12.40625 -11.140625 C 10.84375 -11.71875 9.609375 -11.953125 7.921875 -11.953125 C 3.53125 -11.953125 0.8125 -9.65625 0.8125 -5.953125 C 0.8125 -2.171875 3.453125 0.296875 7.53125 0.296875 C 9.265625 0.296875 10.578125 0.03125 12.640625 -0.734375 L 12.640625 -3.546875 C 12.640625 -3.953125 12.703125 -4.015625 13.34375 -4.15625 Z M 13.34375 -4.75 "/>
</g>
<g id="glyph-0-13">
<path d="M 0.40625 -6.734375 L 1.1875 -6.6875 C 1.578125 -6.65625 1.640625 -6.5 1.640625 -5.484375 L 1.640625 -1.71875 C 1.640625 -0.796875 1.546875 -0.65625 1.015625 -0.625 L 0.40625 -0.578125 L 0.40625 0.046875 L 2.625 0 C 3.03125 0 3.765625 0.015625 4.8125 0.046875 L 4.8125 -0.578125 L 4.34375 -0.625 C 3.796875 -0.65625 3.734375 -0.796875 3.734375 -1.71875 L 3.734375 -5.453125 C 3.734375 -6.015625 4.4375 -6.625 5.125 -6.625 C 6.125 -6.625 6.59375 -5.96875 6.59375 -4.625 L 6.59375 -1.71875 C 6.59375 -0.796875 6.53125 -0.65625 5.984375 -0.625 L 5.453125 -0.578125 L 5.453125 0.046875 C 7.234375 0 7.234375 0 7.671875 0 C 8.078125 0 8.078125 0 9.921875 0.046875 L 9.921875 -0.578125 L 9.3125 -0.625 C 8.78125 -0.65625 8.703125 -0.796875 8.703125 -1.71875 L 8.703125 -5.453125 C 8.703125 -6.015625 9.40625 -6.625 10.09375 -6.625 C 11.09375 -6.625 11.5625 -5.96875 11.5625 -4.625 L 11.5625 0.046875 L 13.171875 0 C 14.03125 0.015625 14.140625 0.015625 14.84375 0.046875 L 14.84375 -0.578125 L 14.28125 -0.625 C 13.75 -0.65625 13.671875 -0.796875 13.671875 -1.71875 L 13.671875 -4.921875 C 13.671875 -7.28125 13.046875 -8.09375 11.203125 -8.09375 C 10.640625 -8.09375 10.265625 -8 9.96875 -7.765625 L 8.59375 -6.703125 C 8.203125 -7.6875 7.515625 -8.09375 6.328125 -8.09375 C 5.78125 -8.09375 5.390625 -8 5.109375 -7.765625 L 3.734375 -6.703125 L 3.734375 -8 L 3.625 -8.09375 C 1.84375 -7.515625 1.359375 -7.40625 0.40625 -7.359375 Z M 0.40625 -6.734375 "/>
</g>
<g id="glyph-0-14">
<path d="M 3.65625 -8.09375 L 2.453125 -7.71875 C 1.90625 -7.546875 1.59375 -7.5 0.515625 -7.359375 L 0.515625 -6.734375 L 1.296875 -6.6875 C 1.6875 -6.65625 1.734375 -6.5 1.734375 -5.484375 L 1.734375 -1.71875 C 1.734375 -0.796875 1.65625 -0.65625 1.125 -0.625 L 0.515625 -0.578125 L 0.515625 0.046875 L 2.734375 0 C 2.953125 0 3.015625 0 5.328125 0.046875 L 5.328125 -0.578125 L 4.65625 -0.625 C 3.921875 -0.65625 3.828125 -0.75 3.828125 -1.71875 L 3.828125 -5.125 C 3.828125 -5.65625 4.53125 -6.21875 5.203125 -6.21875 C 5.640625 -6.21875 5.953125 -6.015625 6.1875 -5.609375 L 6.59375 -5.78125 L 6.6875 -8 C 6.515625 -8.0625 6.296875 -8.09375 6.046875 -8.09375 C 5.5625 -8.09375 5.25 -7.890625 4.59375 -7.1875 L 3.828125 -6.359375 L 3.828125 -8 Z M 3.65625 -8.09375 "/>
</g>
<g id="glyph-0-15">
<path d="M 3.734375 -8.09375 L 2.53125 -7.71875 C 1.984375 -7.546875 1.5625 -7.484375 0.84375 -7.390625 C 0.796875 -7.390625 0.703125 -7.375 0.578125 -7.359375 L 0.578125 -6.734375 L 1.359375 -6.6875 C 1.75 -6.65625 1.8125 -6.5 1.8125 -5.484375 L 1.8125 -1.71875 C 1.8125 -0.796875 1.71875 -0.65625 1.1875 -0.625 L 0.578125 -0.578125 L 0.578125 0.046875 L 2.796875 0 C 3.140625 0 3.96875 0.015625 5.125 0.046875 L 5.125 -0.578125 L 4.515625 -0.625 C 3.984375 -0.65625 3.90625 -0.796875 3.90625 -1.71875 L 3.90625 -8 Z M 2.796875 -12.140625 C 2.0625 -12.140625 1.5 -11.578125 1.5 -10.859375 C 1.5 -10.140625 2.0625 -9.5625 2.78125 -9.5625 C 3.484375 -9.5625 4.078125 -10.140625 4.078125 -10.84375 C 4.078125 -11.546875 3.5 -12.140625 2.796875 -12.140625 Z M 2.796875 -12.140625 "/>
</g>
<g id="glyph-0-16">
<path d="M 6.703125 -5.109375 C 6.8125 -6.203125 6.890625 -6.765625 7.046875 -7.53125 L 6.921875 -7.75 C 6.140625 -8.03125 5.78125 -8.09375 5.15625 -8.09375 C 4.5 -8.09375 4.015625 -7.96875 3.609375 -7.734375 L 2.71875 -7.203125 C 1.1875 -6.296875 0.640625 -5.4375 0.640625 -3.9375 C 0.640625 -1.203125 2 0.296875 4.453125 0.296875 C 5.3125 0.296875 5.953125 0.140625 6.75 -0.296875 L 7.109375 -1.078125 L 6.96875 -1.25 C 6.375 -1.015625 6 -0.921875 5.5 -0.921875 C 3.8125 -0.921875 2.765625 -2.28125 2.765625 -4.46875 C 2.765625 -6.03125 3.359375 -6.875 4.453125 -6.875 C 5.21875 -6.875 5.90625 -6.53125 5.96875 -6.140625 L 6.078125 -5.109375 Z M 6.703125 -5.109375 "/>
</g>
<g id="glyph-0-17">
<path d="M 4.5625 -9.328125 C 4.5625 -10.859375 4.578125 -10.890625 5.375 -10.96875 L 6.015625 -11.015625 L 6.015625 -11.703125 C 3.921875 -11.65625 3.921875 -11.65625 3.328125 -11.65625 C 2.75 -11.65625 2.734375 -11.65625 0.671875 -11.703125 L 0.671875 -11.015625 L 1.3125 -10.96875 C 2.109375 -10.890625 2.125 -10.859375 2.125 -9.328125 L 2.125 -2.328125 C 2.125 -0.796875 2.109375 -0.75 1.3125 -0.6875 L 0.671875 -0.640625 L 0.671875 0.046875 C 2.75 0 2.75 0 3.328125 0 C 3.921875 0 3.9375 0 6.015625 0.046875 L 6.015625 -0.640625 L 5.375 -0.6875 C 4.578125 -0.75 4.5625 -0.796875 4.5625 -2.328125 Z M 4.5625 -9.328125 "/>
</g>
<g id="glyph-1-0">
<path d="M 0.296875 -1.265625 C 0.296875 -0.96875 0.265625 -0.78125 0.1875 -0.328125 C 0.15625 -0.15625 0.140625 -0.109375 0.125 -0.015625 C 0.34375 0.09375 0.578125 0.15625 0.75 0.15625 C 1.21875 0.15625 1.78125 -0.265625 2.21875 -0.9375 L 3.3125 -2.609375 L 3.46875 -1.625 C 3.65625 -0.40625 3.984375 0.15625 4.5 0.15625 C 4.8125 0.15625 5.265625 -0.09375 5.734375 -0.5 L 6.4375 -1.125 L 6.296875 -1.40625 C 5.78125 -0.96875 5.4375 -0.765625 5.203125 -0.765625 C 4.984375 -0.765625 4.796875 -0.90625 4.65625 -1.1875 C 4.53125 -1.46875 4.375 -1.984375 4.296875 -2.40625 L 4.046875 -3.859375 L 4.546875 -4.5625 C 5.21875 -5.484375 5.609375 -5.8125 6.046875 -5.8125 C 6.28125 -5.8125 6.453125 -5.703125 6.515625 -5.484375 L 6.71875 -5.546875 L 6.9375 -6.765625 C 6.765625 -6.859375 6.640625 -6.90625 6.5 -6.90625 C 5.9375 -6.90625 5.359375 -6.390625 4.46875 -5.078125 L 3.9375 -4.28125 L 3.859375 -4.96875 C 3.6875 -6.390625 3.296875 -6.90625 2.453125 -6.90625 C 2.078125 -6.90625 1.765625 -6.796875 1.640625 -6.609375 L 0.796875 -5.421875 L 1.046875 -5.265625 C 1.46875 -5.765625 1.765625 -5.953125 2.03125 -5.953125 C 2.5 -5.953125 2.828125 -5.375 3.0625 -3.96875 L 3.21875 -3.078125 L 2.65625 -2.1875 C 2.03125 -1.234375 1.546875 -0.78125 1.140625 -0.78125 C 0.9375 -0.78125 0.78125 -0.828125 0.75 -0.90625 L 0.59375 -1.296875 Z M 0.296875 -1.265625 "/>
</g>
<g id="glyph-1-1">
<path d="M 4.09375 -9.25 L 5.609375 -9.3125 C 6.5 -9.3125 7.078125 -9.1875 7.09375 -8.96875 L 7.203125 -7.6875 L 7.546875 -7.6875 C 7.59375 -8.59375 7.6875 -9.328125 7.859375 -9.875 C 7.53125 -9.90625 7.140625 -9.921875 6.890625 -9.921875 L 6.296875 -9.90625 L 3.9375 -9.875 L 3.53125 -9.875 C 3.171875 -9.875 2.59375 -9.890625 2.046875 -9.90625 L 1.34375 -9.921875 L 1.296875 -9.515625 L 2.109375 -9.484375 C 2.453125 -9.46875 2.609375 -9.34375 2.609375 -9.09375 C 2.609375 -8.890625 2.546875 -8.4375 2.484375 -8.015625 L 1.40625 -1.796875 C 1.15625 -0.46875 1.15625 -0.453125 0.578125 -0.40625 L 0.0625 -0.359375 L 0 0.046875 L 0.484375 0.03125 C 1.0625 0.015625 1.515625 0 1.8125 0 C 2.078125 0 2.5 0.015625 3.046875 0.03125 L 3.796875 0.046875 L 3.84375 -0.359375 L 2.921875 -0.40625 C 2.53125 -0.421875 2.40625 -0.53125 2.40625 -0.8125 C 2.40625 -0.90625 2.421875 -1.0625 2.4375 -1.125 L 2.953125 -4.3125 L 4.625 -4.3125 C 5.015625 -4.3125 5.453125 -4.296875 6.140625 -4.265625 L 6.515625 -4.25 L 6.796875 -4.90625 L 6.734375 -5 C 5.578125 -4.9375 4.71875 -4.921875 3.59375 -4.921875 L 3.0625 -4.921875 L 3.71875 -8.796875 C 3.765625 -9.03125 3.78125 -9.09375 3.859375 -9.25 Z M 4.09375 -9.25 "/>
</g>
<g id="glyph-2-0">
<path d="M 4.9375 3.578125 C 4.9375 3.53125 4.9375 3.5 4.6875 3.25 C 2.8125 1.375 2.34375 -1.453125 2.34375 -3.734375 C 2.34375 -6.328125 2.90625 -8.921875 4.75 -10.78125 C 4.9375 -10.96875 4.9375 -11 4.9375 -11.046875 C 4.9375 -11.140625 4.875 -11.1875 4.796875 -11.1875 C 4.640625 -11.1875 3.296875 -10.171875 2.421875 -8.28125 C 1.65625 -6.640625 1.484375 -4.984375 1.484375 -3.734375 C 1.484375 -2.5625 1.640625 -0.765625 2.46875 0.921875 C 3.359375 2.765625 4.640625 3.734375 4.796875 3.734375 C 4.875 3.734375 4.9375 3.6875 4.9375 3.578125 Z M 4.9375 3.578125 "/>
</g>
<g id="glyph-2-1">
<path d="M 4.3125 -3.734375 C 4.3125 -4.890625 4.140625 -6.703125 3.328125 -8.390625 C 2.4375 -10.21875 1.15625 -11.1875 1 -11.1875 C 0.90625 -11.1875 0.84375 -11.125 0.84375 -11.046875 C 0.84375 -11 0.84375 -10.96875 1.140625 -10.703125 C 2.59375 -9.21875 3.453125 -6.84375 3.453125 -3.734375 C 3.453125 -1.171875 2.890625 1.453125 1.046875 3.328125 C 0.84375 3.5 0.84375 3.53125 0.84375 3.578125 C 0.84375 3.671875 0.90625 3.734375 1 3.734375 C 1.15625 3.734375 2.484375 2.71875 3.375 0.828125 C 4.140625 -0.828125 4.3125 -2.484375 4.3125 -3.734375 Z M 4.3125 -3.734375 "/>
</g>
<g id="glyph-3-0">
<path d="M 0.25 -1.046875 C 0.25 -0.8125 0.234375 -0.65625 0.15625 -0.28125 C 0.125 -0.125 0.125 -0.09375 0.109375 -0.015625 C 0.28125 0.078125 0.484375 0.125 0.625 0.125 C 1.015625 0.125 1.484375 -0.21875 1.84375 -0.78125 L 2.75 -2.171875 L 2.890625 -1.34375 C 3.046875 -0.328125 3.3125 0.125 3.75 0.125 C 4.015625 0.125 4.390625 -0.078125 4.78125 -0.421875 L 5.359375 -0.9375 L 5.25 -1.171875 C 4.828125 -0.8125 4.53125 -0.625 4.328125 -0.625 C 4.15625 -0.625 4 -0.75 3.875 -0.984375 C 3.765625 -1.21875 3.640625 -1.65625 3.578125 -2 L 3.359375 -3.21875 L 3.78125 -3.796875 C 4.34375 -4.578125 4.671875 -4.84375 5.03125 -4.84375 C 5.234375 -4.84375 5.375 -4.75 5.4375 -4.578125 L 5.59375 -4.625 L 5.78125 -5.640625 C 5.640625 -5.71875 5.53125 -5.75 5.421875 -5.75 C 4.9375 -5.75 4.46875 -5.328125 3.71875 -4.21875 L 3.28125 -3.5625 L 3.21875 -4.140625 C 3.0625 -5.328125 2.75 -5.75 2.046875 -5.75 C 1.734375 -5.75 1.46875 -5.65625 1.359375 -5.5 L 0.671875 -4.515625 L 0.875 -4.390625 C 1.234375 -4.796875 1.46875 -4.96875 1.6875 -4.96875 C 2.09375 -4.96875 2.359375 -4.484375 2.546875 -3.3125 L 2.6875 -2.5625 L 2.203125 -1.828125 C 1.6875 -1.03125 1.296875 -0.640625 0.953125 -0.640625 C 0.78125 -0.640625 0.640625 -0.6875 0.625 -0.75 L 0.484375 -1.09375 Z M 0.25 -1.046875 "/>
</g>
<g id="glyph-3-1">
<path d="M 3.421875 -7.71875 L 4.671875 -7.765625 C 5.421875 -7.765625 5.890625 -7.65625 5.90625 -7.46875 L 6 -6.40625 L 6.296875 -6.40625 C 6.328125 -7.15625 6.40625 -7.765625 6.546875 -8.21875 C 6.28125 -8.25 5.9375 -8.265625 5.734375 -8.265625 L 5.25 -8.25 L 3.28125 -8.21875 L 2.9375 -8.21875 C 2.640625 -8.21875 2.15625 -8.234375 1.703125 -8.25 L 1.125 -8.265625 L 1.09375 -7.921875 L 1.75 -7.90625 C 2.046875 -7.890625 2.171875 -7.78125 2.171875 -7.578125 C 2.171875 -7.40625 2.125 -7.03125 2.0625 -6.671875 L 1.171875 -1.5 C 0.96875 -0.390625 0.96875 -0.375 0.484375 -0.328125 L 0.046875 -0.296875 L 0 0.03125 L 0.40625 0.03125 C 0.890625 0.015625 1.265625 0 1.515625 0 C 1.734375 0 2.078125 0.015625 2.546875 0.03125 L 3.15625 0.03125 L 3.203125 -0.296875 L 2.4375 -0.328125 C 2.109375 -0.34375 2 -0.4375 2 -0.6875 C 2 -0.75 2.015625 -0.890625 2.03125 -0.9375 L 2.453125 -3.59375 L 3.859375 -3.59375 C 4.171875 -3.59375 4.546875 -3.578125 5.125 -3.5625 L 5.4375 -3.546875 L 5.65625 -4.078125 L 5.609375 -4.171875 C 4.640625 -4.125 3.921875 -4.09375 3 -4.09375 L 2.546875 -4.09375 L 3.109375 -7.328125 C 3.140625 -7.515625 3.15625 -7.578125 3.21875 -7.71875 Z M 3.421875 -7.71875 "/>
</g>
<g id="glyph-3-2">
<path d="M 4.65625 -7.71875 L 5.53125 -7.71875 C 6.453125 -7.71875 6.890625 -7.65625 6.921875 -7.515625 C 6.953125 -7.40625 6.984375 -7.1875 6.96875 -7.0625 L 6.921875 -6.296875 L 7.265625 -6.296875 L 7.578125 -8.265625 L 6.5 -8.25 C 5.4375 -8.234375 4.625 -8.21875 4.21875 -8.21875 C 3.765625 -8.21875 3.015625 -8.234375 1.984375 -8.25 L 0.84375 -8.265625 L 0.625 -6.296875 L 0.984375 -6.296875 L 1.15625 -7.015625 C 1.21875 -7.28125 1.296875 -7.46875 1.375 -7.5625 C 1.4375 -7.640625 1.890625 -7.71875 2.34375 -7.71875 L 3.671875 -7.71875 L 2.65625 -1.5 C 2.453125 -0.40625 2.4375 -0.375 1.953125 -0.328125 L 1.34375 -0.296875 L 1.296875 0.03125 L 1.984375 0.03125 C 2.453125 0.015625 2.8125 0 3 0 C 3.21875 0 3.59375 0.015625 4.0625 0.03125 L 4.578125 0.03125 L 4.625 -0.296875 L 3.921875 -0.328125 C 3.609375 -0.34375 3.484375 -0.4375 3.484375 -0.6875 C 3.484375 -0.796875 3.5 -0.890625 3.53125 -1.109375 Z M 4.65625 -7.71875 "/>
</g>
<g id="glyph-3-3">
<path d="M 2.8125 -8.625 L 2.671875 -8.75 C 2.046875 -8.4375 1.625 -8.328125 0.765625 -8.25 L 0.71875 -8 L 1.296875 -8 C 1.578125 -8 1.6875 -7.921875 1.6875 -7.71875 C 1.6875 -7.609375 1.6875 -7.515625 1.671875 -7.421875 L 1.171875 -4.625 C 0.828125 -2.828125 0.375 -0.78125 0.125 -0.03125 L 0.203125 0.109375 L 1.03125 -0.078125 C 1.21875 -1.453125 1.421875 -2.1875 1.765625 -2.8125 C 2.296875 -3.78125 3.53125 -4.9375 4.03125 -4.9375 C 4.1875 -4.9375 4.296875 -4.828125 4.296875 -4.671875 C 4.296875 -4.46875 4.21875 -4.015625 4.125 -3.609375 L 3.515625 -1.28125 C 3.40625 -0.84375 3.359375 -0.578125 3.359375 -0.359375 C 3.359375 -0.078125 3.484375 0.109375 3.71875 0.109375 C 4.015625 0.109375 4.453125 -0.140625 5.625 -1.015625 L 5.5 -1.234375 L 5.1875 -1.03125 C 4.84375 -0.796875 4.578125 -0.671875 4.46875 -0.671875 C 4.375 -0.671875 4.3125 -0.78125 4.3125 -0.90625 C 4.3125 -1.03125 4.328125 -1.125 4.390625 -1.390625 L 5.15625 -4.4375 C 5.234375 -4.75 5.28125 -5.125 5.28125 -5.328125 C 5.28125 -5.59375 5.15625 -5.75 4.9375 -5.75 C 4.53125 -5.75 3.8125 -5.359375 3.0625 -4.734375 C 2.640625 -4.375 2.4375 -4.171875 1.890625 -3.46875 L 1.640625 -3.15625 Z M 2.8125 -8.625 "/>
</g>
<g id="glyph-3-4">
<path d="M 3.921875 -1.328125 L 3.625 -1.125 C 3 -0.671875 2.421875 -0.4375 2 -0.4375 C 1.4375 -0.4375 1.09375 -0.875 1.09375 -1.59375 C 1.09375 -1.890625 1.125 -2.203125 1.1875 -2.546875 L 2.15625 -2.796875 C 2.359375 -2.84375 2.6875 -2.953125 2.984375 -3.09375 C 4 -3.53125 4.46875 -4.078125 4.46875 -4.828125 C 4.46875 -5.390625 4.0625 -5.75 3.46875 -5.75 C 2.6875 -5.75 1.359375 -4.9375 0.890625 -4.171875 C 0.53125 -3.5625 0.171875 -2.15625 0.171875 -1.34375 C 0.171875 -0.421875 0.703125 0.125 1.5625 0.125 C 2.25 0.125 2.90625 -0.203125 4.015625 -1.09375 Z M 1.34375 -3.265625 C 1.546875 -4.09375 1.796875 -4.609375 2.140625 -4.921875 C 2.359375 -5.109375 2.71875 -5.25 3.015625 -5.25 C 3.359375 -5.25 3.578125 -5.015625 3.578125 -4.625 C 3.578125 -4.109375 3.15625 -3.546875 2.546875 -3.25 C 2.203125 -3.078125 1.78125 -2.953125 1.234375 -2.828125 Z M 1.34375 -3.265625 "/>
</g>
<g id="glyph-3-5">
<path d="M 1.5 -4.65625 L 0.828125 -1.28125 C 0.8125 -1.1875 0.796875 -1.171875 0.765625 -1.03125 C 0.6875 -0.6875 0.671875 -0.515625 0.671875 -0.375 C 0.671875 -0.078125 0.796875 0.109375 1.03125 0.109375 C 1.4375 0.109375 1.859375 -0.125 2.796875 -0.890625 L 2.96875 -1.03125 L 3.15625 -1.1875 L 3.046875 -1.390625 L 2.5 -1.03125 C 2.15625 -0.78125 1.921875 -0.671875 1.796875 -0.671875 C 1.6875 -0.671875 1.625 -0.765625 1.625 -0.90625 C 1.625 -1.21875 1.796875 -2.1875 2.140625 -3.921875 L 2.296875 -4.65625 L 3.5625 -4.65625 L 3.703125 -5.25 C 3.25 -5.203125 2.84375 -5.1875 2.390625 -5.1875 C 2.578125 -6.296875 2.703125 -6.890625 2.921875 -7.53125 L 2.796875 -7.71875 C 2.546875 -7.5625 2.234375 -7.421875 1.859375 -7.28125 L 1.5625 -5.25 C 1.03125 -5 0.734375 -4.875 0.515625 -4.8125 L 0.484375 -4.65625 Z M 1.5 -4.65625 "/>
</g>
<g id="glyph-3-6">
<path d="M 4.796875 -5.640625 L 4.671875 -5.734375 L 4.28125 -5.53125 C 3.796875 -5.703125 3.59375 -5.75 3.265625 -5.75 C 2.9375 -5.75 2.703125 -5.6875 2.375 -5.53125 C 1.640625 -5.171875 1.234375 -4.8125 0.9375 -4.21875 C 0.421875 -3.15625 0.046875 -1.734375 0.046875 -0.796875 C 0.046875 -0.28125 0.234375 0.125 0.453125 0.125 C 0.71875 0.125 1.171875 -0.125 1.625 -0.53125 C 2.125 -0.984375 2.59375 -1.53125 3.234375 -2.4375 L 2.890625 -0.921875 C 2.84375 -0.71875 2.8125 -0.5 2.8125 -0.3125 C 2.8125 -0.046875 2.921875 0.109375 3.109375 0.109375 C 3.375 0.109375 3.875 -0.203125 4.84375 -1.015625 L 4.765625 -1.265625 C 4.6875 -1.203125 4.65625 -1.1875 4.609375 -1.140625 C 4.21875 -0.8125 4.046875 -0.703125 3.875 -0.703125 C 3.765625 -0.703125 3.6875 -0.8125 3.6875 -0.984375 C 3.6875 -1.03125 3.6875 -1.078125 3.703125 -1.109375 Z M 3.8125 -4.9375 C 3.546875 -3.640625 3.3125 -3.015625 2.90625 -2.40625 C 2.234375 -1.390625 1.5 -0.703125 1.125 -0.703125 C 0.984375 -0.703125 0.90625 -0.859375 0.90625 -1.1875 C 0.90625 -1.953125 1.234375 -3.34375 1.65625 -4.296875 C 1.953125 -4.953125 2.21875 -5.171875 2.796875 -5.171875 C 3.0625 -5.171875 3.28125 -5.125 3.8125 -4.9375 Z M 3.8125 -4.9375 "/>
</g>
<g id="glyph-3-7">
<path d="M 0.28125 -4.625 L 0.375 -4.390625 L 0.75 -4.640625 C 1.1875 -4.921875 1.234375 -4.9375 1.3125 -4.9375 C 1.4375 -4.9375 1.53125 -4.828125 1.53125 -4.640625 C 1.53125 -4.03125 1.03125 -1.734375 0.546875 -0.03125 L 0.625 0.109375 C 0.9375 0.03125 1.203125 -0.046875 1.46875 -0.09375 C 1.6875 -1.59375 1.953125 -2.375 2.5 -3.203125 C 3.140625 -4.203125 4.03125 -4.9375 4.578125 -4.9375 C 4.703125 -4.9375 4.78125 -4.828125 4.78125 -4.65625 C 4.78125 -4.4375 4.734375 -4.1875 4.640625 -3.8125 L 4.015625 -1.28125 C 3.921875 -0.828125 3.875 -0.5625 3.875 -0.375 C 3.875 -0.078125 4 0.109375 4.21875 0.109375 C 4.53125 0.109375 4.96875 -0.140625 6.140625 -1.015625 L 6.015625 -1.234375 L 5.703125 -1.03125 C 5.359375 -0.796875 5.09375 -0.671875 4.984375 -0.671875 C 4.890625 -0.671875 4.828125 -0.78125 4.828125 -0.90625 C 4.828125 -0.96875 4.828125 -1.09375 4.84375 -1.140625 L 5.640625 -4.4375 C 5.71875 -4.78125 5.765625 -5.125 5.765625 -5.328125 C 5.765625 -5.59375 5.640625 -5.75 5.390625 -5.75 C 4.890625 -5.75 4.078125 -5.296875 3.359375 -4.640625 C 2.90625 -4.21875 2.578125 -3.8125 1.953125 -2.953125 L 2.40625 -4.875 C 2.453125 -5.078125 2.484375 -5.234375 2.484375 -5.359375 C 2.484375 -5.609375 2.390625 -5.75 2.203125 -5.75 C 1.953125 -5.75 1.5 -5.484375 0.625 -4.875 Z M 0.28125 -4.625 "/>
</g>
<g id="glyph-3-8">
<path d="M 4.828125 -4.53125 C 5.03125 -4.515625 5.140625 -4.515625 5.234375 -4.515625 C 5.4375 -4.515625 5.5625 -4.53125 5.84375 -4.5625 L 5.9375 -5.09375 L 5.90625 -5.171875 C 5.578125 -5.078125 5.34375 -5.0625 4.6875 -5.0625 C 4.5 -5.375 4.375 -5.484375 4.078125 -5.59375 C 3.828125 -5.6875 3.53125 -5.75 3.28125 -5.75 C 2.796875 -5.75 2.203125 -5.53125 1.671875 -5.140625 C 1 -4.625 0.65625 -3.9375 0.65625 -3.09375 C 0.65625 -2.171875 1.1875 -1.625 2.109375 -1.625 C 2.203125 -1.625 2.34375 -1.625 2.46875 -1.640625 L 1.984375 -1.1875 C 1.796875 -1 1.65625 -0.78125 1.65625 -0.625 C 1.65625 -0.5 1.75 -0.375 1.90625 -0.234375 C 1 0.078125 0.625 0.25 0.1875 0.625 C -0.21875 0.953125 -0.4375 1.421875 -0.4375 1.890625 C -0.4375 2.75 0.390625 3.296875 1.6875 3.296875 C 3.234375 3.296875 4.578125 2.4375 4.578125 1.4375 C 4.578125 1.015625 4.328125 0.578125 3.8125 0.171875 L 3.109375 -0.421875 C 2.703125 -0.734375 2.546875 -0.96875 2.546875 -1.1875 C 2.546875 -1.296875 2.609375 -1.421875 2.796875 -1.640625 C 2.828125 -1.6875 2.84375 -1.703125 2.859375 -1.75 C 4.03125 -2.03125 4.875 -3.015625 4.875 -4.078125 C 4.875 -4.1875 4.875 -4.296875 4.84375 -4.484375 Z M 3.015625 0.6875 C 3.5625 1.125 3.796875 1.4375 3.796875 1.84375 C 3.796875 2.453125 2.96875 2.953125 1.984375 2.953125 C 1 2.953125 0.328125 2.453125 0.328125 1.734375 C 0.328125 1.28125 0.53125 0.859375 0.921875 0.53125 C 1.234375 0.28125 1.5 0.171875 2.09375 -0.015625 Z M 2.984375 -5.34375 C 3.671875 -5.34375 4.015625 -4.921875 4.015625 -4.078125 C 4.015625 -2.84375 3.453125 -2 2.609375 -2 C 1.890625 -2 1.5 -2.5 1.5 -3.4375 C 1.5 -4.578125 2.109375 -5.34375 2.984375 -5.34375 Z M 2.984375 -5.34375 "/>
</g>
<g id="glyph-3-9">
<path d="M 3 -8.625 L 2.859375 -8.75 C 2.234375 -8.4375 1.796875 -8.328125 0.9375 -8.25 L 0.890625 -8 L 1.46875 -8 C 1.75 -8 1.875 -7.921875 1.875 -7.734375 C 1.875 -7.703125 1.875 -7.640625 1.84375 -7.421875 L 1.796875 -7.15625 C 1.734375 -6.5 1 -2.796875 0.828125 -2.203125 L 0.65625 -1.578125 C 0.5 -0.984375 0.4375 -0.625 0.4375 -0.375 C 0.4375 -0.078125 0.5625 0.109375 0.78125 0.109375 C 1.09375 0.109375 1.53125 -0.140625 2.703125 -1.015625 L 2.578125 -1.234375 L 2.265625 -1.03125 C 1.921875 -0.796875 1.65625 -0.671875 1.546875 -0.671875 C 1.453125 -0.671875 1.390625 -0.78125 1.390625 -0.90625 C 1.390625 -0.984375 1.390625 -1.0625 1.4375 -1.234375 L 1.453125 -1.34375 Z M 3 -8.625 "/>
</g>
<g id="glyph-3-10">
<path d="M 0.40625 -4.625 L 0.484375 -4.390625 L 0.875 -4.640625 C 1.3125 -4.921875 1.34375 -4.9375 1.4375 -4.9375 C 1.546875 -4.9375 1.640625 -4.828125 1.640625 -4.671875 C 1.640625 -4.578125 1.59375 -4.3125 1.546875 -4.140625 L 0.765625 -1.28125 C 0.671875 -0.90625 0.609375 -0.578125 0.609375 -0.359375 C 0.609375 -0.078125 0.734375 0.109375 0.96875 0.109375 C 1.28125 0.109375 1.703125 -0.140625 2.875 -1.015625 L 2.75 -1.234375 L 2.453125 -1.03125 C 2.09375 -0.796875 1.828125 -0.671875 1.71875 -0.671875 C 1.640625 -0.671875 1.5625 -0.78125 1.5625 -0.90625 C 1.5625 -1.03125 1.59375 -1.140625 1.640625 -1.390625 L 2.5625 -5.015625 C 2.609375 -5.21875 2.640625 -5.34375 2.640625 -5.4375 C 2.640625 -5.640625 2.53125 -5.75 2.34375 -5.75 C 2.078125 -5.75 1.640625 -5.5 0.734375 -4.875 Z M 2.71875 -8.5 C 2.375 -8.5 2.03125 -8.109375 2.03125 -7.703125 C 2.03125 -7.40625 2.203125 -7.203125 2.5 -7.203125 C 2.859375 -7.203125 3.15625 -7.5625 3.15625 -8.015625 C 3.15625 -8.296875 2.96875 -8.5 2.71875 -8.5 Z M 2.71875 -8.5 "/>
</g>
<g id="glyph-3-11">
<path d="M 4.078125 -3.9375 L 4.359375 -3.9375 C 4.453125 -4.71875 4.53125 -5.15625 4.640625 -5.46875 C 4.359375 -5.640625 3.9375 -5.75 3.5 -5.75 C 2.953125 -5.75 2.078125 -5.328125 1.40625 -4.71875 C 0.75 -4.125 0.296875 -2.875 0.296875 -1.625 C 0.296875 -0.484375 0.796875 0.125 1.75 0.125 C 2.40625 0.125 2.96875 -0.109375 3.625 -0.640625 L 4.21875 -1.140625 L 4.125 -1.375 L 3.953125 -1.25 C 3.09375 -0.6875 2.640625 -0.484375 2.21875 -0.484375 C 1.546875 -0.484375 1.203125 -0.953125 1.203125 -1.890625 C 1.203125 -3.1875 1.625 -4.421875 2.203125 -4.875 C 2.453125 -5.078125 2.75 -5.171875 3.109375 -5.171875 C 3.65625 -5.171875 4.078125 -4.9375 4.078125 -4.65625 Z M 4.078125 -3.9375 "/>
</g>
<g id="glyph-3-12">
<path d="M 4.390625 -4.359375 C 4.421875 -4.8125 4.484375 -5.1875 4.578125 -5.6875 C 4.453125 -5.734375 4.40625 -5.75 4.34375 -5.75 C 3.96875 -5.75 3.609375 -5.46875 3.171875 -4.859375 L 2.859375 -4.390625 C 2.390625 -3.71875 2.25 -3.46875 2.046875 -3.0625 L 2.15625 -3.546875 C 2.203125 -3.8125 2.296875 -4.296875 2.359375 -4.5625 L 2.4375 -4.875 C 2.484375 -5.078125 2.5 -5.234375 2.5 -5.375 C 2.5 -5.609375 2.40625 -5.75 2.234375 -5.75 C 1.984375 -5.75 1.53125 -5.5 0.640625 -4.875 L 0.3125 -4.625 L 0.390625 -4.390625 L 0.78125 -4.640625 C 1.109375 -4.859375 1.234375 -4.921875 1.34375 -4.921875 C 1.46875 -4.921875 1.546875 -4.8125 1.546875 -4.65625 C 1.546875 -3.96875 1.03125 -1.5 0.5625 0.03125 L 0.6875 0.109375 C 0.859375 0.046875 1.046875 0.015625 1.328125 -0.046875 L 1.484375 -0.078125 L 1.796875 -1.5 C 2 -2.5 2.28125 -3.125 2.8125 -3.8125 C 3.21875 -4.328125 3.53125 -4.578125 3.796875 -4.578125 C 3.96875 -4.578125 4.09375 -4.53125 4.21875 -4.359375 Z M 4.390625 -4.359375 "/>
</g>
<g id="glyph-3-13">
<path d="M 3.3125 -5.75 C 2.8125 -5.75 2.25 -5.546875 1.703125 -5.171875 C 0.734375 -4.484375 0.203125 -3.265625 0.203125 -1.8125 C 0.203125 -0.546875 0.734375 0.125 1.734375 0.125 C 2.390625 0.125 3.109375 -0.171875 3.640625 -0.6875 C 4.375 -1.390625 4.90625 -2.75 4.90625 -3.953125 C 4.90625 -5.078125 4.3125 -5.75 3.3125 -5.75 Z M 2.875 -5.296875 C 3.609375 -5.296875 4 -4.765625 4 -3.765625 C 4 -2.609375 3.625 -1.34375 3.109375 -0.71875 C 2.890625 -0.46875 2.578125 -0.328125 2.203125 -0.328125 C 1.515625 -0.328125 1.109375 -0.859375 1.109375 -1.796875 C 1.109375 -3.15625 1.578125 -4.625 2.15625 -5.09375 C 2.3125 -5.234375 2.59375 -5.296875 2.875 -5.296875 Z M 2.875 -5.296875 "/>
</g>
<g id="glyph-3-14">
<path d="M 0.375 -1.765625 C 0.3125 -1.15625 0.234375 -0.734375 0.109375 -0.1875 C 0.5625 0.03125 0.96875 0.125 1.390625 0.125 C 1.96875 0.125 2.515625 -0.078125 3.125 -0.5625 C 3.734375 -1.03125 3.984375 -1.484375 3.984375 -2.078125 C 3.984375 -2.71875 3.609375 -3.0625 2.71875 -3.234375 L 2.203125 -3.328125 C 1.5 -3.46875 1.265625 -3.671875 1.265625 -4.15625 C 1.265625 -4.78125 1.796875 -5.28125 2.484375 -5.28125 C 2.96875 -5.28125 3.421875 -5.0625 3.609375 -4.734375 L 3.609375 -4.078125 L 3.890625 -4.078125 C 3.9375 -4.5 3.984375 -4.828125 4.125 -5.4375 C 3.65625 -5.65625 3.3125 -5.75 2.921875 -5.75 C 2.296875 -5.75 1.578125 -5.390625 1 -4.828125 C 0.6875 -4.5 0.5625 -4.203125 0.5625 -3.765625 C 0.5625 -3.109375 0.9375 -2.71875 1.71875 -2.5625 L 2.46875 -2.421875 C 3 -2.328125 3.1875 -2.109375 3.1875 -1.640625 C 3.1875 -0.875 2.640625 -0.34375 1.796875 -0.34375 C 1.375 -0.34375 1 -0.484375 0.671875 -0.765625 L 0.671875 -1.765625 Z M 0.375 -1.765625 "/>
</g>
<g id="glyph-3-15">
<path d="M -0.015625 -0.25 L 0.09375 0.078125 C 0.4375 -0.203125 0.765625 -0.3125 1.1875 -0.3125 C 1.484375 -0.3125 1.8125 -0.25 2.4375 -0.109375 C 3.15625 0.078125 3.515625 0.125 3.84375 0.125 C 3.984375 0.125 4.09375 0.109375 4.4375 0.015625 C 4.578125 -0.734375 4.671875 -1.140625 4.796875 -1.6875 L 4.53125 -1.6875 L 4.28125 -0.984375 C 4.203125 -0.765625 4.0625 -0.6875 3.8125 -0.6875 C 3.671875 -0.6875 3.46875 -0.703125 3.21875 -0.765625 L 3.015625 -0.8125 C 2.609375 -0.890625 2.203125 -0.953125 1.984375 -0.953125 C 1.59375 -0.953125 1.28125 -0.890625 0.84375 -0.703125 L 4.890625 -5.265625 L 4.96875 -5.640625 L 4.859375 -5.75 L 4.578125 -5.484375 C 4.46875 -5.359375 4.34375 -5.3125 4.171875 -5.3125 C 3.765625 -5.3125 3.15625 -5.40625 2.578125 -5.5625 L 2.359375 -5.625 C 2.03125 -5.703125 1.796875 -5.75 1.625 -5.75 C 1.421875 -5.75 1.1875 -5.71875 0.890625 -5.640625 L 0.515625 -4.171875 L 0.765625 -4.171875 L 1.125 -4.875 C 1.328125 -4.921875 1.4375 -4.9375 1.59375 -4.9375 C 1.75 -4.9375 1.890625 -4.921875 2.125 -4.875 C 2.53125 -4.78125 2.84375 -4.75 3.09375 -4.75 C 3.515625 -4.75 3.8125 -4.828125 4.203125 -5.03125 Z M -0.015625 -0.25 "/>
</g>
<g id="glyph-3-16">
<path d="M 1.234375 -1.34375 C 0.84375 -1.34375 0.53125 -0.953125 0.53125 -0.5 C 0.53125 -0.15625 0.734375 0.0625 1.046875 0.0625 C 1.4375 0.0625 1.78125 -0.328125 1.78125 -0.765625 C 1.78125 -1.09375 1.546875 -1.34375 1.234375 -1.34375 Z M 1.9375 -5.46875 C 1.546875 -5.46875 1.21875 -5.078125 1.21875 -4.625 C 1.21875 -4.28125 1.421875 -4.078125 1.75 -4.078125 C 2.15625 -4.078125 2.46875 -4.4375 2.46875 -4.890625 C 2.46875 -5.21875 2.234375 -5.46875 1.9375 -5.46875 Z M 1.9375 -5.46875 "/>
</g>
<g id="glyph-3-17">
<path d="M 2.828125 -8.265625 L 1.859375 -8.21875 L 1.578125 -8.21875 C 1.546875 -8.21875 1.359375 -8.234375 1.09375 -8.25 L 0.890625 -8.265625 L 0.828125 -7.921875 L 1.25 -7.90625 C 1.453125 -7.890625 1.71875 -7.8125 1.84375 -7.703125 C 2.03125 -7.5625 2.203125 -7.328125 2.203125 -7.234375 C 2.203125 -7.21875 2.203125 -7.1875 2.203125 -7.15625 C 2.203125 -7.140625 2.203125 -7.109375 2.1875 -7.09375 C 2.171875 -7 2.15625 -6.90625 2.15625 -6.875 L 1.09375 -1.21875 C 0.953125 -0.484375 0.890625 -0.375 0.453125 -0.328125 L 0.078125 -0.296875 L 0.03125 0.03125 L 1.34375 0 C 1.5 0 1.5 0 2.65625 0.03125 L 2.71875 -0.296875 L 2.21875 -0.328125 C 1.75 -0.375 1.640625 -0.46875 1.640625 -0.859375 C 1.640625 -0.953125 1.640625 -1.09375 1.671875 -1.21875 L 2.625 -6.75 L 6.65625 0.125 L 7.265625 0.125 L 8.375 -6.46875 C 8.625 -7.8125 8.65625 -7.859375 9.09375 -7.90625 L 9.53125 -7.921875 L 9.59375 -8.265625 L 9.34375 -8.265625 L 8.28125 -8.21875 L 7.265625 -8.265625 L 7.03125 -8.265625 L 6.96875 -7.921875 L 7.53125 -7.90625 C 7.84375 -7.890625 7.96875 -7.8125 7.96875 -7.609375 C 7.96875 -7.53125 7.921875 -7.21875 7.90625 -7.0625 L 6.953125 -1.234375 Z M 2.828125 -8.265625 "/>
</g>
<g id="glyph-3-18">
<path d="M 6.609375 -5.046875 L 6.75 -4.828125 C 6.859375 -4.890625 6.953125 -4.9375 7.0625 -4.9375 C 7.390625 -4.9375 7.578125 -4.65625 7.578125 -4.171875 C 7.578125 -2.453125 6.421875 -0.46875 5.40625 -0.46875 C 5.0625 -0.46875 4.8125 -0.9375 4.8125 -1.59375 C 4.8125 -2.15625 4.921875 -2.953125 5.0625 -3.46875 L 5.6875 -5.65625 L 5.59375 -5.75 L 4.71875 -5.484375 L 4.375 -3.71875 C 4.21875 -2.96875 4.0625 -2.5 3.71875 -1.84375 C 3.234375 -0.953125 2.78125 -0.46875 2.421875 -0.46875 C 2 -0.46875 1.734375 -0.9375 1.734375 -1.625 C 1.734375 -3.046875 2.21875 -4.203125 3.40625 -5.53125 L 3.28125 -5.75 C 3.046875 -5.640625 2.890625 -5.609375 2.546875 -5.609375 C 2.21875 -5.609375 1.71875 -5.640625 1.375 -5.671875 L 1.234375 -5.6875 C 1.15625 -5.6875 1.09375 -5.6875 1.09375 -5.6875 C 0.9375 -5.6875 0.828125 -5.671875 0.703125 -5.609375 C 0.53125 -5.28125 0.40625 -4.859375 0.25 -4.203125 L 0.515625 -4.203125 L 0.71875 -4.703125 C 0.796875 -4.90625 1.03125 -5.03125 1.328125 -5.03125 C 1.390625 -5.03125 1.5 -5.03125 1.640625 -5.03125 C 1.75 -5.015625 1.84375 -5.015625 2 -5.015625 C 2.25 -5.015625 2.40625 -5.03125 2.703125 -5.0625 L 2.65625 -5.015625 C 2.59375 -4.921875 2.546875 -4.859375 2.34375 -4.625 C 1.265625 -3.375 0.859375 -2.515625 0.859375 -1.5 C 0.859375 -0.53125 1.28125 0.125 1.90625 0.125 C 2.671875 0.125 3.296875 -0.53125 4.171875 -2.234375 C 4.078125 -1.703125 4.03125 -1.40625 4.03125 -1.140625 C 4.03125 -0.375 4.375 0.125 4.921875 0.125 C 5.890625 0.125 7.140625 -1.078125 7.875 -2.703125 C 8.140625 -3.3125 8.34375 -4.109375 8.34375 -4.578125 C 8.34375 -5.265625 8.03125 -5.75 7.609375 -5.75 C 7.453125 -5.75 7.3125 -5.703125 7.203125 -5.609375 Z M 6.609375 -5.046875 "/>
</g>
<g id="glyph-3-19">
<path d="M 5.96875 -2.71875 L 6.09375 -3.3125 L 0 -3.3125 L -0.125 -2.71875 Z M 5.96875 -2.71875 "/>
</g>
<g id="glyph-3-20">
<path d="M 1.25 -7.921875 L 1.921875 -7.90625 C 2.203125 -7.890625 2.34375 -7.796875 2.34375 -7.578125 C 2.34375 -7.40625 2.296875 -7.03125 2.234375 -6.671875 L 1.34375 -1.5 C 1.140625 -0.40625 1.125 -0.375 0.640625 -0.328125 L 0.15625 -0.296875 L 0.109375 0.03125 L 0.609375 0.03125 C 1.171875 0 1.390625 0 1.6875 0 L 2.84375 0.03125 L 3.15625 0.03125 L 3.1875 -0.296875 L 2.609375 -0.328125 C 2.28125 -0.359375 2.171875 -0.453125 2.171875 -0.6875 C 2.171875 -0.796875 2.1875 -0.90625 2.21875 -1.109375 L 3.234375 -6.921875 C 3.234375 -6.953125 3.296875 -7.1875 3.34375 -7.40625 C 3.359375 -7.5 3.390625 -7.578125 3.421875 -7.734375 C 3.765625 -7.8125 4.015625 -7.828125 4.328125 -7.828125 C 5.375 -7.828125 5.921875 -7.359375 5.921875 -6.484375 C 5.921875 -5.34375 4.984375 -4.515625 3.75 -4.515625 L 3.21875 -4.515625 L 3.1875 -4.375 C 4.78125 -2.046875 5.15625 -1.484375 6.046875 0.03125 L 6.84375 0 L 7.0625 0 C 7.078125 0 7.25 0.015625 7.46875 0.03125 L 7.625 0.03125 L 7.625 -0.28125 C 7.15625 -0.34375 7.015625 -0.4375 6.671875 -0.9375 L 4.484375 -4.21875 C 5.140625 -4.34375 5.484375 -4.484375 5.90625 -4.796875 C 6.59375 -5.296875 6.96875 -5.953125 6.96875 -6.6875 C 6.96875 -7.71875 6.203125 -8.28125 4.875 -8.265625 L 3.09375 -8.21875 C 2.90625 -8.21875 2.703125 -8.21875 1.296875 -8.265625 Z M 1.25 -7.921875 "/>
</g>
<g id="glyph-3-21">
<path d="M 1.375 -0.03125 L 1.484375 0 C 1.796875 0.09375 1.96875 0.125 2.09375 0.125 C 2.765625 0.125 4.140625 -0.734375 4.65625 -1.5 C 5.140625 -2.21875 5.546875 -3.53125 5.546875 -4.421875 C 5.546875 -5.234375 5.28125 -5.75 4.84375 -5.75 C 4.34375 -5.75 3.71875 -5.4375 3.09375 -4.875 C 2.609375 -4.46875 2.359375 -4.15625 1.9375 -3.453125 L 2.21875 -4.875 C 2.25 -5.078125 2.28125 -5.25 2.28125 -5.390625 C 2.28125 -5.625 2.1875 -5.75 2.015625 -5.75 C 1.765625 -5.75 1.3125 -5.5 0.4375 -4.875 L 0.09375 -4.625 L 0.171875 -4.390625 L 0.5625 -4.640625 C 0.890625 -4.859375 1.03125 -4.921875 1.140625 -4.921875 C 1.25 -4.921875 1.34375 -4.8125 1.34375 -4.640625 C 1.34375 -4.546875 1.3125 -4.3125 1.296875 -4.1875 L 0.59375 -0.09375 C 0.484375 0.625 0.25 1.703125 0.015625 2.78125 L -0.078125 3.21875 L 0 3.296875 C 0.25 3.21875 0.484375 3.15625 0.875 3.09375 Z M 1.703125 -1.96875 C 1.96875 -3.5 3.25 -5.0625 4.234375 -5.0625 C 4.546875 -5.0625 4.6875 -4.796875 4.6875 -4.25 C 4.6875 -3.28125 4.21875 -1.859375 3.578125 -0.953125 C 3.34375 -0.609375 2.953125 -0.4375 2.46875 -0.4375 C 2.09375 -0.4375 1.796875 -0.515625 1.5 -0.703125 Z M 1.703125 -1.96875 "/>
</g>
<g id="glyph-3-22">
<path d="M 1.34375 -1.34375 C 0.953125 -1.34375 0.625 -0.953125 0.625 -0.5 C 0.625 -0.15625 0.828125 0.0625 1.15625 0.0625 C 1.546875 0.0625 1.890625 -0.328125 1.890625 -0.765625 C 1.890625 -1.09375 1.640625 -1.34375 1.34375 -1.34375 Z M 1.34375 -1.34375 "/>
</g>
<g id="glyph-4-0">
<path d="M 2.5625 -3.984375 C 2.578125 -4.109375 2.578125 -4.34375 2.328125 -4.34375 C 2.1875 -4.34375 2.0625 -4.21875 2.09375 -4.09375 L 2.09375 -3.96875 L 2.21875 -2.53125 L 1.03125 -3.390625 C 0.9375 -3.4375 0.921875 -3.453125 0.859375 -3.453125 C 0.734375 -3.453125 0.609375 -3.328125 0.609375 -3.203125 C 0.609375 -3.046875 0.703125 -3.015625 0.796875 -2.96875 L 2.125 -2.328125 L 0.828125 -1.703125 C 0.6875 -1.625 0.609375 -1.59375 0.609375 -1.453125 C 0.609375 -1.3125 0.734375 -1.1875 0.859375 -1.1875 C 0.921875 -1.1875 0.9375 -1.1875 1.171875 -1.375 L 2.21875 -2.125 L 2.078125 -0.5625 C 2.078125 -0.359375 2.25 -0.3125 2.328125 -0.3125 C 2.4375 -0.3125 2.578125 -0.375 2.578125 -0.5625 L 2.4375 -2.125 L 3.625 -1.265625 C 3.71875 -1.21875 3.734375 -1.1875 3.796875 -1.1875 C 3.921875 -1.1875 4.046875 -1.328125 4.046875 -1.453125 C 4.046875 -1.59375 3.96875 -1.640625 3.859375 -1.703125 C 3.296875 -1.984375 3.28125 -1.984375 2.53125 -2.328125 L 3.828125 -2.953125 C 3.96875 -3.015625 4.046875 -3.0625 4.046875 -3.203125 C 4.046875 -3.34375 3.921875 -3.453125 3.796875 -3.453125 C 3.734375 -3.453125 3.71875 -3.453125 3.484375 -3.28125 L 2.4375 -2.53125 Z M 2.5625 -3.984375 "/>
</g>
<g id="glyph-5-0">
<path d="M 0.59375 -4.96875 L 0.6875 -4.96875 L 1.84375 -5.484375 C 1.859375 -5.5 1.859375 -5.5 1.875 -5.5 C 1.921875 -5.5 1.9375 -5.421875 1.9375 -5.203125 L 1.9375 -0.859375 C 1.9375 -0.390625 1.84375 -0.296875 1.359375 -0.265625 L 0.859375 -0.234375 L 0.859375 0.03125 C 2.234375 0 2.234375 0 2.34375 0 C 2.453125 0 2.65625 0 2.953125 0.015625 C 3.0625 0.015625 3.375 0.015625 3.75 0.03125 L 3.75 -0.234375 L 3.28125 -0.265625 C 2.78125 -0.296875 2.6875 -0.390625 2.6875 -0.859375 L 2.6875 -6.171875 L 2.5625 -6.21875 C 1.984375 -5.90625 1.359375 -5.640625 0.53125 -5.359375 Z M 0.59375 -4.96875 "/>
</g>
<g id="glyph-5-1">
<path d="M 0.140625 -0.203125 L 0.140625 0.03125 C 1.8125 0 1.8125 0 2.140625 0 C 2.46875 0 2.46875 0 4.1875 0.03125 C 4.171875 -0.15625 4.171875 -0.25 4.171875 -0.375 C 4.171875 -0.5 4.171875 -0.578125 4.1875 -0.78125 C 3.15625 -0.734375 2.75 -0.71875 1.09375 -0.6875 L 2.71875 -2.421875 C 3.59375 -3.34375 3.859375 -3.828125 3.859375 -4.5 C 3.859375 -5.53125 3.15625 -6.171875 2.015625 -6.171875 C 1.375 -6.171875 0.9375 -5.984375 0.5 -5.546875 L 0.34375 -4.328125 L 0.609375 -4.328125 L 0.71875 -4.734375 C 0.875 -5.25 1.1875 -5.484375 1.796875 -5.484375 C 2.5625 -5.484375 3.046875 -5 3.046875 -4.234375 C 3.046875 -3.5625 2.671875 -2.90625 1.671875 -1.828125 Z M 0.140625 -0.203125 "/>
</g>
<g id="glyph-6-0">
<path d="M 2.09375 -6.46875 L 1.984375 -6.5625 C 1.515625 -6.328125 1.203125 -6.25 0.5625 -6.1875 L 0.515625 -6 L 0.953125 -6 C 1.15625 -6 1.25 -5.9375 1.25 -5.78125 C 1.25 -5.71875 1.25 -5.625 1.234375 -5.5625 L 0.8125 -3.171875 C 0.6875 -2.5 0.53125 -1.875 0.078125 -0.015625 L 0.15625 0.078125 L 0.75 -0.078125 L 0.953125 -1.1875 C 1.03125 -1.609375 1.25 -2.015625 1.5625 -2.3125 C 2.171875 -0.53125 2.46875 0.078125 2.6875 0.078125 C 2.796875 0.078125 3.015625 -0.03125 3.40625 -0.3125 L 3.828125 -0.59375 L 3.75 -0.765625 L 3.359375 -0.5625 C 3.234375 -0.484375 3.171875 -0.46875 3.109375 -0.46875 C 3.015625 -0.46875 2.953125 -0.515625 2.875 -0.671875 C 2.5625 -1.25 2.359375 -1.734375 2.015625 -2.828125 L 2.140625 -2.953125 C 2.6875 -3.5 3.09375 -3.71875 3.546875 -3.71875 C 3.609375 -3.71875 3.71875 -3.703125 3.875 -3.671875 L 4.015625 -4.234375 C 3.859375 -4.28125 3.703125 -4.3125 3.59375 -4.3125 C 3 -4.3125 2.25 -3.625 1.140625 -2.0625 Z M 2.09375 -6.46875 "/>
</g>
<g id="glyph-7-0">
<path d="M 3.8125 -2.140625 L 6.421875 -2.140625 C 6.546875 -2.140625 6.71875 -2.140625 6.71875 -2.328125 C 6.71875 -2.515625 6.546875 -2.515625 6.421875 -2.515625 L 3.8125 -2.515625 L 3.8125 -5.125 C 3.8125 -5.265625 3.8125 -5.4375 3.625 -5.4375 C 3.4375 -5.4375 3.4375 -5.265625 3.4375 -5.125 L 3.4375 -2.515625 L 0.828125 -2.515625 C 0.703125 -2.515625 0.515625 -2.515625 0.515625 -2.328125 C 0.515625 -2.140625 0.703125 -2.140625 0.828125 -2.140625 L 3.4375 -2.140625 L 3.4375 0.46875 C 3.4375 0.59375 3.4375 0.78125 3.625 0.78125 C 3.8125 0.78125 3.8125 0.59375 3.8125 0.46875 Z M 3.8125 -2.140625 "/>
</g>
<g id="glyph-8-0">
<path d="M 4.109375 2.984375 C 4.109375 2.953125 4.109375 2.921875 3.90625 2.71875 C 2.34375 1.140625 1.953125 -1.203125 1.953125 -3.109375 C 1.953125 -5.28125 2.421875 -7.4375 3.953125 -9 C 4.109375 -9.140625 4.109375 -9.171875 4.109375 -9.203125 C 4.109375 -9.296875 4.0625 -9.328125 4 -9.328125 C 3.875 -9.328125 2.75 -8.484375 2.015625 -6.90625 C 1.375 -5.53125 1.234375 -4.15625 1.234375 -3.109375 C 1.234375 -2.140625 1.375 -0.640625 2.046875 0.765625 C 2.796875 2.296875 3.875 3.109375 4 3.109375 C 4.0625 3.109375 4.109375 3.078125 4.109375 2.984375 Z M 4.109375 2.984375 "/>
</g>
<g id="glyph-8-1">
<path d="M 3.59375 -3.109375 C 3.59375 -4.078125 3.453125 -5.578125 2.78125 -6.984375 C 2.03125 -8.515625 0.953125 -9.328125 0.828125 -9.328125 C 0.765625 -9.328125 0.703125 -9.28125 0.703125 -9.203125 C 0.703125 -9.171875 0.703125 -9.140625 0.9375 -8.921875 C 2.171875 -7.6875 2.875 -5.703125 2.875 -3.109375 C 2.875 -0.984375 2.40625 1.203125 0.875 2.78125 C 0.703125 2.921875 0.703125 2.953125 0.703125 2.984375 C 0.703125 3.0625 0.765625 3.109375 0.828125 3.109375 C 0.953125 3.109375 2.078125 2.265625 2.8125 0.6875 C 3.4375 -0.6875 3.59375 -2.0625 3.59375 -3.109375 Z M 3.59375 -3.109375 "/>
</g>
<g id="glyph-9-0">
<path d="M 3.046875 -7.671875 C 3.078125 -7.265625 3.09375 -7 3.09375 -6.484375 L 3.09375 -1.4375 C 3.09375 -0.484375 3.03125 -0.390625 2.484375 -0.359375 L 1.90625 -0.328125 L 1.90625 0.03125 C 2.609375 0.015625 3.03125 0 3.65625 0 C 4.28125 0 4.703125 0.015625 5.40625 0.03125 L 5.40625 -0.328125 L 4.828125 -0.359375 C 4.28125 -0.390625 4.21875 -0.484375 4.21875 -1.4375 L 4.21875 -6.484375 C 4.21875 -7.015625 4.234375 -7.28125 4.28125 -7.671875 L 6.125 -7.671875 C 6.453125 -7.671875 6.59375 -7.5625 6.59375 -7.28125 L 6.65625 -6.34375 L 7.015625 -6.34375 C 7.015625 -7.109375 7.046875 -7.578125 7.109375 -8.265625 C 6.25 -8.25 5.84375 -8.25 5.515625 -8.234375 C 5.046875 -8.21875 4.703125 -8.21875 4.53125 -8.21875 L 2.640625 -8.21875 C 2.515625 -8.21875 1.875 -8.234375 1.03125 -8.25 L 0.21875 -8.265625 C 0.28125 -7.578125 0.296875 -7.109375 0.296875 -6.34375 L 0.671875 -6.34375 L 0.71875 -7.28125 C 0.734375 -7.5625 0.859375 -7.671875 1.1875 -7.671875 Z M 3.046875 -7.671875 "/>
</g>
<g id="glyph-9-1">
<path d="M 3.875 -0.984375 L 3.8125 0.03125 C 4.578125 0 4.578125 0 4.734375 0 C 4.796875 0 5.09375 0.015625 5.625 0.03125 L 5.625 -0.328125 L 5.15625 -0.34375 C 4.875 -0.359375 4.828125 -0.453125 4.828125 -1.03125 L 4.828125 -3.21875 C 4.828125 -4.96875 4.328125 -5.59375 2.9375 -5.59375 C 2.421875 -5.59375 1.953125 -5.46875 1.5 -5.1875 L 0.859375 -4.8125 L 0.859375 -4.03125 L 1.171875 -3.953125 L 1.328125 -4.328125 C 1.578125 -4.875 1.6875 -4.96875 2.25 -4.96875 C 3.359375 -4.96875 3.828125 -4.53125 3.875 -3.4375 L 2.6875 -3.21875 C 1.0625 -2.921875 0.375 -2.359375 0.375 -1.328125 C 0.375 -0.390625 0.9375 0.140625 1.890625 0.140625 C 2.09375 0.140625 2.296875 0.109375 2.390625 0.046875 Z M 3.875 -1.484375 C 3.515625 -0.984375 2.765625 -0.53125 2.296875 -0.53125 C 1.828125 -0.53125 1.40625 -0.984375 1.40625 -1.5 C 1.40625 -1.9375 1.640625 -2.359375 2 -2.578125 C 2.296875 -2.75 2.953125 -2.921875 3.875 -3.0625 Z M 3.875 -1.484375 "/>
</g>
<g id="glyph-9-2">
<path d="M 4.890625 0.03125 C 5.625 0 5.640625 0 5.84375 0 C 6 0 6 0 6.828125 0.03125 L 6.828125 -0.328125 L 6.34375 -0.359375 C 5.9375 -0.375 5.890625 -0.453125 5.890625 -1.21875 L 5.890625 -3.515625 C 5.890625 -4.921875 5.234375 -5.59375 3.90625 -5.59375 C 3.46875 -5.59375 3.21875 -5.515625 2.953125 -5.296875 L 2.046875 -4.515625 L 2.046875 -5.546875 L 1.953125 -5.59375 C 1.34375 -5.34375 0.71875 -5.1875 0.078125 -5.109375 L 0.078125 -4.78125 L 0.53125 -4.78125 C 1 -4.78125 1.046875 -4.6875 1.046875 -3.90625 L 1.046875 -1.21875 C 1.046875 -0.46875 1.015625 -0.375 0.609375 -0.359375 L 0.078125 -0.328125 L 0.078125 0.03125 C 0.890625 0.015625 1.203125 0 1.546875 0 C 1.890625 0 2.21875 0.015625 3.03125 0.03125 L 3.03125 -0.328125 L 2.5 -0.359375 C 2.09375 -0.375 2.046875 -0.46875 2.046875 -1.21875 L 2.046875 -3.75 C 2.046875 -4.28125 2.84375 -4.875 3.5625 -4.875 C 4.375 -4.875 4.890625 -4.28125 4.890625 -3.359375 Z M 4.890625 0.03125 "/>
</g>
<g id="glyph-9-3">
<path d="M 6.203125 -4.515625 L 6.5 -5 L 6.453125 -5.140625 L 4.75 -5.09375 C 4.3125 -5.453125 3.875 -5.59375 3.296875 -5.59375 C 2.765625 -5.59375 2.15625 -5.4375 1.671875 -5.140625 C 1 -4.765625 0.65625 -4.171875 0.65625 -3.453125 C 0.65625 -2.5625 1.203125 -1.953125 2.09375 -1.859375 L 1.140625 -1.140625 C 1.03125 -0.953125 0.96875 -0.796875 0.96875 -0.625 C 0.96875 -0.28125 1.1875 -0.09375 1.75 0.078125 L 0.71875 0.625 C 0.546875 0.734375 0.375 1.171875 0.375 1.546875 C 0.375 2.625 1.4375 3.375 2.953125 3.375 C 4.765625 3.375 6.1875 2.25 6.1875 0.78125 C 6.1875 -0.078125 5.609375 -0.671875 4.78125 -0.671875 L 2.859375 -0.671875 C 2.25 -0.671875 1.953125 -0.8125 1.953125 -1.140625 C 1.953125 -1.296875 2.046875 -1.421875 2.359375 -1.6875 C 2.4375 -1.75 2.453125 -1.765625 2.5 -1.8125 C 2.625 -1.796875 2.703125 -1.796875 2.796875 -1.796875 C 3.3125 -1.796875 3.9375 -2.015625 4.421875 -2.359375 C 4.96875 -2.75 5.234375 -3.234375 5.234375 -3.875 C 5.234375 -4.109375 5.1875 -4.265625 5.09375 -4.515625 Z M 2.859375 -5.1875 C 3.671875 -5.1875 4.21875 -4.53125 4.21875 -3.515625 C 4.21875 -2.734375 3.71875 -2.203125 3 -2.203125 C 2.203125 -2.203125 1.65625 -2.8125 1.65625 -3.734375 C 1.65625 -4.65625 2.09375 -5.1875 2.859375 -5.1875 Z M 3.421875 0.171875 C 4.78125 0.171875 5.234375 0.4375 5.234375 1.21875 C 5.234375 2.25 4.296875 3.015625 3.046875 3.015625 C 2 3.015625 1.296875 2.40625 1.296875 1.515625 C 1.296875 0.984375 1.59375 0.484375 2.078125 0.28125 C 2.265625 0.1875 2.609375 0.171875 3.421875 0.171875 Z M 3.421875 0.171875 "/>
</g>
<g id="glyph-9-4">
<path d="M 5.21875 -0.828125 L 5.0625 -0.953125 C 4.296875 -0.5 4.015625 -0.390625 3.515625 -0.390625 C 2.734375 -0.390625 2.09375 -0.734375 1.75 -1.328125 C 1.53125 -1.71875 1.4375 -2.046875 1.421875 -2.75 L 3.15625 -2.75 C 3.984375 -2.75 4.5 -2.78125 5.328125 -2.90625 C 5.34375 -3.078125 5.34375 -3.1875 5.34375 -3.328125 C 5.34375 -4.703125 4.46875 -5.59375 3.125 -5.59375 C 2.6875 -5.59375 2.171875 -5.4375 1.6875 -5.15625 C 0.703125 -4.59375 0.3125 -3.859375 0.3125 -2.609375 C 0.3125 -1.859375 0.484375 -1.21875 0.8125 -0.765625 C 1.296875 -0.125 2.09375 0.234375 2.984375 0.234375 C 3.421875 0.234375 3.875 0.140625 4.359375 -0.078125 C 4.671875 -0.203125 4.9375 -0.359375 4.984375 -0.4375 Z M 4.28125 -3.1875 C 3.671875 -3.15625 3.375 -3.15625 2.953125 -3.15625 C 2.40625 -3.15625 2.09375 -3.15625 1.4375 -3.21875 C 1.4375 -3.78125 1.5 -4.046875 1.640625 -4.359375 C 1.890625 -4.875 2.40625 -5.203125 2.984375 -5.203125 C 3.375 -5.203125 3.6875 -5.046875 3.90625 -4.734375 C 4.171875 -4.328125 4.25 -3.984375 4.28125 -3.1875 Z M 4.28125 -3.1875 "/>
</g>
<g id="glyph-9-5">
<path d="M 1.171875 -4.5625 L 1.171875 -1.125 C 1.171875 -0.234375 1.5625 0.140625 2.484375 0.140625 C 2.75 0.140625 3.046875 0.078125 3.109375 0 L 3.6875 -0.625 L 3.53125 -0.828125 C 3.234375 -0.671875 3.0625 -0.609375 2.828125 -0.609375 C 2.359375 -0.609375 2.171875 -0.84375 2.171875 -1.4375 L 2.171875 -4.5625 L 3.703125 -4.5625 L 3.8125 -5.203125 L 2.171875 -5.140625 L 2.171875 -5.59375 C 2.171875 -6.09375 2.203125 -6.515625 2.296875 -7.28125 L 2.15625 -7.40625 C 1.875 -7.234375 1.515625 -7.078125 1.140625 -6.953125 C 1.1875 -6.59375 1.1875 -6.375 1.1875 -6.015625 L 1.1875 -5.1875 L 0.265625 -4.765625 L 0.265625 -4.515625 Z M 1.171875 -4.5625 "/>
</g>
<g id="glyph-9-6">
<path d="M 2.4375 -1.46875 C 2.109375 -1.359375 1.890625 -1.296875 1.265625 -1.109375 C 1.1875 -0.203125 0.890625 0.578125 0.1875 1.71875 L 0.359375 1.84375 L 0.84375 1.625 C 1.8125 0.375 2.265625 -0.375 2.609375 -1.296875 Z M 2.4375 -1.46875 "/>
</g>
</g>
<clipPath id="clip-0">
<path clip-rule="nonzero" d="M 0.0898438 0 L 506.5 0 L 506.5 350.777344 L 0.0898438 350.777344 Z M 0.0898438 0 "/>
</clipPath>
</defs>
<path fill-rule="nonzero" fill="rgb(97.645569%, 96.470642%, 94.119263%)" fill-opacity="1" d="M 12.765625 324.175781 L 12.765625 26.601562 C 12.765625 18.910156 19 12.675781 26.691406 12.675781 L 479.902344 12.675781 C 487.59375 12.675781 493.824219 18.910156 493.824219 26.601562 L 493.824219 324.175781 C 493.824219 331.867188 487.59375 338.101562 479.902344 338.101562 L 26.691406 338.101562 C 19 338.101562 12.765625 331.867188 12.765625 324.175781 Z M 12.765625 324.175781 "/>
<g clip-path="url(#clip-0)">
<path fill="none" stroke-width="1.49442" stroke-linecap="butt" stroke-linejoin="miter" stroke="rgb(83.137512%, 78.823853%, 72.155762%)" stroke-opacity="1" stroke-miterlimit="10" d="M -70.868223 -56.918463 L -70.868223 241.173182 C -70.868223 248.877963 -64.623007 255.123178 -56.918227 255.123178 L 397.08076 255.123178 C 404.78554 255.123178 411.026842 248.877963 411.026842 241.173182 L 411.026842 -56.918463 C 411.026842 -64.623243 404.78554 -70.868458 397.08076 -70.868458 L -56.918227 -70.868458 C -64.623007 -70.868458 -70.868223 -64.623243 -70.868223 -56.918463 Z M -70.868223 -56.918463 " transform="matrix(0.998264, 0, 0, -0.998264, 83.510835, 267.356118)"/>
</g>
<g fill="rgb(23.922729%, 20.783997%, 18.824768%)" fill-opacity="1">
<use xlink:href="#glyph-0-0" x="82.419732" y="39.326618"/>
<use xlink:href="#glyph-0-1" x="96.735268" y="39.326618"/>
<use xlink:href="#glyph-0-2" x="105.328027" y="39.326618"/>
<use xlink:href="#glyph-0-3" x="119.643563" y="39.326618"/>
<use xlink:href="#glyph-0-4" x="125.366341" y="39.326618"/>
<use xlink:href="#glyph-0-5" x="134.921489" y="39.326618"/>
<use xlink:href="#glyph-0-6" x="145.42184" y="39.326618"/>
<use xlink:href="#glyph-0-7" x="154.014599" y="39.326618"/>
<use xlink:href="#glyph-0-8" x="166.422542" y="39.326618"/>
<use xlink:href="#glyph-0-9" x="175.015301" y="39.326618"/>
<use xlink:href="#glyph-0-10" x="185.515652" y="39.326618"/>
<use xlink:href="#glyph-0-11" x="196.016004" y="39.326618"/>
<use xlink:href="#glyph-0-4" x="203.646373" y="39.326618"/>
<use xlink:href="#glyph-0-5" x="213.201521" y="39.326618"/>
</g>
<g fill="rgb(23.922729%, 20.783997%, 18.824768%)" fill-opacity="1">
<use xlink:href="#glyph-0-12" x="227.998252" y="39.326618"/>
<use xlink:href="#glyph-0-1" x="242.313788" y="39.326618"/>
<use xlink:href="#glyph-0-4" x="250.906547" y="39.326618"/>
<use xlink:href="#glyph-0-13" x="260.461695" y="39.326618"/>
<use xlink:href="#glyph-0-1" x="275.73962" y="39.326618"/>
<use xlink:href="#glyph-0-3" x="284.332378" y="39.326618"/>
<use xlink:href="#glyph-0-14" x="290.055156" y="39.326618"/>
<use xlink:href="#glyph-0-15" x="296.740322" y="39.326618"/>
<use xlink:href="#glyph-0-16" x="302.463099" y="39.326618"/>
</g>
<g fill="rgb(23.922729%, 20.783997%, 18.824768%)" fill-opacity="1">
<use xlink:href="#glyph-0-17" x="314.389849" y="39.326618"/>
<use xlink:href="#glyph-0-5" x="321.075015" y="39.326618"/>
<use xlink:href="#glyph-0-3" x="331.575366" y="39.326618"/>
<use xlink:href="#glyph-0-1" x="337.298144" y="39.326618"/>
<use xlink:href="#glyph-0-14" x="345.890902" y="39.326618"/>
<use xlink:href="#glyph-0-9" x="352.576069" y="39.326618"/>
<use xlink:href="#glyph-0-14" x="363.07642" y="39.326618"/>
<use xlink:href="#glyph-0-1" x="369.761586" y="39.326618"/>
<use xlink:href="#glyph-0-3" x="378.354345" y="39.326618"/>
<use xlink:href="#glyph-0-8" x="384.077123" y="39.326618"/>
<use xlink:href="#glyph-0-3" x="392.669881" y="39.326618"/>
<use xlink:href="#glyph-0-15" x="398.392659" y="39.326618"/>
<use xlink:href="#glyph-0-4" x="404.115436" y="39.326618"/>
<use xlink:href="#glyph-0-5" x="413.670584" y="39.326618"/>
</g>
<path fill="none" stroke-width="1.49442" stroke-linecap="butt" stroke-linejoin="miter" stroke="rgb(23.922729%, 20.783997%, 18.824768%)" stroke-opacity="1" stroke-miterlimit="10" d="M -14.172154 85.038884 L 361.468162 85.038884 " transform="matrix(0.998264, 0, 0, -0.998264, 83.510835, 267.356118)"/>
<path fill-rule="nonzero" fill="rgb(23.922729%, 20.783997%, 18.824768%)" fill-opacity="1" stroke-width="1.49442" stroke-linecap="butt" stroke-linejoin="miter" stroke="rgb(23.922729%, 20.783997%, 18.824768%)" stroke-opacity="1" stroke-miterlimit="10" d="M 9.20923 -0.00153612 L 2.412276 2.573246 L 4.674014 -0.00153612 L 2.412276 -2.572405 Z M 9.20923 -0.00153612 " transform="matrix(0.998264, 0, 0, -0.998264, 440.060661, 182.46331)"/>
<g fill="rgb(23.922729%, 20.783997%, 18.824768%)" fill-opacity="1">
<use xlink:href="#glyph-1-0" x="455.858392" y="185.857828"/>
</g>
<path fill="none" stroke-width="1.49442" stroke-linecap="butt" stroke-linejoin="miter" stroke="rgb(23.922729%, 20.783997%, 18.824768%)" stroke-opacity="1" stroke-miterlimit="10" d="M 35.433483 -14.172389 L 35.433483 205.564498 " transform="matrix(0.998264, 0, 0, -0.998264, 83.510835, 267.356118)"/>
<path fill-rule="nonzero" fill="rgb(23.922729%, 20.783997%, 18.824768%)" fill-opacity="1" stroke-width="1.49442" stroke-linecap="butt" stroke-linejoin="miter" stroke="rgb(23.922729%, 20.783997%, 18.824768%)" stroke-opacity="1" stroke-miterlimit="10" d="M 9.209113 0.00000731272 L 2.412159 2.574789 L 4.673897 0.00000731272 L 2.412159 -2.574774 Z M 9.209113 0.00000731272 " transform="matrix(0, -0.998264, -0.998264, 0, 118.88282, 66.443128)"/>
<g fill="rgb(23.922729%, 20.783997%, 18.824768%)" fill-opacity="1">
<use xlink:href="#glyph-1-1" x="104.912621" y="47.327706"/>
</g>
<g fill="rgb(23.922729%, 20.783997%, 18.824768%)" fill-opacity="1">
<use xlink:href="#glyph-2-0" x="113.382637" y="47.327706"/>
</g>
<g fill="rgb(23.922729%, 20.783997%, 18.824768%)" fill-opacity="1">
<use xlink:href="#glyph-1-0" x="119.758947" y="47.327706"/>
</g>
<g fill="rgb(23.922729%, 20.783997%, 18.824768%)" fill-opacity="1">
<use xlink:href="#glyph-2-1" x="127.426969" y="47.327706"/>
</g>
<path fill="none" stroke-width="2.49069" stroke-linecap="butt" stroke-linejoin="miter" stroke="rgb(48.234558%, 59.214783%, 67.843628%)" stroke-opacity="1" stroke-miterlimit="10" d="M 14.173924 206.648411 C 14.173924 206.648411 29.141311 179.644506 35.433483 170.081031 C 41.725655 160.517556 63.000865 129.913652 70.86608 120.475394 C 78.731295 111.033223 98.433463 91.331056 106.298678 85.038884 C 114.167806 78.746712 133.869973 66.925411 141.735188 63.779325 C 149.600403 60.633239 169.302571 56.692806 177.167786 56.692806 C 185.033001 56.692806 204.735168 60.633239 212.600383 63.779325 C 220.465598 66.925411 240.167766 78.746712 248.032981 85.038884 C 255.902109 91.331056 277.177319 113.428005 283.469491 120.475394 C 289.761663 127.522783 300.796442 143.03017 304.72905 148.53582 C 308.661657 154.041471 314.969481 163.632337 318.902089 170.081031 C 322.834696 176.529725 340.161647 206.648411 340.161647 206.648411 " transform="matrix(0.998264, 0, 0, -0.998264, 83.510835, 267.356118)"/>
<path fill="none" stroke-width="1.99255" stroke-linecap="butt" stroke-linejoin="miter" stroke="rgb(47.840881%, 60.392761%, 49.412537%)" stroke-opacity="1" stroke-miterlimit="10" d="M 240.946461 56.692806 L 325.988608 179.151463 " transform="matrix(0.998264, 0, 0, -0.998264, 83.510835, 267.356118)"/>
<path fill="none" stroke-width="0.99628" stroke-linecap="butt" stroke-linejoin="miter" stroke="rgb(76.861572%, 47.840881%, 41.569519%)" stroke-opacity="1" stroke-dasharray="0.99628 1.99255" stroke-miterlimit="10" d="M 304.72905 85.038884 L 304.72905 148.53582 " transform="matrix(0.998264, 0, 0, -0.998264, 83.510835, 267.356118)"/>
<path fill-rule="nonzero" fill="rgb(76.861572%, 47.840881%, 41.569519%)" fill-opacity="1" d="M 391.6875 119.078125 C 391.6875 116.878906 389.90625 115.097656 387.710938 115.097656 C 385.511719 115.097656 383.730469 116.878906 383.730469 119.078125 C 383.730469 121.273438 385.511719 123.054688 387.710938 123.054688 C 389.90625 123.054688 391.6875 121.273438 391.6875 119.078125 Z M 391.6875 119.078125 "/>
<path fill-rule="nonzero" fill="rgb(47.840881%, 60.392761%, 49.412537%)" fill-opacity="1" d="M 347.542969 182.464844 C 347.542969 180.265625 345.761719 178.484375 343.566406 178.484375 C 341.367188 178.484375 339.585938 180.265625 339.585938 182.464844 C 339.585938 184.660156 341.367188 186.441406 343.566406 186.441406 C 345.761719 186.441406 347.542969 184.660156 347.542969 182.464844 Z M 347.542969 182.464844 "/>
<path fill-rule="nonzero" fill="rgb(56.469727%, 49.412537%, 62.745667%)" fill-opacity="1" d="M 193.109375 182.464844 C 193.109375 180.539062 191.550781 178.980469 189.625 178.980469 C 187.703125 178.980469 186.144531 180.539062 186.144531 182.464844 C 186.144531 184.386719 187.703125 185.945312 189.625 185.945312 C 191.550781 185.945312 193.109375 184.386719 193.109375 182.464844 Z M 193.109375 182.464844 "/>
<g fill="rgb(56.469727%, 49.412537%, 62.745667%)" fill-opacity="1">
<use xlink:href="#glyph-3-0" x="183.992117" y="212.163088"/>
</g>
<g fill="rgb(56.469727%, 49.412537%, 62.745667%)" fill-opacity="1">
<use xlink:href="#glyph-4-0" x="190.339081" y="207.830621"/>
</g>
<g fill="rgb(56.469727%, 49.412537%, 62.745667%)" fill-opacity="1">
<use xlink:href="#glyph-5-0" x="190.108482" y="215.987438"/>
</g>
<path fill-rule="nonzero" fill="rgb(56.469727%, 49.412537%, 62.745667%)" fill-opacity="1" d="M 334.597656 182.464844 C 334.597656 180.539062 333.039062 178.980469 331.113281 178.980469 C 329.191406 178.980469 327.632812 180.539062 327.632812 182.464844 C 327.632812 184.386719 329.191406 185.945312 331.113281 185.945312 C 333.039062 185.945312 334.597656 184.386719 334.597656 182.464844 Z M 334.597656 182.464844 "/>
<g fill="rgb(56.469727%, 49.412537%, 62.745667%)" fill-opacity="1">
<use xlink:href="#glyph-3-0" x="319.818939" y="212.163088"/>
</g>
<g fill="rgb(56.469727%, 49.412537%, 62.745667%)" fill-opacity="1">
<use xlink:href="#glyph-4-0" x="326.165903" y="207.830621"/>
</g>
<g fill="rgb(56.469727%, 49.412537%, 62.745667%)" fill-opacity="1">
<use xlink:href="#glyph-5-1" x="325.935304" y="215.853671"/>
</g>
<g fill="rgb(76.861572%, 47.840881%, 41.569519%)" fill-opacity="1">
<use xlink:href="#glyph-3-0" x="382.395131" y="214.351283"/>
</g>
<g fill="rgb(76.861572%, 47.840881%, 41.569519%)" fill-opacity="1">
<use xlink:href="#glyph-6-0" x="388.742095" y="210.018816"/>
</g>
<g fill="rgb(47.840881%, 60.392761%, 49.412537%)" fill-opacity="1">
<use xlink:href="#glyph-3-0" x="332.276278" y="168.385209"/>
</g>
<g fill="rgb(47.840881%, 60.392761%, 49.412537%)" fill-opacity="1">
<use xlink:href="#glyph-6-0" x="338.62424" y="164.053741"/>
</g>
<g fill="rgb(47.840881%, 60.392761%, 49.412537%)" fill-opacity="1">
<use xlink:href="#glyph-7-0" x="342.868888" y="164.053741"/>
</g>
<g fill="rgb(47.840881%, 60.392761%, 49.412537%)" fill-opacity="1">
<use xlink:href="#glyph-5-0" x="350.23067" y="164.053741"/>
</g>
<path fill-rule="nonzero" fill="rgb(97.645569%, 96.470642%, 94.119263%)" fill-opacity="1" stroke-width="0.59776" stroke-linecap="butt" stroke-linejoin="miter" stroke="rgb(83.137512%, 78.823853%, 72.155762%)" stroke-opacity="1" stroke-miterlimit="10" d="M 8.503926 169.392335 L 8.503926 210.455801 C 8.503926 213.206669 10.73436 215.437104 13.485229 215.437104 L 150.926924 215.437104 C 153.677793 215.437104 155.908227 213.206669 155.908227 210.455801 L 155.908227 169.392335 C 155.908227 166.641467 153.677793 164.411033 150.926924 164.411033 L 13.485229 164.411033 C 10.73436 164.411033 8.503926 166.641467 8.503926 169.392335 Z M 8.503926 169.392335 " transform="matrix(0.998264, 0, 0, -0.998264, 83.510835, 267.356118)"/>
<path fill="none" stroke-width="1.99255" stroke-linecap="butt" stroke-linejoin="miter" stroke="rgb(48.234558%, 59.214783%, 67.843628%)" stroke-opacity="1" stroke-miterlimit="10" d="M 19.843922 204.097107 L 45.356958 204.097107 " transform="matrix(0.998264, 0, 0, -0.998264, 83.510835, 267.356118)"/>
<g fill="rgb(23.922729%, 20.783997%, 18.824768%)" fill-opacity="1">
<use xlink:href="#glyph-3-1" x="138.954429" y="66.724978"/>
</g>
<g fill="rgb(23.922729%, 20.783997%, 18.824768%)" fill-opacity="1">
<use xlink:href="#glyph-8-0" x="146.012795" y="66.724978"/>
</g>
<g fill="rgb(23.922729%, 20.783997%, 18.824768%)" fill-opacity="1">
<use xlink:href="#glyph-3-0" x="151.326408" y="66.724978"/>
</g>
<g fill="rgb(23.922729%, 20.783997%, 18.824768%)" fill-opacity="1">
<use xlink:href="#glyph-8-1" x="157.716445" y="66.724978"/>
</g>
<path fill="none" stroke-width="1.99255" stroke-linecap="butt" stroke-linejoin="miter" stroke="rgb(47.840881%, 60.392761%, 49.412537%)" stroke-opacity="1" stroke-miterlimit="10" d="M 19.843922 187.091026 L 45.356958 187.091026 " transform="matrix(0.998264, 0, 0, -0.998264, 83.510835, 267.356118)"/>
<g fill="rgb(23.922729%, 20.783997%, 18.824768%)" fill-opacity="1">
<use xlink:href="#glyph-9-0" x="138.507207" y="84.335357"/>
</g>
<g fill="rgb(23.922729%, 20.783997%, 18.824768%)" fill-opacity="1">
<use xlink:href="#glyph-9-1" x="144.725054" y="84.335357"/>
<use xlink:href="#glyph-9-2" x="150.692278" y="84.335357"/>
<use xlink:href="#glyph-9-3" x="157.638127" y="84.335357"/>
<use xlink:href="#glyph-9-4" x="164.27368" y="84.335357"/>
<use xlink:href="#glyph-9-2" x="169.990281" y="84.335357"/>
<use xlink:href="#glyph-9-5" x="176.93613" y="84.335357"/>
</g>
<g fill="rgb(23.922729%, 20.783997%, 18.824768%)" fill-opacity="1">
<use xlink:href="#glyph-9-1" x="183.810372" y="84.335357"/>
<use xlink:href="#glyph-9-5" x="189.777596" y="84.335357"/>
</g>
<g fill="rgb(23.922729%, 20.783997%, 18.824768%)" fill-opacity="1">
<use xlink:href="#glyph-3-0" x="196.997937" y="84.335357"/>
</g>
<g fill="rgb(23.922729%, 20.783997%, 18.824768%)" fill-opacity="1">
<use xlink:href="#glyph-6-0" x="203.350456" y="80.00289"/>
</g>
<path fill-rule="nonzero" fill="rgb(76.861572%, 47.840881%, 41.569519%)" fill-opacity="1" d="M 119.035156 94.742188 C 119.035156 93.09375 117.699219 91.757812 116.054688 91.757812 C 114.40625 91.757812 113.070312 93.09375 113.070312 94.742188 C 113.070312 96.386719 114.40625 97.722656 116.054688 97.722656 C 117.699219 97.722656 119.035156 96.386719 119.035156 94.742188 Z M 119.035156 94.742188 "/>
<g fill="rgb(23.922729%, 20.783997%, 18.824768%)" fill-opacity="1">
<use xlink:href="#glyph-8-0" x="138.655948" y="98.609536"/>
</g>
<g fill="rgb(23.922729%, 20.783997%, 18.824768%)" fill-opacity="1">
<use xlink:href="#glyph-3-0" x="143.981495" y="98.609536"/>
</g>
<g fill="rgb(23.922729%, 20.783997%, 18.824768%)" fill-opacity="1">
<use xlink:href="#glyph-6-0" x="150.326655" y="94.27707"/>
</g>
<g fill="rgb(23.922729%, 20.783997%, 18.824768%)" fill-opacity="1">
<use xlink:href="#glyph-9-6" x="154.954608" y="98.609536"/>
</g>
<g fill="rgb(23.922729%, 20.783997%, 18.824768%)" fill-opacity="1">
<use xlink:href="#glyph-3-1" x="160.372847" y="98.609536"/>
</g>
<g fill="rgb(23.922729%, 20.783997%, 18.824768%)" fill-opacity="1">
<use xlink:href="#glyph-8-0" x="167.431213" y="98.609536"/>
</g>
<g fill="rgb(23.922729%, 20.783997%, 18.824768%)" fill-opacity="1">
<use xlink:href="#glyph-3-0" x="172.744826" y="98.609536"/>
</g>
<g fill="rgb(23.922729%, 20.783997%, 18.824768%)" fill-opacity="1">
<use xlink:href="#glyph-6-0" x="179.098626" y="94.27707"/>
</g>
<g fill="rgb(23.922729%, 20.783997%, 18.824768%)" fill-opacity="1">
<use xlink:href="#glyph-8-1" x="183.87532" y="98.609536"/>
</g>
<g fill="rgb(23.922729%, 20.783997%, 18.824768%)" fill-opacity="1">
<use xlink:href="#glyph-8-1" x="188.997575" y="98.609536"/>
</g>
<g fill="rgb(48.234558%, 43.920898%, 40.391541%)" fill-opacity="1">
<use xlink:href="#glyph-3-2" x="81.933578" y="313.578745"/>
<use xlink:href="#glyph-3-3" x="89.225526" y="313.578745"/>
<use xlink:href="#glyph-3-4" x="95.19275" y="313.578745"/>
</g>
<g fill="rgb(48.234558%, 43.920898%, 40.391541%)" fill-opacity="1">
<use xlink:href="#glyph-3-5" x="102.818862" y="313.578745"/>
<use xlink:href="#glyph-3-6" x="106.793033" y="313.578745"/>
<use xlink:href="#glyph-3-7" x="112.091928" y="313.578745"/>
<use xlink:href="#glyph-3-8" x="118.727482" y="313.578745"/>
<use xlink:href="#glyph-3-4" x="124.694706" y="313.578745"/>
<use xlink:href="#glyph-3-7" x="129.337206" y="313.578745"/>
<use xlink:href="#glyph-3-5" x="135.972759" y="313.578745"/>
</g>
<g fill="rgb(48.234558%, 43.920898%, 40.391541%)" fill-opacity="1">
<use xlink:href="#glyph-3-9" x="142.930542" y="313.578745"/>
<use xlink:href="#glyph-3-10" x="146.248319" y="313.578745"/>
<use xlink:href="#glyph-3-7" x="149.566096" y="313.578745"/>
<use xlink:href="#glyph-3-4" x="156.201649" y="313.578745"/>
</g>
<g fill="rgb(48.234558%, 43.920898%, 40.391541%)" fill-opacity="1">
<use xlink:href="#glyph-3-6" x="163.827761" y="313.578745"/>
<use xlink:href="#glyph-3-5" x="169.126656" y="313.578745"/>
</g>
<g fill="rgb(48.234558%, 43.920898%, 40.391541%)" fill-opacity="1">
<use xlink:href="#glyph-3-0" x="176.430539" y="313.578745"/>
</g>
<g fill="rgb(48.234558%, 43.920898%, 40.391541%)" fill-opacity="1">
<use xlink:href="#glyph-6-0" x="182.782221" y="309.246278"/>
</g>
<g fill="rgb(48.234558%, 43.920898%, 40.391541%)" fill-opacity="1">
<use xlink:href="#glyph-3-11" x="190.393985" y="313.578745"/>
<use xlink:href="#glyph-3-12" x="195.251306" y="313.578745"/>
</g>
<g fill="rgb(48.234558%, 43.920898%, 40.391541%)" fill-opacity="1">
<use xlink:href="#glyph-3-13" x="199.678986" y="313.578745"/>
<use xlink:href="#glyph-3-14" x="204.977881" y="313.578745"/>
<use xlink:href="#glyph-3-14" x="209.620381" y="313.578745"/>
<use xlink:href="#glyph-3-4" x="214.262882" y="313.578745"/>
<use xlink:href="#glyph-3-14" x="218.905382" y="313.578745"/>
</g>
<g fill="rgb(48.234558%, 43.920898%, 40.391541%)" fill-opacity="1">
<use xlink:href="#glyph-3-15" x="226.531494" y="313.578745"/>
<use xlink:href="#glyph-3-4" x="231.830389" y="313.578745"/>
<use xlink:href="#glyph-3-12" x="236.47289" y="313.578745"/>
</g>
<g fill="rgb(48.234558%, 43.920898%, 40.391541%)" fill-opacity="1">
<use xlink:href="#glyph-3-13" x="240.90057" y="313.578745"/>
</g>
<g fill="rgb(48.234558%, 43.920898%, 40.391541%)" fill-opacity="1">
<use xlink:href="#glyph-3-6" x="249.183077" y="313.578745"/>
<use xlink:href="#glyph-3-5" x="254.481972" y="313.578745"/>
</g>
<g fill="rgb(48.234558%, 43.920898%, 40.391541%)" fill-opacity="1">
<use xlink:href="#glyph-3-0" x="261.785854" y="313.578745"/>
</g>
<g fill="rgb(48.234558%, 43.920898%, 40.391541%)" fill-opacity="1">
<use xlink:href="#glyph-6-0" x="268.137803" y="309.246278"/>
</g>
<g fill="rgb(48.234558%, 43.920898%, 40.391541%)" fill-opacity="1">
<use xlink:href="#glyph-7-0" x="272.382451" y="309.246278"/>
</g>
<g fill="rgb(48.234558%, 43.920898%, 40.391541%)" fill-opacity="1">
<use xlink:href="#glyph-5-0" x="279.744233" y="309.246278"/>
</g>
<g fill="rgb(48.234558%, 43.920898%, 40.391541%)" fill-opacity="1">
<use xlink:href="#glyph-3-16" x="284.714979" y="313.578745"/>
</g>
<g fill="rgb(48.234558%, 43.920898%, 40.391541%)" fill-opacity="1">
<use xlink:href="#glyph-3-17" x="291.39827" y="313.578745"/>
<use xlink:href="#glyph-3-4" x="300.68327" y="313.578745"/>
<use xlink:href="#glyph-3-18" x="305.325771" y="313.578745"/>
<use xlink:href="#glyph-3-5" x="313.942442" y="313.578745"/>
<use xlink:href="#glyph-3-13" x="317.916614" y="313.578745"/>
<use xlink:href="#glyph-3-7" x="323.215509" y="313.578745"/>
<use xlink:href="#glyph-3-19" x="329.851062" y="313.578745"/>
<use xlink:href="#glyph-3-20" x="335.818286" y="313.578745"/>
<use xlink:href="#glyph-3-6" x="343.778563" y="313.578745"/>
<use xlink:href="#glyph-3-21" x="349.077458" y="313.578745"/>
<use xlink:href="#glyph-3-3" x="355.044682" y="313.578745"/>
<use xlink:href="#glyph-3-14" x="361.011906" y="313.578745"/>
<use xlink:href="#glyph-3-13" x="365.654406" y="313.578745"/>
<use xlink:href="#glyph-3-7" x="370.953301" y="313.578745"/>
</g>
<g fill="rgb(48.234558%, 43.920898%, 40.391541%)" fill-opacity="1">
<use xlink:href="#glyph-3-10" x="380.572467" y="313.578745"/>
<use xlink:href="#glyph-3-5" x="383.890243" y="313.578745"/>
<use xlink:href="#glyph-3-4" x="387.864415" y="313.578745"/>
<use xlink:href="#glyph-3-12" x="392.506915" y="313.578745"/>
<use xlink:href="#glyph-3-6" x="397.149415" y="313.578745"/>
<use xlink:href="#glyph-3-5" x="402.44831" y="313.578745"/>
<use xlink:href="#glyph-3-10" x="406.422482" y="313.578745"/>
<use xlink:href="#glyph-3-13" x="409.740258" y="313.578745"/>
<use xlink:href="#glyph-3-7" x="415.039153" y="313.578745"/>
<use xlink:href="#glyph-3-22" x="421.674706" y="313.578745"/>
</g>
</svg>
