<?xml version="1.0" encoding="UTF-8"?>
<svg xmlns="http://www.w3.org/2000/svg" xmlns:xlink="http://www.w3.org/1999/xlink" width="492.772pt" height="387.89pt" viewBox="0 0 492.772 387.89">
<defs>
<g>
<g id="glyph-0-0">
<path d="M 7.40625 -11.96875 C 3.234375 -11.96875 0.8125 -9.65625 0.8125 -5.71875 C 0.8125 -1.890625 3.0625 0.296875 7.015625 0.296875 C 11.125 0.296875 13.546875 -2.03125 13.546875 -5.953125 C 13.546875 -9.75 11.296875 -11.96875 7.40625 -11.96875 Z M 7.25 -11 C 8.15625 -11 8.890625 -10.703125 9.484375 -10.125 C 10.4375 -9.1875 10.96875 -7.546875 10.96875 -5.59375 C 10.96875 -2.359375 9.640625 -0.671875 7.125 -0.671875 C 6.1875 -0.671875 5.46875 -0.953125 4.859375 -1.5625 C 3.921875 -2.484375 3.390625 -4.125 3.390625 -6.109375 C 3.390625 -7.875 3.828125 -9.25 4.59375 -10.015625 C 5.265625 -10.671875 6.171875 -11 7.25 -11 Z M 7.25 -11 "/>
</g>
<g id="glyph-0-1">
<path d="M 3.65625 -8.109375 L 2.4375 -7.734375 C 1.859375 -7.5625 1.5625 -7.5 0.6875 -7.390625 L 0.5 -7.375 L 0.5 -6.75 L 1.28125 -6.703125 C 1.671875 -6.65625 1.71875 -6.515625 1.71875 -5.5 L 1.71875 2.671875 C 1.71875 3.59375 1.640625 3.734375 1.109375 3.765625 L 0.5 3.8125 L 0.5 4.4375 L 2.71875 4.390625 C 2.9375 4.390625 2.984375 4.390625 5.21875 4.4375 L 5.21875 3.8125 L 4.4375 3.765625 C 3.90625 3.75 3.828125 3.59375 3.828125 2.671875 L 3.828125 0 C 4.671875 0.234375 4.9375 0.296875 5.359375 0.296875 C 5.9375 0.296875 6.546875 -0.015625 7.71875 -0.953125 C 7.8125 -1.015625 7.921875 -1.109375 8 -1.171875 C 9.140625 -2.03125 9.765625 -3.375 9.765625 -4.921875 C 9.765625 -6.75 8.4375 -8.109375 6.640625 -8.109375 C 5.96875 -8.109375 5.46875 -7.921875 4.875 -7.4375 L 3.828125 -6.59375 L 3.828125 -8 Z M 3.828125 -5.703125 C 4.203125 -6.265625 4.765625 -6.5625 5.46875 -6.5625 C 6.796875 -6.5625 7.59375 -5.53125 7.59375 -3.8125 C 7.59375 -2.015625 6.8125 -0.875 5.5625 -0.875 C 4.84375 -0.875 4.28125 -1.171875 3.828125 -1.828125 Z M 3.828125 -5.703125 "/>
</g>
<g id="glyph-0-2">
<path d="M 5.578125 -1.03125 L 5.4375 -1.359375 C 5.09375 -1.1875 4.921875 -1.140625 4.65625 -1.140625 C 3.84375 -1.140625 3.578125 -1.40625 3.578125 -2.25 L 3.578125 -6.359375 L 5.40625 -6.359375 L 5.546875 -7.46875 L 3.578125 -7.375 L 3.578125 -8.375 C 3.578125 -9.28125 3.640625 -9.84375 3.78125 -10.703125 L 3.546875 -10.875 C 2.859375 -10.5625 2.328125 -10.34375 1.453125 -10.015625 C 1.5 -9.125 1.515625 -8.796875 1.515625 -8.4375 L 1.515625 -7.40625 L 0.375 -6.65625 L 0.375 -6.28125 L 1.484375 -6.359375 L 1.484375 -1.890625 C 1.484375 -0.359375 2.125 0.296875 3.609375 0.296875 C 4.15625 0.296875 4.578125 0.171875 4.734375 -0.015625 Z M 5.578125 -1.03125 "/>
</g>
<g id="glyph-0-3">
<path d="M 3.734375 -8.109375 L 2.53125 -7.734375 C 1.984375 -7.5625 1.5625 -7.484375 0.84375 -7.40625 C 0.796875 -7.40625 0.703125 -7.390625 0.578125 -7.375 L 0.578125 -6.75 L 1.359375 -6.703125 C 1.75 -6.65625 1.8125 -6.515625 1.8125 -5.5 L 1.8125 -1.71875 C 1.8125 -0.796875 1.71875 -0.65625 1.1875 -0.625 L 0.578125 -0.578125 L 0.578125 0.046875 L 2.8125 0 C 3.15625 0 3.984375 0.015625 5.125 0.046875 L 5.125 -0.578125 L 4.53125 -0.625 C 4 -0.65625 3.90625 -0.796875 3.90625 -1.71875 L 3.90625 -8 Z M 2.8125 -12.15625 C 2.0625 -12.15625 1.5 -11.609375 1.5 -10.875 C 1.5 -10.15625 2.0625 -9.578125 2.796875 -9.578125 C 3.5 -9.578125 4.078125 -10.15625 4.078125 -10.859375 C 4.078125 -11.578125 3.515625 -12.15625 2.8125 -12.15625 Z M 2.8125 -12.15625 "/>
</g>
<g id="glyph-0-4">
<path d="M 0.40625 -6.75 L 1.1875 -6.703125 C 1.578125 -6.65625 1.640625 -6.515625 1.640625 -5.5 L 1.640625 -1.71875 C 1.640625 -0.796875 1.546875 -0.65625 1.015625 -0.625 L 0.40625 -0.578125 L 0.40625 0.046875 L 2.640625 0 C 3.03125 0 3.765625 0.015625 4.828125 0.046875 L 4.828125 -0.578125 L 4.359375 -0.625 C 3.8125 -0.65625 3.734375 -0.796875 3.734375 -1.71875 L 3.734375 -5.453125 C 3.734375 -6.03125 4.4375 -6.625 5.125 -6.625 C 6.125 -6.625 6.609375 -5.96875 6.609375 -4.625 L 6.609375 -1.71875 C 6.609375 -0.796875 6.546875 -0.65625 5.984375 -0.625 L 5.453125 -0.578125 L 5.453125 0.046875 C 7.25 0 7.25 0 7.671875 0 C 8.09375 0 8.09375 0 9.9375 0.046875 L 9.9375 -0.578125 L 9.328125 -0.625 C 8.796875 -0.65625 8.71875 -0.796875 8.71875 -1.71875 L 8.71875 -5.453125 C 8.71875 -6.03125 9.421875 -6.625 10.109375 -6.625 C 11.109375 -6.625 11.59375 -5.96875 11.59375 -4.625 L 11.59375 0.046875 L 13.1875 0 C 14.046875 0.015625 14.171875 0.015625 14.875 0.046875 L 14.875 -0.578125 L 14.3125 -0.625 C 13.78125 -0.65625 13.6875 -0.796875 13.6875 -1.71875 L 13.6875 -4.921875 C 13.6875 -7.296875 13.0625 -8.109375 11.234375 -8.109375 C 10.65625 -8.109375 10.28125 -8 9.984375 -7.78125 L 8.609375 -6.71875 C 8.21875 -7.703125 7.53125 -8.109375 6.34375 -8.109375 C 5.78125 -8.109375 5.40625 -8 5.109375 -7.78125 L 3.734375 -6.71875 L 3.734375 -8 L 3.640625 -8.109375 C 1.84375 -7.53125 1.359375 -7.421875 0.40625 -7.375 Z M 0.40625 -6.75 "/>
</g>
<g id="glyph-0-5">
<path d="M 5.140625 -1.15625 L 5.0625 -0.09375 L 5.140625 0.046875 C 6.21875 0.015625 6.515625 0 6.71875 0 C 6.921875 0 7.203125 0.015625 8.234375 0.046875 L 8.234375 -0.578125 L 7.71875 -0.640625 C 7.328125 -0.703125 7.25 -0.875 7.234375 -1.6875 L 7.234375 -2.046875 C 7.21875 -2.59375 7.203125 -3.078125 7.203125 -3.5 C 7.203125 -3.953125 7.21875 -4.515625 7.234375 -5.171875 C 7.25 -5.390625 7.25 -5.546875 7.25 -5.671875 C 7.25 -7.203125 6.21875 -8.109375 4.484375 -8.109375 C 3.75 -8.109375 3.046875 -7.921875 2.40625 -7.53125 L 1.5 -6.96875 L 1.5 -5.78125 L 2.015625 -5.671875 L 2.390625 -6.53125 C 2.4375 -6.640625 2.921875 -6.765625 3.390625 -6.765625 C 4.546875 -6.765625 5.09375 -6.140625 5.140625 -4.734375 L 3.640625 -4.421875 C 1.46875 -3.984375 0.6875 -3.3125 0.6875 -1.84375 C 0.6875 -0.453125 1.390625 0.296875 2.703125 0.296875 C 3.078125 0.296875 3.375 0.21875 3.546875 0.09375 Z M 5.140625 -1.984375 C 4.828125 -1.53125 4.1875 -1.203125 3.671875 -1.203125 C 3.109375 -1.203125 2.796875 -1.625 2.796875 -2.296875 C 2.796875 -3.140625 3.15625 -3.484375 4.375 -3.8125 L 5.140625 -4.015625 Z M 5.140625 -1.984375 "/>
</g>
<g id="glyph-0-6">
<path d="M 3.734375 -12.390625 L 2.5 -12.015625 C 2 -11.859375 1.40625 -11.765625 0.40625 -11.65625 L 0.40625 -11.03125 L 1.328125 -10.984375 C 1.703125 -10.96875 1.78125 -10.796875 1.78125 -9.78125 L 1.78125 -1.71875 C 1.78125 -0.796875 1.6875 -0.65625 1.15625 -0.625 L 0.546875 -0.578125 L 0.546875 0.046875 L 2.765625 0 C 3.109375 0 3.9375 0.015625 5.09375 0.046875 L 5.09375 -0.578125 L 4.5 -0.625 C 3.953125 -0.65625 3.875 -0.796875 3.875 -1.71875 L 3.875 -12.296875 Z M 3.734375 -12.390625 "/>
</g>
<g id="glyph-0-7">
<path d="M 4.734375 -7.25 L 4.734375 -7.90625 L 2.46875 -7.859375 C 2.234375 -7.859375 1.96875 -7.859375 0.171875 -7.90625 L 0.171875 -7.25 L 0.78125 -7.21875 C 1.03125 -7.203125 1.234375 -6.921875 1.5 -6.265625 L 4.21875 0.6875 L 3.828125 1.65625 C 3.421875 2.640625 2.828125 3.21875 2.234375 3.21875 C 1.796875 3.21875 1.421875 3.03125 1.03125 2.578125 L 0.84375 2.65625 L 0.53125 4.28125 C 1 4.5 1.390625 4.578125 1.796875 4.578125 C 3 4.578125 3.9375 3.65625 4.828125 1.625 L 8.25 -6.359375 C 8.453125 -6.8125 8.71875 -7.109375 8.953125 -7.15625 L 9.40625 -7.25 L 9.40625 -7.90625 L 7.796875 -7.859375 C 7.75 -7.859375 7.21875 -7.875 6.203125 -7.90625 L 6.203125 -7.25 L 6.765625 -7.21875 C 7.046875 -7.203125 7.234375 -7.0625 7.234375 -6.875 C 7.234375 -6.765625 7.203125 -6.578125 7.15625 -6.484375 L 5.421875 -2.15625 L 3.984375 -5.90625 C 3.984375 -5.921875 3.921875 -6.046875 3.875 -6.171875 C 3.734375 -6.484375 3.6875 -6.640625 3.6875 -6.8125 C 3.6875 -7.046875 3.875 -7.203125 4.125 -7.21875 Z M 4.734375 -7.25 "/>
</g>
<g id="glyph-0-8">
<path d="M 4.109375 -9.328125 C 4.109375 -9.984375 4.171875 -10.296875 4.28125 -10.515625 C 4.421875 -10.78125 4.734375 -10.921875 5.125 -10.921875 C 5.5 -10.921875 5.765625 -10.8125 6.28125 -10.5 L 6.5625 -10.625 L 6.5625 -12.296875 C 6.265625 -12.359375 6.09375 -12.390625 5.84375 -12.390625 C 5.28125 -12.390625 4.890625 -12.21875 4.234375 -11.671875 L 2.96875 -10.609375 C 2.140625 -9.921875 2.015625 -9.609375 2.015625 -8.25 L 2.015625 -7.5 C 1.5625 -7.203125 1.21875 -7.015625 0.65625 -6.734375 L 0.65625 -6.3125 L 2.015625 -6.40625 L 2.015625 -1.71875 C 2.015625 -0.78125 1.921875 -0.65625 1.296875 -0.625 L 0.578125 -0.578125 L 0.578125 0.046875 C 2.6875 0 2.6875 0 3.015625 0 C 3.25 0 3.25 0 5.75 0.046875 L 5.75 -0.578125 L 4.96875 -0.625 C 4.515625 -0.640625 4.21875 -0.75 4.171875 -0.953125 C 4.125 -1.109375 4.109375 -1.3125 4.109375 -1.71875 L 4.109375 -6.40625 L 6.25 -6.40625 L 6.4375 -7.40625 L 6.375 -7.546875 C 5.25 -7.484375 4.828125 -7.46875 4.109375 -7.46875 Z M 4.109375 -9.328125 "/>
</g>
<g id="glyph-0-9">
<path d="M 4.9375 -8.109375 C 2.203125 -8.109375 0.6875 -6.59375 0.6875 -3.859375 C 0.6875 -1.203125 2.09375 0.296875 4.59375 0.296875 C 7.359375 0.296875 8.90625 -1.28125 8.90625 -4.0625 C 8.90625 -6.6875 7.484375 -8.109375 4.9375 -8.109375 Z M 4.734375 -7.28125 C 5.96875 -7.28125 6.5625 -6.0625 6.5625 -3.53125 C 6.5625 -1.421875 6.078125 -0.53125 4.90625 -0.53125 C 3.671875 -0.53125 3.03125 -1.796875 3.03125 -4.265625 C 3.03125 -6.359375 3.546875 -7.28125 4.734375 -7.28125 Z M 4.734375 -7.28125 "/>
</g>
<g id="glyph-0-10">
<path d="M 3.671875 -8.109375 L 2.46875 -7.734375 C 1.90625 -7.5625 1.59375 -7.5 0.515625 -7.375 L 0.515625 -6.75 L 1.296875 -6.703125 C 1.6875 -6.65625 1.734375 -6.515625 1.734375 -5.5 L 1.734375 -1.71875 C 1.734375 -0.796875 1.65625 -0.65625 1.125 -0.625 L 0.515625 -0.578125 L 0.515625 0.046875 L 2.734375 0 C 2.96875 0 3.015625 0 5.34375 0.046875 L 5.34375 -0.578125 L 4.671875 -0.625 C 3.921875 -0.65625 3.84375 -0.75 3.84375 -1.71875 L 3.84375 -5.125 C 3.84375 -5.671875 4.546875 -6.234375 5.21875 -6.234375 C 5.640625 -6.234375 5.953125 -6.03125 6.203125 -5.609375 L 6.609375 -5.78125 L 6.703125 -8 C 6.53125 -8.078125 6.296875 -8.109375 6.0625 -8.109375 C 5.578125 -8.109375 5.25 -7.90625 4.59375 -7.203125 L 3.84375 -6.375 L 3.84375 -8 Z M 3.671875 -8.109375 "/>
</g>
<g id="glyph-0-11">
<path d="M 11.921875 -1.5 L 11.703125 -1.703125 C 10.59375 -1.125 9.46875 -0.828125 8.34375 -0.828125 C 5.34375 -0.828125 3.34375 -2.96875 3.34375 -6.21875 C 3.34375 -9.171875 5.03125 -11 7.75 -11 C 9.046875 -11 9.890625 -10.671875 10.8125 -9.8125 L 10.90625 -8.328125 L 11.578125 -8.328125 C 11.765625 -9.984375 11.8125 -10.3125 11.96875 -10.96875 L 11.859375 -11.15625 C 10.296875 -11.78125 9.328125 -11.96875 7.828125 -11.96875 C 3.484375 -11.96875 0.75 -9.65625 0.75 -5.96875 C 0.75 -2.125 3.40625 0.296875 7.65625 0.296875 C 9.25 0.296875 10.265625 0.046875 11.53125 -0.65625 Z M 11.921875 -1.5 "/>
</g>
<g id="glyph-0-12">
<path d="M 0.40625 -6.75 L 1.1875 -6.703125 C 1.578125 -6.65625 1.640625 -6.515625 1.640625 -5.5 L 1.640625 -1.71875 C 1.640625 -0.796875 1.546875 -0.65625 1.015625 -0.625 L 0.40625 -0.578125 L 0.40625 0.046875 L 2.640625 0 C 2.984375 0 3.8125 0.015625 4.953125 0.046875 L 4.953125 -0.578125 L 4.359375 -0.625 C 3.828125 -0.65625 3.734375 -0.796875 3.734375 -1.71875 L 3.734375 -5.453125 C 3.734375 -6.0625 4.4375 -6.625 5.203125 -6.625 C 6.34375 -6.625 6.8125 -6.03125 6.8125 -4.65625 L 6.8125 0.046875 C 7.796875 0.015625 8.09375 0 8.375 0 C 8.609375 0 8.609375 0 10.109375 0.046875 L 10.109375 -0.578125 L 9.546875 -0.625 C 9 -0.65625 8.921875 -0.796875 8.921875 -1.71875 L 8.921875 -4.921875 C 8.921875 -6.25 8.765625 -6.90625 8.3125 -7.390625 C 7.875 -7.859375 7.15625 -8.109375 6.3125 -8.109375 C 5.796875 -8.109375 5.390625 -8 5.109375 -7.78125 L 3.734375 -6.71875 L 3.734375 -8 L 3.640625 -8.109375 C 1.84375 -7.53125 1.359375 -7.421875 0.40625 -7.375 Z M 0.40625 -6.75 "/>
</g>
<g id="glyph-0-13">
<path d="M 6.234375 -5.609375 L 6.375 -7.71875 C 5.703125 -8 5.171875 -8.109375 4.25 -8.109375 C 1.921875 -8.109375 0.671875 -7.1875 0.671875 -5.453125 C 0.671875 -4.328125 1.296875 -3.59375 2.5 -3.3125 L 3.984375 -2.9375 C 4.765625 -2.75 5.0625 -2.46875 5.0625 -1.859375 C 5.0625 -1.046875 4.4375 -0.53125 3.484375 -0.53125 C 2.671875 -0.53125 2.09375 -0.796875 1.546875 -1.421875 L 1.46875 -2.625 L 0.796875 -2.625 L 0.671875 -0.1875 C 1.65625 0.15625 2.421875 0.296875 3.34375 0.296875 C 5.515625 0.296875 6.96875 -0.890625 6.96875 -2.671875 C 6.96875 -3.90625 6.34375 -4.546875 4.78125 -4.890625 L 3.375 -5.203125 C 2.703125 -5.359375 2.421875 -5.625 2.421875 -6.171875 C 2.421875 -6.859375 3.015625 -7.28125 3.9375 -7.28125 C 4.625 -7.28125 5.390625 -6.953125 5.4375 -6.609375 L 5.609375 -5.609375 Z M 6.234375 -5.609375 "/>
</g>
<g id="glyph-0-14">
<path d="M 7.9375 -5.078125 C 7.9375 -6.921875 6.640625 -8.109375 4.6875 -8.109375 C 4.078125 -8.109375 3.640625 -7.984375 3.171875 -7.71875 L 2.359375 -7.234375 C 1.21875 -6.5625 0.71875 -5.53125 0.71875 -3.890625 C 0.71875 -1.15625 2.09375 0.296875 4.671875 0.296875 C 5.640625 0.296875 6.28125 0.125 7.390625 -0.453125 L 7.765625 -1.28125 L 7.5625 -1.53125 C 6.75 -1.078125 6.234375 -0.9375 5.546875 -0.9375 C 4.65625 -0.9375 3.8125 -1.40625 3.375 -2.15625 C 3.09375 -2.640625 3 -3.03125 2.96875 -3.84375 L 5.21875 -3.84375 C 6.203125 -3.84375 6.96875 -3.9375 7.9375 -4.1875 Z M 4.3125 -4.703125 L 4.234375 -4.703125 C 4.125 -4.703125 3.671875 -4.71875 3.40625 -4.734375 L 2.859375 -4.75 C 2.90625 -6.453125 3.328125 -7.140625 4.328125 -7.140625 C 5.296875 -7.140625 5.71875 -6.453125 5.75 -4.75 Z M 4.3125 -4.703125 "/>
</g>
<g id="glyph-0-15">
<path d="M 8.75 -12.296875 L 8.609375 -12.390625 L 7.375 -12.015625 C 6.875 -11.859375 6.28125 -11.765625 5.28125 -11.65625 L 5.28125 -11.03125 L 6.203125 -10.984375 C 6.578125 -10.96875 6.640625 -10.796875 6.640625 -9.78125 L 6.640625 -7.671875 L 6.296875 -7.8125 C 5.8125 -8 5.359375 -8.109375 4.921875 -8.109375 C 4.375 -8.109375 3.875 -7.953125 3.40625 -7.65625 L 2.171875 -6.859375 C 1.1875 -6.203125 0.71875 -5.21875 0.71875 -3.734375 C 0.71875 -1.28125 2 0.296875 4.015625 0.296875 C 4.40625 0.296875 4.6875 0.21875 4.859375 0.09375 L 6.640625 -1.375 L 6.5625 -0.09375 L 6.640625 0.046875 C 7.671875 0.015625 8 0 8.203125 0 C 8.328125 0 8.640625 0.015625 9.125 0.03125 C 9.25 0.03125 9.578125 0.03125 9.9375 0.046875 L 9.9375 -0.578125 L 9.359375 -0.625 C 8.828125 -0.65625 8.75 -0.796875 8.75 -1.71875 Z M 6.640625 -2.75 C 6.640625 -1.984375 5.84375 -1.34375 4.890625 -1.34375 C 3.671875 -1.34375 2.890625 -2.53125 2.890625 -4.390625 C 2.890625 -6.125 3.5 -7.015625 4.71875 -7.015625 C 5.453125 -7.015625 6.078125 -6.65625 6.640625 -5.921875 Z M 6.640625 -2.75 "/>
</g>
<g id="glyph-0-16">
<path d="M 5.359375 -5.609375 C 5.546875 -5.578125 5.5625 -5.578125 5.609375 -5.5625 C 6.03125 -5.515625 6.109375 -5.5 6.359375 -5.5 C 8.578125 -5.5 10.234375 -7.0625 10.234375 -9.140625 C 10.234375 -10.859375 9.140625 -11.71875 6.96875 -11.71875 L 6.765625 -11.71875 C 4.890625 -11.6875 3.84375 -11.671875 3.65625 -11.671875 C 3.28125 -11.671875 3.28125 -11.671875 0.671875 -11.71875 L 0.671875 -11.09375 L 1.3125 -11.03125 C 2.078125 -10.96875 2.140625 -10.859375 2.140625 -9.34375 L 2.140625 -2.328125 C 2.140625 -0.796875 2.125 -0.75 1.3125 -0.6875 L 0.671875 -0.640625 L 0.671875 0.046875 C 2.75 0 2.75 0 3.359375 0 C 3.890625 0 3.890625 0 6.203125 0.046875 L 6.203125 -0.640625 L 5.390625 -0.6875 C 4.59375 -0.734375 4.5625 -0.8125 4.5625 -2.328125 L 4.5625 -10.703125 C 4.828125 -10.8125 5.125 -10.859375 5.59375 -10.859375 C 7.03125 -10.859375 7.75 -10.09375 7.75 -8.5625 C 7.75 -7.1875 7.0625 -6.28125 5.96875 -6.28125 C 5.84375 -6.28125 5.8125 -6.28125 5.375 -6.375 C 5.359375 -6.375 5.296875 -6.375 5.234375 -6.390625 L 5.0625 -6.21875 Z M 5.359375 -5.609375 "/>
</g>
<g id="glyph-0-17">
<path d="M 3.640625 -12.296875 L 3.5 -12.390625 L 2.25 -12.015625 C 1.75 -11.859375 1.171875 -11.765625 0.171875 -11.65625 L 0.171875 -11.03125 L 1.078125 -10.984375 C 1.46875 -10.96875 1.53125 -10.796875 1.53125 -9.78125 L 1.53125 -2.796875 C 1.53125 -1.875 1.484375 -0.84375 1.375 0.0625 L 1.75 0.203125 L 2.421875 -0.34375 C 3.21875 0.09375 3.9375 0.296875 4.6875 0.296875 C 5.21875 0.296875 5.6875 0.15625 6.1875 -0.140625 C 6.875 -0.546875 7.65625 -1.078125 8.140625 -1.484375 C 9 -2.1875 9.578125 -3.515625 9.578125 -4.84375 C 9.578125 -6.75 8.28125 -8.109375 6.453125 -8.109375 C 5.78125 -8.109375 5.28125 -7.921875 4.6875 -7.4375 L 3.640625 -6.59375 Z M 3.640625 -5.703125 C 4.015625 -6.265625 4.578125 -6.5625 5.28125 -6.5625 C 6.609375 -6.5625 7.40625 -5.53125 7.40625 -3.8125 C 7.40625 -2.015625 6.625 -0.875 5.375 -0.875 C 4.65625 -0.875 4.09375 -1.171875 3.640625 -1.828125 Z M 3.640625 -5.703125 "/>
</g>
<g id="glyph-1-0">
<path d="M 3.578125 -2.796875 C 3.578125 -3.203125 3.625 -3.5625 3.703125 -3.890625 C 3.34375 -4.109375 3.03125 -4.203125 2.65625 -4.203125 C 2.234375 -4.203125 1.734375 -4.03125 1.1875 -3.6875 C 0.5625 -3.296875 0.234375 -2.671875 0.234375 -1.890625 C 0.234375 -0.671875 1.078125 0.171875 2.28125 0.171875 C 2.75 0.171875 3.421875 0.015625 3.515625 -0.125 L 3.703125 -0.40625 L 3.609375 -0.546875 C 3.28125 -0.375 3 -0.28125 2.671875 -0.28125 C 1.671875 -0.28125 1.015625 -1.0625 1.015625 -2.25 C 1.015625 -3.203125 1.46875 -3.734375 2.28125 -3.734375 C 2.671875 -3.734375 3.109375 -3.5625 3.265625 -3.34375 L 3.328125 -2.796875 Z M 3.578125 -2.796875 "/>
</g>
<g id="glyph-1-1">
<path d="M 2.5 -4.203125 C 1.1875 -4.203125 0.28125 -3.28125 0.28125 -1.953125 C 0.28125 -0.6875 1.078125 0.171875 2.25 0.171875 C 3.625 0.171875 4.609375 -0.78125 4.609375 -2.125 C 4.609375 -3.34375 3.734375 -4.203125 2.5 -4.203125 Z M 2.34375 -3.90625 C 3.171875 -3.90625 3.78125 -3.015625 3.78125 -1.796875 C 3.78125 -0.765625 3.3125 -0.109375 2.59375 -0.109375 C 1.71875 -0.109375 1.125 -0.984375 1.125 -2.25 C 1.125 -3.328125 1.546875 -3.90625 2.34375 -3.90625 Z M 2.34375 -3.90625 "/>
</g>
<g id="glyph-1-2">
<path d="M 3.671875 0.03125 C 4.21875 0 4.234375 0 4.390625 0 C 4.515625 0 4.515625 0 5.125 0.03125 L 5.125 -0.234375 L 4.765625 -0.265625 C 4.453125 -0.28125 4.4375 -0.34375 4.4375 -0.921875 L 4.4375 -2.640625 C 4.4375 -3.6875 3.9375 -4.203125 2.9375 -4.203125 C 2.59375 -4.203125 2.40625 -4.140625 2.21875 -3.984375 L 1.546875 -3.390625 L 1.546875 -4.171875 L 1.46875 -4.203125 C 1 -4.015625 0.53125 -3.890625 0.0625 -3.84375 L 0.0625 -3.59375 L 0.390625 -3.59375 C 0.75 -3.59375 0.796875 -3.53125 0.796875 -2.9375 L 0.796875 -0.921875 C 0.796875 -0.34375 0.765625 -0.28125 0.453125 -0.265625 L 0.046875 -0.234375 L 0.046875 0.03125 C 0.65625 0.015625 0.90625 0 1.171875 0 C 1.421875 0 1.671875 0.015625 2.28125 0.03125 L 2.28125 -0.234375 L 1.875 -0.265625 C 1.5625 -0.28125 1.546875 -0.34375 1.546875 -0.921875 L 1.546875 -2.8125 C 1.546875 -3.21875 2.140625 -3.65625 2.6875 -3.65625 C 3.28125 -3.65625 3.671875 -3.203125 3.671875 -2.515625 Z M 3.671875 0.03125 "/>
</g>
<g id="glyph-1-3">
<path d="M 0.875 -3.421875 L 0.875 -0.84375 C 0.875 -0.171875 1.171875 0.109375 1.859375 0.109375 C 2.078125 0.109375 2.28125 0.0625 2.34375 0 L 2.765625 -0.46875 L 2.65625 -0.625 C 2.4375 -0.5 2.296875 -0.453125 2.125 -0.453125 C 1.78125 -0.453125 1.625 -0.640625 1.625 -1.078125 L 1.625 -3.421875 L 2.78125 -3.421875 L 2.859375 -3.90625 L 1.625 -3.859375 L 1.625 -4.203125 C 1.625 -4.578125 1.65625 -4.890625 1.734375 -5.46875 L 1.625 -5.5625 C 1.40625 -5.4375 1.140625 -5.3125 0.859375 -5.234375 C 0.890625 -4.953125 0.890625 -4.796875 0.890625 -4.515625 L 0.890625 -3.890625 L 0.203125 -3.578125 L 0.203125 -3.390625 Z M 0.875 -3.421875 "/>
</g>
<g id="glyph-1-4">
<path d="M 4.515625 -4.171875 L 4.4375 -4.203125 C 3.96875 -4.015625 3.5 -3.890625 3.03125 -3.84375 L 3.03125 -3.59375 L 3.359375 -3.59375 C 3.71875 -3.59375 3.765625 -3.53125 3.765625 -2.9375 L 3.765625 -1.46875 C 3.765625 -1.28125 3.625 -1.015625 3.421875 -0.8125 C 3.171875 -0.5625 2.890625 -0.4375 2.53125 -0.4375 C 2.21875 -0.4375 1.96875 -0.53125 1.828125 -0.703125 C 1.703125 -0.859375 1.640625 -1.125 1.640625 -1.53125 L 1.640625 -4.171875 L 1.5625 -4.203125 C 1.109375 -4.015625 0.640625 -3.890625 0.15625 -3.84375 L 0.15625 -3.59375 L 0.5 -3.59375 C 0.859375 -3.59375 0.890625 -3.53125 0.890625 -2.9375 L 0.890625 -1.421875 C 0.890625 -0.796875 0.9375 -0.515625 1.109375 -0.296875 C 1.296875 -0.03125 1.640625 0.109375 2.15625 0.109375 C 2.5625 0.109375 2.921875 -0.015625 3.15625 -0.234375 L 3.765625 -0.796875 C 3.765625 -0.53125 3.75 -0.390625 3.71875 0.03125 C 4.328125 0 4.328125 0 4.46875 0 C 4.59375 0 4.59375 0 5.203125 0.03125 L 5.203125 -0.234375 L 4.84375 -0.265625 C 4.53125 -0.28125 4.515625 -0.34375 4.515625 -0.921875 Z M 4.515625 -4.171875 "/>
</g>
<g id="glyph-1-5">
<path d="M 0.203125 -3.59375 L 0.53125 -3.59375 C 0.890625 -3.59375 0.9375 -3.53125 0.9375 -2.9375 L 0.9375 -0.921875 C 0.9375 -0.34375 0.90625 -0.28125 0.59375 -0.265625 L 0.1875 -0.234375 L 0.1875 0.03125 C 0.828125 0.015625 1.0625 0 1.296875 0 C 1.46875 0 1.46875 0 2.578125 0.03125 L 2.578125 -0.234375 L 2.109375 -0.265625 C 1.703125 -0.296875 1.6875 -0.328125 1.6875 -0.921875 L 1.6875 -2.453125 C 1.6875 -3 2.046875 -3.4375 2.484375 -3.4375 C 2.75 -3.4375 2.9375 -3.3125 3.078125 -3.03125 L 3.28125 -3.03125 L 3.359375 -4.109375 C 3.25 -4.171875 3.09375 -4.203125 2.9375 -4.203125 C 2.65625 -4.203125 2.375 -4.0625 2.1875 -3.84375 L 1.6875 -3.25 L 1.6875 -4.171875 L 1.609375 -4.203125 C 1.140625 -4.015625 0.6875 -3.890625 0.203125 -3.84375 Z M 0.203125 -3.59375 "/>
</g>
<g id="glyph-1-6">
<path d="M 0.375 -1.28125 C 0.375 -0.65625 0.34375 -0.390625 0.265625 -0.03125 C 0.734375 0.109375 1.078125 0.171875 1.5 0.171875 C 2.671875 0.171875 3.5 -0.453125 3.5 -1.328125 C 3.5 -1.609375 3.421875 -1.8125 3.25 -1.984375 C 3.015625 -2.21875 2.71875 -2.328125 1.9375 -2.46875 C 1.203125 -2.625 0.953125 -2.796875 0.953125 -3.203125 C 0.953125 -3.65625 1.28125 -3.90625 1.828125 -3.90625 C 2.421875 -3.90625 2.875 -3.59375 2.875 -3.171875 L 2.875 -2.96875 L 3.125 -2.96875 C 3.140625 -3.484375 3.140625 -3.703125 3.171875 -3.984375 C 2.703125 -4.140625 2.375 -4.203125 2.015625 -4.203125 C 0.96875 -4.203125 0.328125 -3.71875 0.328125 -2.90625 C 0.328125 -2.46875 0.53125 -2.171875 0.9375 -1.984375 C 1.1875 -1.875 1.65625 -1.734375 2.265625 -1.59375 C 2.671875 -1.5 2.84375 -1.3125 2.84375 -0.984375 C 2.84375 -0.5 2.390625 -0.15625 1.765625 -0.15625 C 1.109375 -0.15625 0.640625 -0.46875 0.640625 -0.921875 L 0.640625 -1.28125 Z M 0.375 -1.28125 "/>
</g>
<g id="glyph-1-7">
<path d="M 3.0625 -6.4375 C 2.875 -6.5 2.765625 -6.53125 2.640625 -6.53125 C 2.359375 -6.53125 2.046875 -6.375 1.84375 -6.15625 L 1.328125 -5.5625 C 1.0625 -5.265625 0.953125 -4.859375 0.953125 -4.265625 L 0.953125 -3.890625 L 0.328125 -3.609375 L 0.328125 -3.421875 L 0.953125 -3.453125 L 0.953125 -0.921875 C 0.953125 -0.34375 0.921875 -0.28125 0.625 -0.265625 L 0.203125 -0.234375 L 0.203125 0.03125 C 1.109375 0 1.109375 0 1.328125 0 C 1.546875 0 1.546875 0 2.453125 0.03125 L 2.453125 -0.234375 L 2.03125 -0.265625 C 1.734375 -0.28125 1.703125 -0.34375 1.703125 -0.921875 L 1.703125 -3.453125 L 2.8125 -3.453125 L 2.875 -3.921875 L 1.703125 -3.890625 L 1.703125 -4.65625 C 1.703125 -5.6875 1.828125 -5.9375 2.328125 -5.9375 C 2.578125 -5.9375 2.734375 -5.875 2.953125 -5.6875 L 3.0625 -5.734375 Z M 3.0625 -6.4375 "/>
</g>
<g id="glyph-2-0">
<path d="M 2.5625 -3.4375 C 2.59375 -3.609375 2.65625 -3.8125 2.71875 -3.9375 L 2.6875 -4 L 2.625 -3.984375 C 2.40625 -3.921875 2.3125 -3.921875 1.859375 -3.921875 L 1.71875 -3.921875 L 1.90625 -4.921875 C 2.046875 -5.6875 2.3125 -6.03125 2.71875 -6.03125 C 2.984375 -6.03125 3.234375 -5.90625 3.359375 -5.6875 L 3.453125 -5.71875 C 3.5 -5.859375 3.59375 -6.140625 3.65625 -6.328125 L 3.703125 -6.453125 C 3.5625 -6.515625 3.28125 -6.578125 3.078125 -6.578125 C 2.984375 -6.578125 2.828125 -6.546875 2.765625 -6.515625 C 2.546875 -6.40625 1.8125 -5.859375 1.609375 -5.65625 C 1.40625 -5.453125 1.296875 -5.1875 1.203125 -4.671875 L 1.0625 -3.96875 C 0.703125 -3.78125 0.515625 -3.71875 0.296875 -3.625 L 0.25 -3.4375 L 0.984375 -3.4375 L 0.890625 -2.9375 C 0.625 -1.1875 0.296875 0.484375 0.09375 1.109375 C -0.0625 1.625 -0.328125 1.90625 -0.65625 1.90625 C -0.859375 1.90625 -0.953125 1.84375 -1.125 1.65625 L -1.25 1.6875 C -1.28125 1.890625 -1.40625 2.328125 -1.453125 2.40625 C -1.375 2.453125 -1.234375 2.46875 -1.140625 2.46875 C -0.765625 2.46875 -0.28125 2.203125 0.0625 1.78125 C 0.609375 1.125 0.8125 0.5 1.46875 -2.640625 C 1.484375 -2.75 1.5625 -3.09375 1.625 -3.4375 Z M 2.5625 -3.4375 "/>
</g>
<g id="glyph-3-0">
<path d="M 8.890625 -2.8125 C 8.890625 -2.921875 8.8125 -2.9375 8.71875 -2.9375 C 8.40625 -2.9375 7.984375 -2.671875 7.96875 -2.671875 C 7.609375 -2.4375 7.53125 -2.3125 7.3125 -2.015625 C 6.765625 -1.171875 5.96875 -0.5625 4.8125 -0.5625 C 3.1875 -0.5625 1.734375 -1.71875 1.734375 -4.40625 C 1.734375 -6.03125 2.390625 -8.15625 3.34375 -9.578125 C 4.125 -10.734375 5.09375 -11.65625 6.9375 -11.65625 C 7.625 -11.65625 8.046875 -11.40625 8.046875 -10.75 C 8.046875 -10.109375 7.390625 -8.84375 7.171875 -8.484375 C 7.0625 -8.28125 7.0625 -8.25 7.0625 -8.21875 C 7.0625 -8.09375 7.15625 -8.09375 7.265625 -8.09375 C 7.625 -8.09375 8.28125 -8.484375 8.5 -8.765625 C 8.53125 -8.84375 9.578125 -10.59375 9.578125 -11.515625 C 9.578125 -12.5 8.765625 -12.640625 8.125 -12.640625 C 5.53125 -12.640625 3.390625 -10.9375 2.5625 -9.9375 C 0.4375 -7.359375 0.21875 -4.578125 0.21875 -3.640625 C 0.21875 -1.015625 1.546875 0.4375 3.625 0.4375 C 6.515625 0.4375 8.890625 -2.375 8.890625 -2.8125 Z M 8.890625 -2.8125 "/>
</g>
<g id="glyph-4-0">
<path d="M 9.71875 -8.234375 C 9.734375 -8.265625 9.78125 -8.359375 9.78125 -8.40625 C 9.78125 -8.5 9.765625 -8.5 9.484375 -8.5 L 0.890625 -8.5 C 0.59375 -8.5 0.578125 -8.5 0.578125 -8.40625 C 0.578125 -8.359375 0.625 -8.265625 0.640625 -8.234375 L 4.84375 0.171875 C 4.9375 0.34375 4.96875 0.40625 5.1875 0.40625 C 5.390625 0.40625 5.421875 0.34375 5.515625 0.171875 Z M 2.125 -7.609375 L 8.96875 -7.609375 L 5.546875 -0.765625 Z M 2.125 -7.609375 "/>
</g>
<g id="glyph-5-0">
<path d="M 3.421875 -4.578125 C 3.46875 -4.8125 3.546875 -5.078125 3.625 -5.25 L 3.578125 -5.328125 L 3.484375 -5.3125 C 3.203125 -5.234375 3.078125 -5.21875 2.484375 -5.21875 L 2.296875 -5.21875 L 2.546875 -6.5625 C 2.734375 -7.59375 3.078125 -8.046875 3.625 -8.046875 C 3.984375 -8.046875 4.296875 -7.859375 4.484375 -7.578125 L 4.609375 -7.625 C 4.65625 -7.8125 4.78125 -8.1875 4.875 -8.421875 L 4.9375 -8.609375 C 4.75 -8.6875 4.375 -8.765625 4.09375 -8.765625 C 3.96875 -8.765625 3.78125 -8.71875 3.6875 -8.671875 C 3.390625 -8.546875 2.421875 -7.8125 2.140625 -7.53125 C 1.875 -7.265625 1.734375 -6.90625 1.609375 -6.234375 L 1.421875 -5.28125 C 0.9375 -5.046875 0.6875 -4.953125 0.390625 -4.84375 L 0.328125 -4.578125 L 1.296875 -4.578125 L 1.1875 -3.90625 C 0.84375 -1.578125 0.390625 0.640625 0.125 1.46875 C -0.078125 2.171875 -0.4375 2.546875 -0.875 2.546875 C -1.140625 2.546875 -1.28125 2.46875 -1.5 2.203125 L -1.65625 2.25 C -1.703125 2.515625 -1.875 3.09375 -1.9375 3.203125 C -1.828125 3.265625 -1.65625 3.296875 -1.515625 3.296875 C -1.03125 3.296875 -0.375 2.921875 0.078125 2.359375 C 0.8125 1.5 1.078125 0.671875 1.953125 -3.53125 C 1.984375 -3.671875 2.078125 -4.125 2.171875 -4.578125 Z M 3.421875 -4.578125 "/>
</g>
<g id="glyph-5-1">
<path d="M 0.25 -1.046875 C 0.25 -0.8125 0.234375 -0.65625 0.15625 -0.28125 C 0.125 -0.125 0.125 -0.09375 0.109375 -0.015625 C 0.28125 0.078125 0.484375 0.125 0.625 0.125 C 1.015625 0.125 1.484375 -0.21875 1.859375 -0.78125 L 2.765625 -2.171875 L 2.890625 -1.34375 C 3.046875 -0.328125 3.328125 0.125 3.75 0.125 C 4.015625 0.125 4.40625 -0.078125 4.78125 -0.421875 L 5.359375 -0.9375 L 5.265625 -1.171875 C 4.828125 -0.8125 4.53125 -0.640625 4.34375 -0.640625 C 4.15625 -0.640625 4 -0.75 3.890625 -0.984375 C 3.78125 -1.21875 3.640625 -1.65625 3.578125 -2.015625 L 3.375 -3.21875 L 3.796875 -3.796875 C 4.34375 -4.578125 4.671875 -4.859375 5.046875 -4.859375 C 5.234375 -4.859375 5.375 -4.75 5.4375 -4.578125 L 5.609375 -4.625 L 5.78125 -5.640625 C 5.640625 -5.71875 5.53125 -5.765625 5.421875 -5.765625 C 4.953125 -5.765625 4.46875 -5.328125 3.734375 -4.234375 L 3.28125 -3.578125 L 3.21875 -4.140625 C 3.078125 -5.328125 2.75 -5.765625 2.046875 -5.765625 C 1.734375 -5.765625 1.46875 -5.671875 1.359375 -5.515625 L 0.671875 -4.515625 L 0.875 -4.40625 C 1.234375 -4.8125 1.46875 -4.96875 1.703125 -4.96875 C 2.09375 -4.96875 2.359375 -4.484375 2.5625 -3.3125 L 2.6875 -2.5625 L 2.21875 -1.828125 C 1.703125 -1.03125 1.296875 -0.640625 0.953125 -0.640625 C 0.78125 -0.640625 0.640625 -0.6875 0.625 -0.75 L 0.484375 -1.09375 Z M 0.25 -1.046875 "/>
</g>
<g id="glyph-6-0">
<path d="M 4.125 2.984375 C 4.125 2.953125 4.125 2.921875 3.90625 2.71875 C 2.359375 1.140625 1.953125 -1.203125 1.953125 -3.109375 C 1.953125 -5.28125 2.421875 -7.453125 3.953125 -9 C 4.125 -9.15625 4.125 -9.171875 4.125 -9.21875 C 4.125 -9.296875 4.078125 -9.34375 4 -9.34375 C 3.875 -9.34375 2.75 -8.5 2.015625 -6.90625 C 1.375 -5.546875 1.234375 -4.15625 1.234375 -3.109375 C 1.234375 -2.140625 1.375 -0.640625 2.0625 0.765625 C 2.796875 2.296875 3.875 3.109375 4 3.109375 C 4.078125 3.109375 4.125 3.078125 4.125 2.984375 Z M 4.125 2.984375 "/>
</g>
<g id="glyph-6-1">
<path d="M 3.59375 -3.109375 C 3.59375 -4.078125 3.46875 -5.59375 2.78125 -7 C 2.03125 -8.53125 0.953125 -9.34375 0.828125 -9.34375 C 0.765625 -9.34375 0.703125 -9.296875 0.703125 -9.21875 C 0.703125 -9.171875 0.703125 -9.15625 0.953125 -8.921875 C 2.171875 -7.703125 2.875 -5.71875 2.875 -3.109375 C 2.875 -0.984375 2.421875 1.203125 0.875 2.78125 C 0.703125 2.921875 0.703125 2.953125 0.703125 2.984375 C 0.703125 3.0625 0.765625 3.109375 0.828125 3.109375 C 0.953125 3.109375 2.078125 2.265625 2.8125 0.6875 C 3.453125 -0.6875 3.59375 -2.0625 3.59375 -3.109375 Z M 3.59375 -3.109375 "/>
</g>
<g id="glyph-7-0">
<path d="M 2.5625 -3.984375 C 2.578125 -4.125 2.578125 -4.34375 2.34375 -4.34375 C 2.1875 -4.34375 2.0625 -4.21875 2.09375 -4.109375 L 2.09375 -3.984375 L 2.21875 -2.53125 L 1.03125 -3.40625 C 0.9375 -3.453125 0.921875 -3.46875 0.859375 -3.46875 C 0.734375 -3.46875 0.609375 -3.328125 0.609375 -3.203125 C 0.609375 -3.0625 0.703125 -3.015625 0.796875 -2.96875 L 2.125 -2.34375 L 0.828125 -1.703125 C 0.6875 -1.640625 0.609375 -1.59375 0.609375 -1.453125 C 0.609375 -1.3125 0.734375 -1.203125 0.859375 -1.203125 C 0.921875 -1.203125 0.9375 -1.203125 1.171875 -1.375 L 2.21875 -2.125 L 2.078125 -0.5625 C 2.078125 -0.359375 2.25 -0.3125 2.328125 -0.3125 C 2.4375 -0.3125 2.578125 -0.390625 2.578125 -0.5625 L 2.4375 -2.125 L 3.640625 -1.265625 C 3.71875 -1.21875 3.734375 -1.203125 3.796875 -1.203125 C 3.9375 -1.203125 4.0625 -1.328125 4.0625 -1.453125 C 4.0625 -1.59375 3.96875 -1.640625 3.859375 -1.703125 C 3.296875 -1.984375 3.28125 -1.984375 2.546875 -2.328125 L 3.828125 -2.953125 C 3.984375 -3.03125 4.0625 -3.0625 4.0625 -3.203125 C 4.0625 -3.34375 3.9375 -3.46875 3.796875 -3.46875 C 3.734375 -3.46875 3.71875 -3.46875 3.484375 -3.28125 L 2.4375 -2.53125 Z M 2.5625 -3.984375 "/>
</g>
<g id="glyph-8-0">
<path d="M 0.203125 -0.875 C 0.203125 -0.671875 0.1875 -0.546875 0.125 -0.234375 C 0.109375 -0.109375 0.09375 -0.078125 0.09375 -0.015625 C 0.234375 0.0625 0.40625 0.109375 0.515625 0.109375 C 0.84375 0.109375 1.234375 -0.171875 1.546875 -0.640625 L 2.296875 -1.8125 L 2.40625 -1.125 C 2.546875 -0.28125 2.765625 0.109375 3.125 0.109375 C 3.34375 0.109375 3.671875 -0.0625 3.984375 -0.34375 L 4.46875 -0.78125 L 4.390625 -0.984375 C 4.03125 -0.671875 3.78125 -0.53125 3.625 -0.53125 C 3.46875 -0.53125 3.34375 -0.625 3.234375 -0.828125 C 3.15625 -1.015625 3.046875 -1.390625 2.984375 -1.671875 L 2.8125 -2.6875 L 3.15625 -3.171875 C 3.625 -3.8125 3.890625 -4.046875 4.203125 -4.046875 C 4.359375 -4.046875 4.484375 -3.96875 4.53125 -3.8125 L 4.671875 -3.859375 L 4.828125 -4.703125 C 4.703125 -4.78125 4.609375 -4.8125 4.53125 -4.8125 C 4.125 -4.8125 3.734375 -4.453125 3.109375 -3.53125 L 2.734375 -2.984375 L 2.6875 -3.453125 C 2.5625 -4.453125 2.296875 -4.8125 1.703125 -4.8125 C 1.453125 -4.8125 1.21875 -4.71875 1.140625 -4.59375 L 0.5625 -3.765625 L 0.734375 -3.671875 C 1.03125 -4 1.21875 -4.140625 1.421875 -4.140625 C 1.75 -4.140625 1.96875 -3.734375 2.140625 -2.765625 L 2.25 -2.140625 L 1.84375 -1.53125 C 1.421875 -0.859375 1.078125 -0.53125 0.796875 -0.53125 C 0.640625 -0.53125 0.53125 -0.578125 0.515625 -0.625 L 0.40625 -0.90625 Z M 0.203125 -0.875 "/>
</g>
<g id="glyph-8-1">
<path d="M 2.84375 -3.8125 C 2.890625 -4 2.953125 -4.234375 3.015625 -4.375 L 2.984375 -4.453125 L 2.90625 -4.421875 C 2.671875 -4.359375 2.5625 -4.359375 2.078125 -4.359375 L 1.90625 -4.359375 L 2.125 -5.46875 C 2.28125 -6.328125 2.5625 -6.703125 3.015625 -6.703125 C 3.3125 -6.703125 3.59375 -6.5625 3.734375 -6.3125 L 3.84375 -6.359375 C 3.890625 -6.515625 3.984375 -6.828125 4.0625 -7.03125 L 4.109375 -7.171875 C 3.953125 -7.25 3.65625 -7.3125 3.421875 -7.3125 C 3.3125 -7.3125 3.15625 -7.28125 3.078125 -7.234375 C 2.828125 -7.125 2.015625 -6.515625 1.78125 -6.28125 C 1.5625 -6.0625 1.453125 -5.765625 1.328125 -5.1875 L 1.1875 -4.40625 C 0.78125 -4.203125 0.578125 -4.125 0.328125 -4.03125 L 0.28125 -3.8125 L 1.09375 -3.8125 L 1 -3.265625 C 0.703125 -1.3125 0.328125 0.53125 0.109375 1.21875 C -0.0625 1.8125 -0.375 2.125 -0.734375 2.125 C -0.953125 2.125 -1.0625 2.046875 -1.25 1.828125 L -1.390625 1.875 C -1.421875 2.109375 -1.5625 2.578125 -1.609375 2.671875 C -1.53125 2.71875 -1.375 2.75 -1.265625 2.75 C -0.859375 2.75 -0.3125 2.4375 0.0625 1.96875 C 0.671875 1.25 0.890625 0.5625 1.625 -2.9375 C 1.65625 -3.0625 1.734375 -3.4375 1.8125 -3.8125 Z M 2.84375 -3.8125 "/>
</g>
<g id="glyph-9-0">
<path d="M 0.5 -4.203125 L 0.578125 -4.203125 L 1.5625 -4.640625 C 1.5625 -4.65625 1.578125 -4.65625 1.578125 -4.65625 C 1.625 -4.65625 1.640625 -4.578125 1.640625 -4.40625 L 1.640625 -0.734375 C 1.640625 -0.328125 1.5625 -0.25 1.15625 -0.234375 L 0.734375 -0.203125 L 0.734375 0.015625 C 1.890625 0 1.890625 0 1.984375 0 C 2.078125 0 2.25 0 2.5 0 C 2.59375 0.015625 2.859375 0.015625 3.171875 0.015625 L 3.171875 -0.203125 L 2.78125 -0.234375 C 2.359375 -0.25 2.28125 -0.328125 2.28125 -0.734375 L 2.28125 -5.21875 L 2.171875 -5.265625 C 1.6875 -5 1.140625 -4.78125 0.453125 -4.53125 Z M 0.5 -4.203125 "/>
</g>
<g id="glyph-9-1">
<path d="M 0.125 -0.171875 L 0.125 0.015625 C 1.53125 0 1.53125 0 1.8125 0 C 2.078125 0 2.078125 0 3.546875 0.015625 C 3.53125 -0.140625 3.53125 -0.21875 3.53125 -0.3125 C 3.53125 -0.421875 3.53125 -0.5 3.546875 -0.65625 C 2.671875 -0.625 2.328125 -0.609375 0.921875 -0.578125 L 2.296875 -2.046875 C 3.03125 -2.828125 3.265625 -3.25 3.265625 -3.8125 C 3.265625 -4.6875 2.671875 -5.21875 1.71875 -5.21875 C 1.171875 -5.21875 0.796875 -5.0625 0.421875 -4.6875 L 0.296875 -3.65625 L 0.515625 -3.65625 L 0.609375 -4.015625 C 0.734375 -4.453125 1.015625 -4.640625 1.515625 -4.640625 C 2.171875 -4.640625 2.578125 -4.234375 2.578125 -3.578125 C 2.578125 -3.015625 2.265625 -2.453125 1.40625 -1.546875 Z M 0.125 -0.171875 "/>
</g>
<g id="glyph-9-2">
<path d="M 0.328125 -3.78125 L 0.5625 -3.78125 L 0.703125 -4.203125 C 0.78125 -4.453125 1.265625 -4.71875 1.65625 -4.71875 C 2.140625 -4.71875 2.546875 -4.3125 2.546875 -3.828125 C 2.546875 -3.265625 2.09375 -2.78125 1.5625 -2.78125 C 1.5 -2.78125 1.421875 -2.796875 1.3125 -2.796875 L 1.203125 -2.8125 L 1.109375 -2.40625 L 1.171875 -2.359375 C 1.453125 -2.5 1.59375 -2.53125 1.796875 -2.53125 C 2.4375 -2.53125 2.796875 -2.125 2.796875 -1.4375 C 2.796875 -0.671875 2.328125 -0.15625 1.625 -0.15625 C 1.28125 -0.15625 0.96875 -0.265625 0.75 -0.484375 C 0.5625 -0.65625 0.46875 -0.828125 0.3125 -1.234375 L 0.109375 -1.15625 C 0.265625 -0.703125 0.328125 -0.421875 0.375 -0.046875 C 0.78125 0.09375 1.109375 0.15625 1.390625 0.15625 C 2 0.15625 2.703125 -0.1875 3.109375 -0.703125 C 3.375 -1.015625 3.5 -1.34375 3.5 -1.703125 C 3.5 -2.0625 3.34375 -2.375 3.078125 -2.5625 C 2.890625 -2.703125 2.71875 -2.765625 2.328125 -2.828125 C 2.9375 -3.296875 3.171875 -3.65625 3.171875 -4.09375 C 3.171875 -4.78125 2.609375 -5.21875 1.765625 -5.21875 C 1.25 -5.21875 0.90625 -5.078125 0.546875 -4.71875 Z M 0.328125 -3.78125 "/>
</g>
<g id="glyph-10-0">
<path d="M 6.84375 -2.390625 C 7.015625 -2.390625 7.203125 -2.390625 7.203125 -2.59375 C 7.203125 -2.796875 7.015625 -2.796875 6.84375 -2.796875 L 1.21875 -2.796875 C 1.046875 -2.796875 0.859375 -2.796875 0.859375 -2.59375 C 0.859375 -2.390625 1.046875 -2.390625 1.21875 -2.390625 Z M 6.84375 -2.390625 "/>
</g>
<g id="glyph-10-1">
<path d="M 7 -3.359375 C 7.140625 -3.421875 7.203125 -3.5 7.203125 -3.59375 C 7.203125 -3.6875 7.15625 -3.75 7 -3.828125 L 1.28125 -6.53125 C 1.125 -6.59375 1.09375 -6.59375 1.0625 -6.59375 C 0.9375 -6.59375 0.859375 -6.5 0.859375 -6.390625 C 0.859375 -6.265625 0.9375 -6.21875 1.0625 -6.15625 L 6.5 -3.59375 L 1.078125 -1.03125 C 0.875 -0.9375 0.859375 -0.859375 0.859375 -0.796875 C 0.859375 -0.6875 0.953125 -0.59375 1.0625 -0.59375 C 1.09375 -0.59375 1.125 -0.59375 1.25 -0.65625 Z M 6.84375 1.421875 C 7.015625 1.421875 7.203125 1.421875 7.203125 1.21875 C 7.203125 1 6.984375 1 6.828125 1 L 1.234375 1 C 1.078125 1 0.859375 1 0.859375 1.21875 C 0.859375 1.421875 1.046875 1.421875 1.21875 1.421875 Z M 6.84375 1.421875 "/>
</g>
<g id="glyph-10-2">
<path d="M 2.859375 -4.4375 C 2.859375 -4.578125 2.859375 -4.828125 2.59375 -4.828125 C 2.421875 -4.828125 2.296875 -4.6875 2.328125 -4.546875 L 2.328125 -4.421875 L 2.46875 -2.8125 L 1.140625 -3.78125 C 1.046875 -3.828125 1.03125 -3.84375 0.953125 -3.84375 C 0.8125 -3.84375 0.671875 -3.703125 0.671875 -3.5625 C 0.671875 -3.390625 0.78125 -3.34375 0.875 -3.296875 L 2.359375 -2.59375 L 0.921875 -1.90625 C 0.75 -1.8125 0.671875 -1.78125 0.671875 -1.625 C 0.671875 -1.46875 0.8125 -1.328125 0.953125 -1.328125 C 1.03125 -1.328125 1.046875 -1.328125 1.3125 -1.53125 L 2.46875 -2.359375 L 2.3125 -0.625 C 2.3125 -0.40625 2.5 -0.359375 2.578125 -0.359375 C 2.703125 -0.359375 2.859375 -0.421875 2.859375 -0.625 L 2.703125 -2.359375 L 4.03125 -1.40625 C 4.125 -1.34375 4.15625 -1.328125 4.21875 -1.328125 C 4.375 -1.328125 4.5 -1.46875 4.5 -1.625 C 4.5 -1.78125 4.40625 -1.828125 4.28125 -1.890625 C 3.65625 -2.203125 3.640625 -2.203125 2.828125 -2.578125 L 4.25 -3.28125 C 4.421875 -3.359375 4.5 -3.40625 4.5 -3.5625 C 4.5 -3.71875 4.375 -3.84375 4.21875 -3.84375 C 4.15625 -3.84375 4.125 -3.84375 3.875 -3.65625 L 2.703125 -2.8125 Z M 2.859375 -4.4375 "/>
</g>
<g id="glyph-10-3">
<path d="M 3.40625 -7.390625 C 3.453125 -7.5 3.453125 -7.515625 3.453125 -7.578125 C 3.453125 -7.6875 3.359375 -7.78125 3.25 -7.78125 C 3.15625 -7.78125 3.078125 -7.734375 3.015625 -7.546875 L 1.1875 -2.78125 C 1.171875 -2.71875 1.140625 -2.65625 1.140625 -2.59375 C 1.140625 -2.5625 1.140625 -2.546875 1.1875 -2.421875 L 3.015625 2.34375 C 3.046875 2.453125 3.109375 2.59375 3.25 2.59375 C 3.359375 2.59375 3.453125 2.5 3.453125 2.390625 C 3.453125 2.359375 3.453125 2.328125 3.40625 2.21875 L 1.5625 -2.59375 Z M 3.40625 -7.390625 "/>
</g>
<g id="glyph-10-4">
<path d="M 8.09375 -6.859375 C 8.109375 -6.890625 8.140625 -6.96875 8.140625 -7 C 8.140625 -7.078125 8.140625 -7.09375 7.890625 -7.09375 L 0.734375 -7.09375 C 0.5 -7.09375 0.484375 -7.078125 0.484375 -7 C 0.484375 -6.96875 0.515625 -6.890625 0.546875 -6.859375 L 4.03125 0.140625 C 4.109375 0.28125 4.140625 0.34375 4.3125 0.34375 C 4.5 0.34375 4.53125 0.28125 4.59375 0.140625 Z M 1.78125 -6.34375 L 7.46875 -6.34375 L 4.625 -0.640625 Z M 1.78125 -6.34375 "/>
</g>
<g id="glyph-10-5">
<path d="M 2.828125 -2.421875 C 2.890625 -2.546875 2.890625 -2.5625 2.890625 -2.59375 C 2.890625 -2.625 2.890625 -2.640625 2.828125 -2.765625 L 1.015625 -7.546875 C 0.953125 -7.71875 0.890625 -7.78125 0.78125 -7.78125 C 0.65625 -7.78125 0.578125 -7.6875 0.578125 -7.578125 C 0.578125 -7.546875 0.578125 -7.515625 0.625 -7.40625 L 2.453125 -2.59375 L 0.625 2.203125 C 0.578125 2.3125 0.578125 2.328125 0.578125 2.390625 C 0.578125 2.5 0.65625 2.59375 0.78125 2.59375 C 0.90625 2.59375 0.953125 2.484375 1 2.390625 Z M 2.828125 -2.421875 "/>
</g>
<g id="glyph-10-6">
<path d="M 5.71875 -6.8125 C 5.765625 -6.921875 5.765625 -6.9375 5.765625 -7 C 5.765625 -7.09375 5.6875 -7.203125 5.5625 -7.203125 C 5.421875 -7.203125 5.359375 -7.078125 5.328125 -6.96875 L 4.46875 -4.671875 L 1.3125 -4.671875 L 0.453125 -6.96875 C 0.390625 -7.109375 0.34375 -7.203125 0.203125 -7.203125 C 0.109375 -7.203125 0 -7.09375 0 -7 C 0 -6.96875 0 -6.953125 0.0625 -6.8125 L 2.640625 -0.015625 C 2.703125 0.140625 2.75 0.234375 2.890625 0.234375 C 3.03125 0.234375 3.078125 0.109375 3.109375 0.015625 Z M 1.46875 -4.265625 L 4.296875 -4.265625 L 2.890625 -0.578125 Z M 1.46875 -4.265625 "/>
</g>
<g id="glyph-10-7">
<path d="M 5.6875 -2.390625 C 5.859375 -2.390625 6.046875 -2.390625 6.046875 -2.59375 C 6.046875 -2.796875 5.859375 -2.796875 5.6875 -2.796875 L 1.28125 -2.796875 C 1.40625 -4.1875 2.609375 -5.1875 4.0625 -5.1875 L 5.6875 -5.1875 C 5.859375 -5.1875 6.046875 -5.1875 6.046875 -5.390625 C 6.046875 -5.609375 5.859375 -5.609375 5.6875 -5.609375 L 4.046875 -5.609375 C 2.265625 -5.609375 0.859375 -4.25 0.859375 -2.59375 C 0.859375 -0.9375 2.265625 0.421875 4.046875 0.421875 L 5.6875 0.421875 C 5.859375 0.421875 6.046875 0.421875 6.046875 0.203125 C 6.046875 0 5.859375 0 5.6875 0 L 4.0625 0 C 2.609375 0 1.40625 -1 1.28125 -2.390625 Z M 5.6875 -2.390625 "/>
</g>
<g id="glyph-10-8">
<path d="M 5.140625 -1.625 C 5.140625 -1.6875 5.09375 -1.703125 5.046875 -1.703125 C 4.859375 -1.703125 4.609375 -1.546875 4.609375 -1.546875 C 4.40625 -1.40625 4.359375 -1.34375 4.234375 -1.15625 C 3.90625 -0.671875 3.453125 -0.328125 2.78125 -0.328125 C 1.84375 -0.328125 1 -1 1 -2.546875 C 1 -3.484375 1.375 -4.71875 1.9375 -5.546875 C 2.390625 -6.203125 2.953125 -6.75 4.015625 -6.75 C 4.40625 -6.75 4.65625 -6.59375 4.65625 -6.21875 C 4.65625 -5.84375 4.28125 -5.109375 4.15625 -4.90625 C 4.09375 -4.796875 4.09375 -4.765625 4.09375 -4.75 C 4.09375 -4.671875 4.140625 -4.671875 4.203125 -4.671875 C 4.40625 -4.671875 4.796875 -4.90625 4.921875 -5.078125 C 4.9375 -5.109375 5.546875 -6.125 5.546875 -6.65625 C 5.546875 -7.234375 5.078125 -7.3125 4.703125 -7.3125 C 3.203125 -7.3125 1.953125 -6.328125 1.484375 -5.75 C 0.25 -4.25 0.125 -2.640625 0.125 -2.109375 C 0.125 -0.59375 0.890625 0.25 2.09375 0.25 C 3.765625 0.25 5.140625 -1.375 5.140625 -1.625 Z M 5.140625 -1.625 "/>
</g>
<g id="glyph-11-0">
<path d="M 2.171875 -3.375 C 2.171875 -3.484375 2.171875 -3.671875 1.96875 -3.671875 C 1.84375 -3.671875 1.75 -3.5625 1.765625 -3.46875 L 1.765625 -3.359375 L 1.875 -2.140625 L 0.875 -2.875 C 0.796875 -2.90625 0.78125 -2.921875 0.71875 -2.921875 C 0.609375 -2.921875 0.515625 -2.8125 0.515625 -2.703125 C 0.515625 -2.578125 0.59375 -2.546875 0.671875 -2.515625 L 1.796875 -1.96875 L 0.703125 -1.4375 C 0.578125 -1.375 0.515625 -1.34375 0.515625 -1.234375 C 0.515625 -1.109375 0.609375 -1.015625 0.71875 -1.015625 C 0.78125 -1.015625 0.796875 -1.015625 1 -1.15625 L 1.875 -1.796875 L 1.765625 -0.46875 C 1.765625 -0.3125 1.90625 -0.265625 1.96875 -0.265625 C 2.0625 -0.265625 2.171875 -0.328125 2.171875 -0.46875 L 2.0625 -1.796875 L 3.0625 -1.0625 C 3.140625 -1.03125 3.15625 -1.015625 3.21875 -1.015625 C 3.328125 -1.015625 3.421875 -1.125 3.421875 -1.234375 C 3.421875 -1.34375 3.359375 -1.390625 3.265625 -1.4375 C 2.78125 -1.671875 2.765625 -1.671875 2.140625 -1.96875 L 3.234375 -2.5 C 3.359375 -2.5625 3.421875 -2.59375 3.421875 -2.703125 C 3.421875 -2.828125 3.328125 -2.921875 3.21875 -2.921875 C 3.15625 -2.921875 3.140625 -2.921875 2.9375 -2.78125 L 2.0625 -2.140625 Z M 2.171875 -3.375 "/>
</g>
<g id="glyph-12-0">
<path d="M 0.953125 0.203125 C 2.0625 -0.15625 2.546875 -0.390625 3.078125 -0.84375 C 4.046875 -1.671875 4.5625 -2.828125 4.5625 -4.15625 C 4.5625 -5.84375 3.75 -6.875 2.4375 -6.875 C 1.15625 -6.875 0.203125 -5.875 0.203125 -4.53125 C 0.203125 -3.390625 0.953125 -2.546875 1.984375 -2.546875 C 2.328125 -2.546875 2.71875 -2.65625 2.890625 -2.8125 L 3.59375 -3.390625 C 3.515625 -1.71875 2.421875 -0.484375 0.625 -0.046875 L 0.625 0.03125 Z M 2.390625 -6.546875 C 2.84375 -6.546875 3.171875 -6.34375 3.390625 -5.953125 C 3.5625 -5.625 3.6875 -5.140625 3.6875 -4.6875 C 3.6875 -3.78125 3.15625 -3.15625 2.390625 -3.15625 C 1.59375 -3.15625 1.0625 -3.875 1.0625 -4.90625 C 1.0625 -5.90625 1.578125 -6.546875 2.390625 -6.546875 Z M 2.390625 -6.546875 "/>
</g>
<g id="glyph-12-1">
<path d="M 2.625 -6.875 C 1.078125 -6.875 0.296875 -5.640625 0.296875 -3.234375 C 0.296875 -2.0625 0.5 -1.0625 0.84375 -0.5625 C 1.203125 -0.078125 1.75 0.203125 2.375 0.203125 C 3.875 0.203125 4.640625 -1.09375 4.640625 -3.65625 C 4.640625 -5.828125 3.984375 -6.875 2.625 -6.875 Z M 2.4375 -6.515625 C 3.40625 -6.515625 3.796875 -5.546875 3.796875 -3.15625 C 3.796875 -1.03125 3.421875 -0.15625 2.5 -0.15625 C 1.53125 -0.15625 1.125 -1.15625 1.125 -3.59375 C 1.125 -5.6875 1.5 -6.515625 2.4375 -6.515625 Z M 2.4375 -6.515625 "/>
</g>
<g id="glyph-12-2">
<path d="M 2.03125 -1.21875 C 1.765625 -1.140625 1.578125 -1.078125 1.0625 -0.921875 C 0.984375 -0.171875 0.734375 0.484375 0.15625 1.4375 L 0.296875 1.546875 L 0.703125 1.359375 C 1.515625 0.3125 1.890625 -0.3125 2.171875 -1.09375 Z M 2.03125 -1.21875 "/>
</g>
<g id="glyph-13-0">
<path d="M 0.296875 -1.265625 C 0.296875 -0.96875 0.265625 -0.78125 0.1875 -0.328125 C 0.15625 -0.15625 0.140625 -0.109375 0.125 -0.015625 C 0.34375 0.09375 0.578125 0.15625 0.75 0.15625 C 1.21875 0.15625 1.78125 -0.265625 2.21875 -0.9375 L 3.3125 -2.609375 L 3.46875 -1.625 C 3.65625 -0.40625 3.984375 0.15625 4.5 0.15625 C 4.8125 0.15625 5.28125 -0.09375 5.734375 -0.5 L 6.4375 -1.140625 L 6.3125 -1.40625 C 5.796875 -0.96875 5.4375 -0.765625 5.203125 -0.765625 C 4.984375 -0.765625 4.8125 -0.90625 4.65625 -1.1875 C 4.53125 -1.46875 4.375 -2 4.296875 -2.40625 L 4.046875 -3.859375 L 4.546875 -4.5625 C 5.21875 -5.5 5.609375 -5.828125 6.046875 -5.828125 C 6.28125 -5.828125 6.453125 -5.703125 6.53125 -5.5 L 6.734375 -5.546875 L 6.9375 -6.765625 C 6.765625 -6.875 6.640625 -6.90625 6.515625 -6.90625 C 5.9375 -6.90625 5.359375 -6.390625 4.46875 -5.078125 L 3.9375 -4.28125 L 3.859375 -4.984375 C 3.6875 -6.390625 3.296875 -6.90625 2.453125 -6.90625 C 2.078125 -6.90625 1.765625 -6.796875 1.640625 -6.609375 L 0.796875 -5.421875 L 1.046875 -5.28125 C 1.484375 -5.765625 1.765625 -5.96875 2.03125 -5.96875 C 2.515625 -5.96875 2.828125 -5.375 3.0625 -3.96875 L 3.234375 -3.078125 L 2.65625 -2.1875 C 2.03125 -1.234375 1.546875 -0.78125 1.140625 -0.78125 C 0.9375 -0.78125 0.78125 -0.828125 0.75 -0.90625 L 0.59375 -1.3125 Z M 0.296875 -1.265625 "/>
</g>
<g id="glyph-14-0">
<path d="M 3.4375 2.484375 C 3.4375 2.453125 3.4375 2.4375 3.25 2.265625 C 1.953125 0.953125 1.625 -1 1.625 -2.59375 C 1.625 -4.40625 2.015625 -6.203125 3.296875 -7.5 C 3.4375 -7.625 3.4375 -7.640625 3.4375 -7.671875 C 3.4375 -7.75 3.390625 -7.78125 3.328125 -7.78125 C 3.234375 -7.78125 2.296875 -7.078125 1.6875 -5.765625 C 1.15625 -4.609375 1.03125 -3.46875 1.03125 -2.59375 C 1.03125 -1.78125 1.140625 -0.53125 1.71875 0.640625 C 2.328125 1.921875 3.234375 2.59375 3.328125 2.59375 C 3.390625 2.59375 3.4375 2.5625 3.4375 2.484375 Z M 3.4375 2.484375 "/>
</g>
<g id="glyph-14-1">
<path d="M 3 -2.59375 C 3 -3.40625 2.890625 -4.65625 2.3125 -5.828125 C 1.6875 -7.109375 0.796875 -7.78125 0.6875 -7.78125 C 0.640625 -7.78125 0.59375 -7.734375 0.59375 -7.671875 C 0.59375 -7.640625 0.59375 -7.625 0.78125 -7.4375 C 1.8125 -6.40625 2.390625 -4.765625 2.390625 -2.59375 C 2.390625 -0.8125 2.015625 1 0.71875 2.3125 C 0.59375 2.4375 0.59375 2.453125 0.59375 2.484375 C 0.59375 2.546875 0.640625 2.59375 0.6875 2.59375 C 0.796875 2.59375 1.734375 1.890625 2.34375 0.578125 C 2.875 -0.578125 3 -1.71875 3 -2.59375 Z M 3 -2.59375 "/>
</g>
<g id="glyph-15-0">
<path d="M 6.484375 -5.5 C 6.5 -5.515625 6.53125 -5.578125 6.53125 -5.609375 C 6.53125 -5.671875 6.515625 -5.671875 6.328125 -5.671875 L 0.59375 -5.671875 C 0.40625 -5.671875 0.390625 -5.671875 0.390625 -5.609375 C 0.390625 -5.578125 0.421875 -5.515625 0.4375 -5.5 L 3.234375 0.109375 C 3.296875 0.21875 3.3125 0.28125 3.453125 0.28125 C 3.59375 0.28125 3.625 0.21875 3.6875 0.109375 Z M 1.421875 -5.078125 L 5.984375 -5.078125 L 3.703125 -0.5 Z M 1.421875 -5.078125 "/>
</g>
<g id="glyph-15-1">
<path d="M 5.234375 -5.625 C 5.296875 -5.75 5.296875 -5.765625 5.296875 -5.78125 C 5.296875 -5.84375 5.25 -5.953125 5.140625 -5.953125 C 5.03125 -5.953125 5.015625 -5.90625 4.953125 -5.78125 L 1.21875 1.46875 C 1.15625 1.59375 1.15625 1.609375 1.15625 1.625 C 1.15625 1.703125 1.21875 1.796875 1.328125 1.796875 C 1.421875 1.796875 1.453125 1.75 1.5 1.625 Z M 5.234375 -5.625 "/>
</g>
<g id="glyph-16-0">
<path d="M 2.28125 -3.046875 C 2.3125 -3.203125 2.359375 -3.390625 2.421875 -3.5 L 2.375 -3.546875 L 2.328125 -3.53125 C 2.140625 -3.484375 2.046875 -3.484375 1.65625 -3.484375 L 1.53125 -3.484375 L 1.703125 -4.375 C 1.828125 -5.0625 2.046875 -5.359375 2.421875 -5.359375 C 2.65625 -5.359375 2.875 -5.25 2.984375 -5.046875 L 3.0625 -5.078125 C 3.109375 -5.21875 3.1875 -5.453125 3.25 -5.625 L 3.296875 -5.734375 C 3.15625 -5.796875 2.921875 -5.84375 2.734375 -5.84375 C 2.640625 -5.84375 2.515625 -5.8125 2.453125 -5.78125 C 2.265625 -5.703125 1.609375 -5.21875 1.421875 -5.015625 C 1.25 -4.84375 1.15625 -4.609375 1.0625 -4.15625 L 0.953125 -3.515625 C 0.625 -3.359375 0.46875 -3.296875 0.265625 -3.234375 L 0.21875 -3.046875 L 0.875 -3.046875 L 0.796875 -2.609375 C 0.5625 -1.046875 0.265625 0.4375 0.09375 0.984375 C -0.0625 1.453125 -0.296875 1.703125 -0.578125 1.703125 C -0.765625 1.703125 -0.859375 1.640625 -1 1.46875 L -1.109375 1.5 C -1.140625 1.6875 -1.25 2.0625 -1.296875 2.140625 C -1.21875 2.171875 -1.09375 2.203125 -1.015625 2.203125 C -0.6875 2.203125 -0.25 1.953125 0.0625 1.578125 C 0.546875 1 0.71875 0.453125 1.296875 -2.34375 C 1.328125 -2.453125 1.390625 -2.75 1.453125 -3.046875 Z M 2.28125 -3.046875 "/>
</g>
<g id="glyph-16-1">
<path d="M 0.171875 -0.703125 C 0.171875 -0.546875 0.15625 -0.4375 0.109375 -0.1875 C 0.09375 -0.09375 0.078125 -0.0625 0.078125 -0.015625 C 0.1875 0.0625 0.3125 0.09375 0.421875 0.09375 C 0.671875 0.09375 0.984375 -0.140625 1.234375 -0.515625 L 1.84375 -1.453125 L 1.921875 -0.90625 C 2.03125 -0.21875 2.21875 0.09375 2.5 0.09375 C 2.671875 0.09375 2.9375 -0.046875 3.1875 -0.28125 L 3.578125 -0.625 L 3.5 -0.78125 C 3.21875 -0.546875 3.015625 -0.421875 2.890625 -0.421875 C 2.765625 -0.421875 2.671875 -0.5 2.59375 -0.65625 C 2.515625 -0.8125 2.4375 -1.109375 2.390625 -1.34375 L 2.25 -2.140625 L 2.53125 -2.53125 C 2.90625 -3.046875 3.109375 -3.234375 3.359375 -3.234375 C 3.484375 -3.234375 3.578125 -3.171875 3.625 -3.046875 L 3.734375 -3.078125 L 3.859375 -3.765625 C 3.765625 -3.8125 3.6875 -3.84375 3.625 -3.84375 C 3.296875 -3.84375 2.984375 -3.546875 2.484375 -2.828125 L 2.1875 -2.375 L 2.140625 -2.765625 C 2.046875 -3.546875 1.828125 -3.84375 1.359375 -3.84375 C 1.15625 -3.84375 0.984375 -3.78125 0.90625 -3.671875 L 0.453125 -3.015625 L 0.578125 -2.9375 C 0.828125 -3.203125 0.984375 -3.3125 1.125 -3.3125 C 1.390625 -3.3125 1.5625 -2.984375 1.703125 -2.203125 L 1.796875 -1.71875 L 1.46875 -1.21875 C 1.125 -0.6875 0.859375 -0.4375 0.640625 -0.4375 C 0.515625 -0.4375 0.4375 -0.46875 0.421875 -0.5 L 0.328125 -0.71875 Z M 0.171875 -0.703125 "/>
</g>
<g id="glyph-17-0">
<path d="M 2.75 2 C 2.75 1.96875 2.75 1.953125 2.609375 1.8125 C 1.578125 0.765625 1.3125 -0.8125 1.3125 -2.078125 C 1.3125 -3.53125 1.625 -4.96875 2.640625 -6.015625 C 2.75 -6.109375 2.75 -6.125 2.75 -6.15625 C 2.75 -6.203125 2.71875 -6.234375 2.671875 -6.234375 C 2.578125 -6.234375 1.84375 -5.671875 1.34375 -4.609375 C 0.921875 -3.703125 0.828125 -2.78125 0.828125 -2.078125 C 0.828125 -1.4375 0.921875 -0.421875 1.375 0.515625 C 1.875 1.53125 2.578125 2.078125 2.671875 2.078125 C 2.71875 2.078125 2.75 2.046875 2.75 2 Z M 2.75 2 "/>
</g>
<g id="glyph-17-1">
<path d="M 2.40625 -2.078125 C 2.40625 -2.71875 2.3125 -3.734375 1.859375 -4.671875 C 1.359375 -5.6875 0.640625 -6.234375 0.5625 -6.234375 C 0.5 -6.234375 0.46875 -6.203125 0.46875 -6.15625 C 0.46875 -6.125 0.46875 -6.109375 0.625 -5.953125 C 1.453125 -5.140625 1.921875 -3.8125 1.921875 -2.078125 C 1.921875 -0.65625 1.609375 0.8125 0.578125 1.859375 C 0.46875 1.953125 0.46875 1.96875 0.46875 2 C 0.46875 2.046875 0.5 2.078125 0.5625 2.078125 C 0.640625 2.078125 1.390625 1.515625 1.875 0.453125 C 2.296875 -0.453125 2.40625 -1.375 2.40625 -2.078125 Z M 2.40625 -2.078125 "/>
</g>
<g id="glyph-17-2">
<path d="M 5.703125 -2.71875 C 5.828125 -2.71875 6 -2.71875 6 -2.890625 C 6 -3.046875 5.828125 -3.046875 5.71875 -3.046875 L 0.734375 -3.046875 C 0.625 -3.046875 0.46875 -3.046875 0.46875 -2.890625 C 0.46875 -2.71875 0.625 -2.71875 0.75 -2.71875 Z M 5.71875 -1.109375 C 5.828125 -1.109375 6 -1.109375 6 -1.265625 C 6 -1.4375 5.828125 -1.4375 5.703125 -1.4375 L 0.75 -1.4375 C 0.625 -1.4375 0.46875 -1.4375 0.46875 -1.265625 C 0.46875 -1.109375 0.625 -1.109375 0.734375 -1.109375 Z M 5.71875 -1.109375 "/>
</g>
<g id="glyph-18-0">
<path d="M 1.71875 -2.65625 C 1.71875 -2.75 1.71875 -2.90625 1.5625 -2.90625 C 1.453125 -2.90625 1.375 -2.8125 1.390625 -2.734375 L 1.390625 -2.65625 L 1.484375 -1.6875 L 0.6875 -2.265625 C 0.625 -2.296875 0.625 -2.3125 0.578125 -2.3125 C 0.484375 -2.3125 0.40625 -2.21875 0.40625 -2.140625 C 0.40625 -2.03125 0.46875 -2.015625 0.53125 -1.984375 L 1.421875 -1.5625 L 0.5625 -1.140625 C 0.453125 -1.09375 0.40625 -1.0625 0.40625 -0.96875 C 0.40625 -0.875 0.484375 -0.796875 0.578125 -0.796875 C 0.625 -0.796875 0.625 -0.796875 0.78125 -0.921875 L 1.484375 -1.421875 L 1.390625 -0.375 C 1.390625 -0.25 1.5 -0.21875 1.546875 -0.21875 C 1.625 -0.21875 1.71875 -0.25 1.71875 -0.375 L 1.625 -1.421875 L 2.421875 -0.84375 C 2.484375 -0.8125 2.5 -0.796875 2.53125 -0.796875 C 2.625 -0.796875 2.703125 -0.890625 2.703125 -0.96875 C 2.703125 -1.0625 2.65625 -1.09375 2.578125 -1.140625 C 2.203125 -1.328125 2.1875 -1.328125 1.703125 -1.546875 L 2.5625 -1.96875 C 2.65625 -2.015625 2.703125 -2.046875 2.703125 -2.140625 C 2.703125 -2.234375 2.625 -2.3125 2.53125 -2.3125 C 2.5 -2.3125 2.484375 -2.3125 2.328125 -2.1875 L 1.625 -1.6875 Z M 1.71875 -2.65625 "/>
</g>
<g id="glyph-19-0">
<path d="M 2.09375 -5.484375 C 0.859375 -5.484375 0.234375 -4.515625 0.234375 -2.578125 C 0.234375 -1.65625 0.390625 -0.84375 0.671875 -0.453125 C 0.953125 -0.0625 1.40625 0.15625 1.890625 0.15625 C 3.09375 0.15625 3.703125 -0.875 3.703125 -2.921875 C 3.703125 -4.65625 3.1875 -5.484375 2.09375 -5.484375 Z M 1.953125 -5.21875 C 2.71875 -5.21875 3.03125 -4.4375 3.03125 -2.515625 C 3.03125 -0.828125 2.734375 -0.125 2 -0.125 C 1.234375 -0.125 0.90625 -0.921875 0.90625 -2.875 C 0.90625 -4.546875 1.1875 -5.21875 1.953125 -5.21875 Z M 1.953125 -5.21875 "/>
</g>
<g id="glyph-19-1">
<path d="M 1.1875 -5.71875 L 1.125 -5.78125 C 0.765625 -5.65625 0.515625 -5.59375 -0.125 -5.484375 L -0.125 -5.265625 L 0.328125 -5.265625 C 0.46875 -5.265625 0.53125 -5.171875 0.53125 -4.9375 L 0.53125 -1.21875 C 0.53125 -0.71875 0.515625 -0.515625 0.46875 0.046875 L 0.59375 0.09375 L 0.90625 -0.1875 C 1.234375 0.015625 1.515625 0.09375 1.9375 0.09375 C 2.25 0.09375 2.453125 0.046875 2.625 -0.078125 L 3.421875 -0.65625 C 3.765625 -0.90625 4.046875 -1.5625 4.046875 -2.15625 C 4.046875 -3.078125 3.453125 -3.734375 2.609375 -3.734375 C 2.234375 -3.734375 1.84375 -3.59375 1.640625 -3.390625 L 1.1875 -2.9375 Z M 1.1875 -2.453125 C 1.1875 -2.5625 1.28125 -2.703125 1.40625 -2.859375 C 1.625 -3.078125 1.9375 -3.21875 2.265625 -3.21875 C 2.9375 -3.21875 3.359375 -2.671875 3.359375 -1.828125 C 3.359375 -0.9375 2.875 -0.3125 2.203125 -0.3125 C 1.78125 -0.3125 1.1875 -0.5625 1.1875 -0.734375 Z M 1.1875 -2.453125 "/>
</g>
<g id="glyph-19-2">
<path d="M 4.015625 -3.703125 L 3.9375 -3.734375 C 3.53125 -3.5625 3.109375 -3.453125 2.6875 -3.40625 L 2.6875 -3.1875 L 2.984375 -3.1875 C 3.3125 -3.1875 3.34375 -3.125 3.34375 -2.609375 L 3.34375 -1.3125 C 3.34375 -1.125 3.234375 -0.90625 3.046875 -0.71875 C 2.828125 -0.5 2.5625 -0.390625 2.25 -0.390625 C 1.96875 -0.390625 1.75 -0.484375 1.625 -0.625 C 1.515625 -0.75 1.453125 -1 1.453125 -1.359375 L 1.453125 -3.703125 L 1.390625 -3.734375 C 0.984375 -3.5625 0.5625 -3.453125 0.140625 -3.40625 L 0.140625 -3.1875 L 0.4375 -3.1875 C 0.75 -3.1875 0.78125 -3.125 0.78125 -2.609375 L 0.78125 -1.265625 C 0.78125 -0.703125 0.84375 -0.46875 0.984375 -0.265625 C 1.15625 -0.03125 1.453125 0.09375 1.90625 0.09375 C 2.265625 0.09375 2.59375 -0.015625 2.8125 -0.21875 L 3.34375 -0.703125 C 3.34375 -0.484375 3.328125 -0.34375 3.3125 0.03125 C 3.84375 0 3.84375 0 3.96875 0 C 4.078125 0 4.078125 0 4.625 0.03125 L 4.625 -0.21875 L 4.296875 -0.234375 C 4.03125 -0.25 4.015625 -0.296875 4.015625 -0.8125 Z M 4.015625 -3.703125 "/>
</g>
<g id="glyph-19-3">
<path d="M 0.78125 -3.046875 L 0.78125 -0.75 C 0.78125 -0.15625 1.046875 0.09375 1.65625 0.09375 C 1.84375 0.09375 2.03125 0.0625 2.078125 0 L 2.46875 -0.421875 L 2.359375 -0.5625 C 2.15625 -0.453125 2.046875 -0.40625 1.890625 -0.40625 C 1.578125 -0.40625 1.453125 -0.5625 1.453125 -0.953125 L 1.453125 -3.046875 L 2.46875 -3.046875 L 2.546875 -3.46875 L 1.453125 -3.421875 L 1.453125 -3.734375 C 1.453125 -4.0625 1.46875 -4.34375 1.53125 -4.859375 L 1.4375 -4.953125 C 1.25 -4.828125 1.015625 -4.71875 0.765625 -4.640625 C 0.78125 -4.40625 0.796875 -4.25 0.796875 -4.015625 L 0.796875 -3.453125 L 0.171875 -3.171875 L 0.171875 -3.015625 Z M 0.78125 -3.046875 "/>
</g>
<g id="glyph-19-4">
<path d="M 2.578125 -0.65625 L 2.546875 0.03125 C 3.0625 0 3.0625 0 3.15625 0 C 3.203125 0 3.40625 0.015625 3.75 0.03125 L 3.75 -0.21875 L 3.4375 -0.234375 C 3.25 -0.234375 3.21875 -0.296875 3.21875 -0.6875 L 3.21875 -2.15625 C 3.21875 -3.3125 2.890625 -3.734375 1.953125 -3.734375 C 1.625 -3.734375 1.296875 -3.65625 1 -3.46875 L 0.578125 -3.21875 L 0.578125 -2.6875 L 0.78125 -2.640625 L 0.890625 -2.890625 C 1.046875 -3.265625 1.125 -3.3125 1.5 -3.3125 C 2.25 -3.3125 2.5625 -3.015625 2.578125 -2.296875 L 1.796875 -2.15625 C 0.703125 -1.953125 0.25 -1.578125 0.25 -0.890625 C 0.25 -0.265625 0.625 0.09375 1.265625 0.09375 C 1.40625 0.09375 1.53125 0.078125 1.59375 0.03125 Z M 2.578125 -0.984375 C 2.34375 -0.65625 1.84375 -0.359375 1.53125 -0.359375 C 1.21875 -0.359375 0.9375 -0.65625 0.9375 -1 C 0.9375 -1.296875 1.09375 -1.5625 1.34375 -1.71875 C 1.53125 -1.84375 1.96875 -1.953125 2.578125 -2.046875 Z M 2.578125 -0.984375 "/>
</g>
<g id="glyph-19-5">
<path d="M 0.1875 -5.265625 L 0.625 -5.265625 C 0.765625 -5.265625 0.828125 -5.171875 0.828125 -4.9375 L 0.828125 -0.8125 C 0.828125 -0.3125 0.8125 -0.25 0.53125 -0.234375 L 0.171875 -0.21875 L 0.171875 0.03125 C 0.96875 0 0.96875 0 1.15625 0 C 1.359375 0 1.359375 0 2.15625 0.03125 L 2.15625 -0.21875 L 1.796875 -0.234375 C 1.515625 -0.25 1.5 -0.3125 1.5 -0.8125 L 1.5 -5.71875 L 1.421875 -5.78125 C 1.078125 -5.65625 0.8125 -5.59375 0.1875 -5.484375 Z M 0.1875 -5.265625 "/>
</g>
<g id="glyph-19-6">
<path d="M 2.71875 -5.71875 C 2.546875 -5.78125 2.453125 -5.796875 2.34375 -5.796875 C 2.09375 -5.796875 1.8125 -5.671875 1.640625 -5.46875 L 1.171875 -4.9375 C 0.953125 -4.671875 0.84375 -4.3125 0.84375 -3.796875 L 0.84375 -3.453125 L 0.296875 -3.21875 L 0.296875 -3.03125 L 0.84375 -3.0625 L 0.84375 -0.8125 C 0.84375 -0.3125 0.828125 -0.25 0.546875 -0.234375 L 0.1875 -0.21875 L 0.1875 0.03125 C 0.984375 0 0.984375 0 1.171875 0 C 1.375 0 1.375 0 2.171875 0.03125 L 2.171875 -0.21875 L 1.8125 -0.234375 C 1.53125 -0.25 1.515625 -0.3125 1.515625 -0.8125 L 1.515625 -3.0625 L 2.5 -3.0625 L 2.5625 -3.484375 L 1.515625 -3.453125 L 1.515625 -4.140625 C 1.515625 -5.046875 1.625 -5.28125 2.078125 -5.28125 C 2.28125 -5.28125 2.4375 -5.21875 2.625 -5.046875 L 2.71875 -5.09375 Z M 2.71875 -5.71875 "/>
</g>
<g id="glyph-19-7">
<path d="M 3.484375 -0.5625 L 3.375 -0.640625 C 2.875 -0.328125 2.6875 -0.265625 2.34375 -0.265625 C 1.828125 -0.265625 1.390625 -0.5 1.171875 -0.890625 C 1.015625 -1.140625 0.96875 -1.375 0.953125 -1.828125 L 2.109375 -1.828125 C 2.65625 -1.828125 3 -1.859375 3.546875 -1.9375 C 3.5625 -2.0625 3.5625 -2.125 3.5625 -2.21875 C 3.5625 -3.140625 2.984375 -3.734375 2.09375 -3.734375 C 1.796875 -3.734375 1.453125 -3.640625 1.125 -3.4375 C 0.46875 -3.0625 0.203125 -2.578125 0.203125 -1.75 C 0.203125 -1.25 0.328125 -0.8125 0.546875 -0.515625 C 0.859375 -0.09375 1.390625 0.15625 1.984375 0.15625 C 2.28125 0.15625 2.578125 0.09375 2.90625 -0.046875 C 3.125 -0.140625 3.296875 -0.234375 3.328125 -0.28125 Z M 2.859375 -2.125 C 2.453125 -2.109375 2.25 -2.109375 1.96875 -2.109375 C 1.609375 -2.109375 1.390625 -2.109375 0.96875 -2.15625 C 0.96875 -2.53125 1 -2.703125 1.09375 -2.90625 C 1.265625 -3.265625 1.609375 -3.46875 1.984375 -3.46875 C 2.25 -3.46875 2.46875 -3.375 2.609375 -3.15625 C 2.78125 -2.890625 2.84375 -2.65625 2.859375 -2.125 Z M 2.859375 -2.125 "/>
</g>
<g id="glyph-19-8">
<path d="M 0.328125 -1.140625 C 0.328125 -0.59375 0.296875 -0.34375 0.234375 -0.03125 C 0.65625 0.109375 0.96875 0.15625 1.328125 0.15625 C 2.375 0.15625 3.109375 -0.390625 3.109375 -1.171875 C 3.109375 -1.421875 3.046875 -1.609375 2.890625 -1.765625 C 2.6875 -1.96875 2.421875 -2.0625 1.71875 -2.203125 C 1.0625 -2.328125 0.859375 -2.484375 0.859375 -2.859375 C 0.859375 -3.25 1.125 -3.46875 1.625 -3.46875 C 2.15625 -3.46875 2.5625 -3.203125 2.5625 -2.828125 L 2.5625 -2.640625 L 2.78125 -2.640625 C 2.78125 -3.09375 2.796875 -3.296875 2.828125 -3.53125 C 2.40625 -3.6875 2.109375 -3.734375 1.78125 -3.734375 C 0.859375 -3.734375 0.296875 -3.296875 0.296875 -2.578125 C 0.296875 -2.203125 0.46875 -1.921875 0.84375 -1.765625 C 1.046875 -1.671875 1.46875 -1.53125 2.015625 -1.421875 C 2.375 -1.34375 2.53125 -1.171875 2.53125 -0.875 C 2.53125 -0.4375 2.125 -0.140625 1.5625 -0.140625 C 0.984375 -0.140625 0.5625 -0.421875 0.5625 -0.8125 L 0.5625 -1.140625 Z M 0.328125 -1.140625 "/>
</g>
<g id="glyph-19-9">
<path d="M 1.5 -3.703125 L 1.421875 -3.734375 C 1.015625 -3.5625 0.609375 -3.453125 0.1875 -3.40625 L 0.1875 -3.1875 L 0.484375 -3.1875 C 0.796875 -3.1875 0.828125 -3.125 0.828125 -2.609375 L 0.828125 -0.8125 C 0.828125 -0.3125 0.8125 -0.25 0.53125 -0.234375 L 0.171875 -0.21875 L 0.171875 0.03125 C 0.96875 0 0.96875 0 1.15625 0 C 1.359375 0 1.359375 0 2.15625 0.03125 L 2.15625 -0.21875 L 1.796875 -0.234375 C 1.515625 -0.25 1.5 -0.3125 1.5 -0.8125 Z M 1.125 -5.46875 C 0.890625 -5.46875 0.6875 -5.265625 0.6875 -5.03125 C 0.6875 -4.796875 0.890625 -4.59375 1.125 -4.59375 C 1.359375 -4.59375 1.5625 -4.796875 1.5625 -5.03125 C 1.5625 -5.25 1.359375 -5.46875 1.125 -5.46875 Z M 1.125 -5.46875 "/>
</g>
<g id="glyph-19-10">
<path d="M 0.078125 -3.1875 L 0.375 -3.1875 C 0.6875 -3.1875 0.71875 -3.125 0.71875 -2.609375 L 0.71875 1.40625 C 0.71875 1.90625 0.703125 1.953125 0.4375 1.96875 L 0.0625 2 L 0.0625 2.234375 C 0.859375 2.21875 0.859375 2.21875 1.0625 2.21875 C 1.265625 2.21875 1.265625 2.21875 2.0625 2.234375 L 2.0625 2 L 1.6875 1.96875 C 1.421875 1.953125 1.390625 1.90625 1.390625 1.40625 L 1.390625 -0.109375 C 1.640625 0.046875 1.890625 0.09375 2.25 0.09375 C 2.484375 0.09375 2.6875 0.046875 2.8125 -0.03125 L 3.71875 -0.625 C 4.046875 -0.828125 4.421875 -1.65625 4.421875 -2.15625 C 4.421875 -3.046875 3.6875 -3.734375 2.75 -3.734375 C 2.46875 -3.734375 2.171875 -3.65625 2.046875 -3.53125 L 1.390625 -2.9375 L 1.390625 -3.703125 L 1.328125 -3.734375 C 0.921875 -3.5625 0.5 -3.453125 0.078125 -3.40625 Z M 1.390625 -2.4375 C 1.390625 -2.546875 1.4375 -2.640625 1.53125 -2.765625 C 1.765625 -3.0625 2.09375 -3.21875 2.5 -3.21875 C 3.25 -3.21875 3.71875 -2.6875 3.71875 -1.859375 C 3.71875 -0.96875 3.1875 -0.3125 2.46875 -0.3125 C 2.03125 -0.3125 1.703125 -0.453125 1.390625 -0.78125 Z M 1.390625 -2.4375 "/>
</g>
<g id="glyph-19-11">
<path d="M 4.140625 -3.015625 L 4.328125 -3.34375 L 4.296875 -3.4375 L 3.171875 -3.40625 C 2.875 -3.640625 2.59375 -3.734375 2.203125 -3.734375 C 1.84375 -3.734375 1.4375 -3.625 1.109375 -3.4375 C 0.671875 -3.171875 0.4375 -2.78125 0.4375 -2.296875 C 0.4375 -1.71875 0.8125 -1.3125 1.390625 -1.25 L 0.765625 -0.75 C 0.6875 -0.640625 0.640625 -0.53125 0.640625 -0.421875 C 0.640625 -0.1875 0.78125 -0.0625 1.171875 0.046875 L 0.484375 0.421875 C 0.359375 0.484375 0.25 0.78125 0.25 1.03125 C 0.25 1.75 0.96875 2.25 1.96875 2.25 C 3.171875 2.25 4.125 1.5 4.125 0.53125 C 4.125 -0.046875 3.75 -0.453125 3.1875 -0.453125 L 1.90625 -0.453125 C 1.5 -0.453125 1.3125 -0.546875 1.3125 -0.75 C 1.3125 -0.859375 1.375 -0.953125 1.578125 -1.125 C 1.625 -1.15625 1.640625 -1.171875 1.671875 -1.21875 C 1.75 -1.203125 1.796875 -1.1875 1.859375 -1.1875 C 2.203125 -1.1875 2.625 -1.34375 2.953125 -1.578125 C 3.3125 -1.84375 3.484375 -2.15625 3.484375 -2.578125 C 3.484375 -2.734375 3.46875 -2.84375 3.40625 -3.015625 Z M 1.90625 -3.46875 C 2.453125 -3.46875 2.828125 -3.015625 2.828125 -2.34375 C 2.828125 -1.828125 2.484375 -1.46875 2 -1.46875 C 1.46875 -1.46875 1.109375 -1.875 1.109375 -2.5 C 1.109375 -3.109375 1.40625 -3.46875 1.90625 -3.46875 Z M 2.28125 0.109375 C 3.1875 0.109375 3.5 0.296875 3.5 0.8125 C 3.5 1.5 2.875 2.015625 2.03125 2.015625 C 1.34375 2.015625 0.859375 1.609375 0.859375 1.015625 C 0.859375 0.65625 1.0625 0.328125 1.390625 0.1875 C 1.515625 0.125 1.734375 0.109375 2.28125 0.109375 Z M 2.28125 0.109375 "/>
</g>
<g id="glyph-19-12">
<path d="M 2.21875 -3.734375 C 1.0625 -3.734375 0.25 -2.921875 0.25 -1.734375 C 0.25 -0.609375 0.96875 0.15625 1.984375 0.15625 C 3.21875 0.15625 4.09375 -0.6875 4.09375 -1.890625 C 4.09375 -2.96875 3.3125 -3.734375 2.21875 -3.734375 Z M 2.078125 -3.46875 C 2.8125 -3.46875 3.359375 -2.671875 3.359375 -1.59375 C 3.359375 -0.671875 2.953125 -0.109375 2.296875 -0.109375 C 1.515625 -0.109375 1 -0.875 1 -2 C 1 -2.953125 1.375 -3.46875 2.078125 -3.46875 Z M 2.078125 -3.46875 "/>
</g>
<g id="glyph-19-13">
<path d="M 1.4375 -5.453125 C 0.984375 -4.875 0.671875 -4.34375 0.40625 -3.65625 L 0.515625 -3.546875 C 0.796875 -3.65625 0.875 -3.671875 1.28125 -3.796875 C 1.328125 -4.421875 1.515625 -4.96875 1.90625 -5.5625 L 1.78125 -5.65625 Z M 3.109375 -5.453125 C 2.65625 -4.875 2.34375 -4.34375 2.078125 -3.65625 L 2.1875 -3.546875 C 2.46875 -3.65625 2.546875 -3.671875 2.953125 -3.796875 C 3 -4.421875 3.203125 -4.96875 3.578125 -5.5625 L 3.453125 -5.65625 Z M 3.109375 -5.453125 "/>
</g>
<g id="glyph-19-14">
<path d="M 0.0625 -5.265625 L 0.5 -5.265625 C 0.640625 -5.265625 0.703125 -5.171875 0.703125 -4.9375 L 0.703125 -0.8125 C 0.703125 -0.3125 0.671875 -0.25 0.40625 -0.234375 L 0.046875 -0.21875 L 0.046875 0.03125 C 0.59375 0.015625 0.8125 0 1.03125 0 C 1.265625 0 1.484375 0.015625 2.03125 0.03125 L 2.03125 -0.21875 L 1.671875 -0.234375 C 1.390625 -0.25 1.375 -0.3125 1.375 -0.8125 L 1.375 -2.5 C 1.375 -2.859375 1.890625 -3.25 2.375 -3.25 C 2.921875 -3.25 3.265625 -2.859375 3.265625 -2.234375 L 3.265625 0.03125 C 3.75 0 3.765625 0 3.890625 0 C 4.015625 0 4.015625 0 4.5625 0.03125 L 4.5625 -0.21875 L 4.234375 -0.234375 C 3.953125 -0.25 3.9375 -0.296875 3.9375 -0.8125 L 3.9375 -2.34375 C 3.9375 -3.28125 3.5 -3.734375 2.609375 -3.734375 C 2.3125 -3.734375 2.140625 -3.6875 1.96875 -3.53125 L 1.375 -3.015625 L 1.375 -5.71875 L 1.296875 -5.78125 C 0.953125 -5.65625 0.6875 -5.59375 0.0625 -5.484375 Z M 0.0625 -5.265625 "/>
</g>
<g id="glyph-19-15">
<path d="M 0.875 -3.75 C 1.328125 -4.328125 1.640625 -4.859375 1.90625 -5.546875 L 1.796875 -5.65625 C 1.515625 -5.546875 1.4375 -5.53125 1.03125 -5.40625 C 0.984375 -4.765625 0.78125 -4.25 0.40625 -3.640625 L 0.53125 -3.546875 Z M 2.546875 -3.75 C 3 -4.328125 3.3125 -4.859375 3.578125 -5.546875 L 3.46875 -5.65625 C 3.1875 -5.546875 3.109375 -5.53125 2.703125 -5.40625 C 2.65625 -4.765625 2.46875 -4.25 2.078125 -3.640625 L 2.203125 -3.546875 Z M 2.546875 -3.75 "/>
</g>
</g>
<clipPath id="clip-0">
<path clip-rule="nonzero" d="M 62 13 L 492.773438 13 L 492.773438 387.890625 L 62 387.890625 Z M 62 13 "/>
</clipPath>
</defs>
<path fill-rule="nonzero" fill="rgb(97.645569%, 96.470642%, 94.119263%)" fill-opacity="1" d="M 83.21875 361.242188 L 83.21875 48.972656 C 83.21875 41.269531 89.464844 35.027344 97.167969 35.027344 L 466.125 35.027344 C 473.828125 35.027344 480.074219 41.269531 480.074219 48.972656 L 480.074219 361.242188 C 480.074219 368.945312 473.828125 375.1875 466.125 375.1875 L 97.167969 375.1875 C 89.464844 375.1875 83.21875 368.945312 83.21875 361.242188 Z M 83.21875 361.242188 "/>
<g clip-path="url(#clip-0)">
<path fill="none" stroke-width="1.49442" stroke-linecap="butt" stroke-linejoin="miter" stroke="rgb(83.137512%, 78.823853%, 72.155762%)" stroke-opacity="1" stroke-miterlimit="10" d="M -42.52025 -71.094188 L -42.52025 241.175344 C -42.52025 248.878469 -36.274156 255.120656 -28.571031 255.120656 L 340.386 255.120656 C 348.089125 255.120656 354.335219 248.878469 354.335219 241.175344 L 354.335219 -71.094188 C 354.335219 -78.797313 348.089125 -85.0395 340.386 -85.0395 L -28.571031 -85.0395 C -36.274156 -85.0395 -42.52025 -78.797313 -42.52025 -71.094188 Z M -42.52025 -71.094188 " transform="matrix(1, 0, 0, -1, 125.739, 290.148)"/>
</g>
<g fill="rgb(23.922729%, 20.783997%, 18.824768%)" fill-opacity="1">
<use xlink:href="#glyph-0-0" x="134.618" y="61.723"/>
<use xlink:href="#glyph-0-1" x="148.958428" y="61.723"/>
<use xlink:href="#glyph-0-2" x="159.477038" y="61.723"/>
<use xlink:href="#glyph-0-3" x="165.209766" y="61.723"/>
<use xlink:href="#glyph-0-4" x="170.942494" y="61.723"/>
<use xlink:href="#glyph-0-5" x="186.246985" y="61.723"/>
<use xlink:href="#glyph-0-6" x="194.854685" y="61.723"/>
<use xlink:href="#glyph-0-3" x="200.587413" y="61.723"/>
<use xlink:href="#glyph-0-2" x="206.320141" y="61.723"/>
<use xlink:href="#glyph-0-7" x="212.052869" y="61.723"/>
</g>
<g fill="rgb(23.922729%, 20.783997%, 18.824768%)" fill-opacity="1">
<use xlink:href="#glyph-0-8" x="225.928482" y="61.723"/>
<use xlink:href="#glyph-0-9" x="232.625272" y="61.723"/>
<use xlink:href="#glyph-0-10" x="242.197035" y="61.723"/>
</g>
<g fill="rgb(23.922729%, 20.783997%, 18.824768%)" fill-opacity="1">
<use xlink:href="#glyph-0-11" x="253.197675" y="61.723"/>
<use xlink:href="#glyph-0-9" x="265.627194" y="61.723"/>
<use xlink:href="#glyph-0-12" x="275.198956" y="61.723"/>
<use xlink:href="#glyph-0-13" x="285.717566" y="61.723"/>
<use xlink:href="#glyph-0-2" x="293.361203" y="61.723"/>
<use xlink:href="#glyph-0-10" x="299.093932" y="61.723"/>
<use xlink:href="#glyph-0-5" x="305.790722" y="61.723"/>
<use xlink:href="#glyph-0-3" x="314.398422" y="61.723"/>
<use xlink:href="#glyph-0-12" x="320.13115" y="61.723"/>
<use xlink:href="#glyph-0-14" x="330.64976" y="61.723"/>
<use xlink:href="#glyph-0-15" x="339.25746" y="61.723"/>
</g>
<g fill="rgb(23.922729%, 20.783997%, 18.824768%)" fill-opacity="1">
<use xlink:href="#glyph-0-16" x="354.079919" y="61.723"/>
<use xlink:href="#glyph-0-10" x="364.598529" y="61.723"/>
<use xlink:href="#glyph-0-9" x="371.295319" y="61.723"/>
<use xlink:href="#glyph-0-17" x="380.867082" y="61.723"/>
<use xlink:href="#glyph-0-6" x="391.385691" y="61.723"/>
<use xlink:href="#glyph-0-14" x="397.118419" y="61.723"/>
<use xlink:href="#glyph-0-4" x="405.726119" y="61.723"/>
<use xlink:href="#glyph-0-13" x="421.03061" y="61.723"/>
</g>
<path fill="none" stroke-width="0.79701" stroke-linecap="butt" stroke-linejoin="miter" stroke="rgb(48.234558%, 59.214783%, 67.843628%)" stroke-opacity="0.35" stroke-miterlimit="10" d="M 28.346937 198.42925 C 28.346937 209.386281 15.655531 218.269094 -0.00071875 218.269094 C -15.656969 218.269094 -28.348375 209.386281 -28.348375 198.42925 C -28.348375 187.468312 -15.656969 178.5855 -0.00071875 178.5855 C 15.655531 178.5855 28.346937 187.468312 28.346937 198.42925 Z M 28.346937 198.42925 " transform="matrix(1, 0, 0, -1, 125.739, 290.148)"/>
<path fill="none" stroke-width="0.79701" stroke-linecap="butt" stroke-linejoin="miter" stroke="rgb(48.234558%, 59.214783%, 67.843628%)" stroke-opacity="0.3" stroke-miterlimit="10" d="M 56.694594 198.42925 C 56.694594 220.347219 31.311781 238.112844 -0.00071875 238.112844 C -31.313219 238.112844 -56.692125 220.347219 -56.692125 198.42925 C -56.692125 176.511281 -31.313219 158.74175 -0.00071875 158.74175 C 31.311781 158.74175 56.694594 176.511281 56.694594 198.42925 Z M 56.694594 198.42925 " transform="matrix(1, 0, 0, -1, 125.739, 290.148)"/>
<path fill="none" stroke-width="0.79701" stroke-linecap="butt" stroke-linejoin="miter" stroke="rgb(48.234558%, 59.214783%, 67.843628%)" stroke-opacity="0.25" stroke-miterlimit="10" d="M 85.04225 198.42925 C 85.04225 231.30425 46.968031 257.956594 -0.00071875 257.956594 C -46.965563 257.956594 -85.039781 231.30425 -85.039781 198.42925 C -85.039781 165.550344 -46.965563 138.898 -0.00071875 138.898 C 46.968031 138.898 85.04225 165.550344 85.04225 198.42925 Z M 85.04225 198.42925 " transform="matrix(1, 0, 0, -1, 125.739, 290.148)"/>
<path fill="none" stroke-width="0.79701" stroke-linecap="butt" stroke-linejoin="miter" stroke="rgb(48.234558%, 59.214783%, 67.843628%)" stroke-opacity="0.2" stroke-miterlimit="10" d="M 113.386 198.42925 C 113.386 242.265187 62.624281 277.796437 -0.00071875 277.796437 C -62.621813 277.796437 -113.387438 242.265187 -113.387438 198.42925 C -113.387438 154.593312 -62.621813 119.058156 -0.00071875 119.058156 C 62.624281 119.058156 113.386 154.593312 113.386 198.42925 Z M 113.386 198.42925 " transform="matrix(1, 0, 0, -1, 125.739, 290.148)"/>
<g fill="rgb(48.234558%, 59.214783%, 67.843628%)" fill-opacity="0.7">
<use xlink:href="#glyph-1-0" x="85.506" y="136.267"/>
<use xlink:href="#glyph-1-1" x="89.487082" y="136.267"/>
<use xlink:href="#glyph-1-2" x="94.382736" y="136.267"/>
<use xlink:href="#glyph-1-3" x="99.601181" y="136.267"/>
<use xlink:href="#glyph-1-1" x="102.524227" y="136.267"/>
<use xlink:href="#glyph-1-4" x="107.419882" y="136.267"/>
<use xlink:href="#glyph-1-5" x="112.826621" y="136.267"/>
<use xlink:href="#glyph-1-6" x="116.368349" y="136.267"/>
</g>
<g fill="rgb(48.234558%, 59.214783%, 67.843628%)" fill-opacity="0.7">
<use xlink:href="#glyph-1-1" x="122.411702" y="136.267"/>
<use xlink:href="#glyph-1-7" x="127.307357" y="136.267"/>
</g>
<g fill="rgb(48.234558%, 59.214783%, 67.843628%)" fill-opacity="0.7">
<use xlink:href="#glyph-2-0" x="133.807997" y="136.267"/>
</g>
<path fill-rule="nonzero" fill="rgb(47.840881%, 60.392761%, 49.412537%)" fill-opacity="0.12" stroke-width="1.99255" stroke-linecap="butt" stroke-linejoin="miter" stroke="rgb(38.273621%, 48.313904%, 39.529419%)" stroke-opacity="1" stroke-miterlimit="10" d="M 295.921156 79.523 C 304.077406 125.776906 260.694594 172.089406 199.022719 182.964406 C 137.350844 193.8355 80.745375 165.155812 72.589125 118.901906 C 64.432875 72.648 107.815687 26.339406 169.487562 15.464406 C 231.159437 4.589406 287.764906 33.269094 295.921156 79.523 Z M 295.921156 79.523 " transform="matrix(1, 0, 0, -1, 125.739, 290.148)"/>
<g fill="rgb(33.48999%, 42.272949%, 34.588623%)" fill-opacity="1">
<use xlink:href="#glyph-3-0" x="389.797" y="148.863"/>
</g>
<path fill="none" stroke-width="2.49069" stroke-linecap="butt" stroke-linejoin="miter" stroke="rgb(72.155762%, 59.999084%, 36.863708%)" stroke-opacity="1" stroke-miterlimit="10" d="M 113.386 164.409719 L 169.296156 144.081594 " transform="matrix(1, 0, 0, -1, 125.739, 290.148)"/>
<path fill-rule="nonzero" fill="rgb(72.155762%, 59.999084%, 36.863708%)" fill-opacity="1" stroke-width="1.9134" stroke-linecap="butt" stroke-linejoin="miter" stroke="rgb(72.155762%, 59.999084%, 36.863708%)" stroke-opacity="1" stroke-miterlimit="10" d="M 8.615646 -0.000996427 L 3.09067 2.104998 L 4.94921 0.0000799636 L 3.090584 -2.101425 Z M 8.615646 -0.000996427 " transform="matrix(0.93979, 0.34172, 0.34172, -0.93979, 290.83313, 144.5393)"/>
<g fill="rgb(64.93988%, 54.000854%, 33.175659%)" fill-opacity="1">
<use xlink:href="#glyph-4-0" x="306.153" y="162.281"/>
</g>
<g fill="rgb(64.93988%, 54.000854%, 33.175659%)" fill-opacity="1">
<use xlink:href="#glyph-5-0" x="316.390206" y="162.281"/>
</g>
<g fill="rgb(64.93988%, 54.000854%, 33.175659%)" fill-opacity="1">
<use xlink:href="#glyph-6-0" x="321.632175" y="162.281"/>
</g>
<g fill="rgb(64.93988%, 54.000854%, 33.175659%)" fill-opacity="1">
<use xlink:href="#glyph-5-1" x="326.955027" y="162.281"/>
</g>
<g fill="rgb(64.93988%, 54.000854%, 33.175659%)" fill-opacity="1">
<use xlink:href="#glyph-7-0" x="333.317" y="157.941"/>
</g>
<g fill="rgb(64.93988%, 54.000854%, 33.175659%)" fill-opacity="1">
<use xlink:href="#glyph-6-1" x="338.748" y="162.281"/>
</g>
<path fill="none" stroke-width="1.79329" stroke-linecap="butt" stroke-linejoin="miter" stroke="rgb(48.234558%, 59.214783%, 67.843628%)" stroke-opacity="1" stroke-miterlimit="10" d="M 113.386 164.409719 L 177.389906 172.093312 " transform="matrix(1, 0, 0, -1, 125.739, 290.148)"/>
<path fill-rule="nonzero" fill="rgb(48.234558%, 59.214783%, 67.843628%)" fill-opacity="1" stroke-width="1.79329" stroke-linecap="butt" stroke-linejoin="miter" stroke="rgb(48.234558%, 59.214783%, 67.843628%)" stroke-opacity="1" stroke-miterlimit="10" d="M 8.784415 0.0014892 L 2.895504 2.238643 L 4.873266 -0.00130648 L 2.897214 -2.238932 Z M 8.784415 0.0014892 " transform="matrix(0.99284, -0.11914, -0.11914, -0.99284, 298.73569, 118.58321)"/>
<g fill="rgb(38.587952%, 47.370911%, 54.275513%)" fill-opacity="1">
<use xlink:href="#glyph-8-0" x="294.281" y="109.819"/>
</g>
<g fill="rgb(38.587952%, 47.370911%, 54.275513%)" fill-opacity="1">
<use xlink:href="#glyph-9-0" x="299.387" y="111.677"/>
</g>
<g fill="rgb(38.587952%, 47.370911%, 54.275513%)" fill-opacity="1">
<use xlink:href="#glyph-10-0" x="305.733" y="109.819"/>
</g>
<g fill="rgb(38.587952%, 47.370911%, 54.275513%)" fill-opacity="1">
<use xlink:href="#glyph-8-0" x="316.158593" y="109.819"/>
</g>
<g fill="rgb(38.587952%, 47.370911%, 54.275513%)" fill-opacity="1">
<use xlink:href="#glyph-11-0" x="321.458" y="106.203"/>
</g>
<path fill="none" stroke-width="1.79329" stroke-linecap="butt" stroke-linejoin="miter" stroke="rgb(48.234558%, 59.214783%, 67.843628%)" stroke-opacity="1" stroke-miterlimit="10" d="M 113.386 164.409719 L 186.940687 117.128469 " transform="matrix(1, 0, 0, -1, 125.739, 290.148)"/>
<path fill-rule="nonzero" fill="rgb(48.234558%, 59.214783%, 67.843628%)" fill-opacity="1" stroke-width="1.79329" stroke-linecap="butt" stroke-linejoin="miter" stroke="rgb(48.234558%, 59.214783%, 67.843628%)" stroke-opacity="1" stroke-miterlimit="10" d="M 8.783013 -0.0000326014 L 2.895195 2.238223 L 4.873367 -0.000962064 L 2.894246 -2.239199 Z M 8.783013 -0.0000326014 " transform="matrix(0.84114, 0.54073, 0.54073, -0.84114, 308.95993, 170.62964)"/>
<g fill="rgb(38.587952%, 47.370911%, 54.275513%)" fill-opacity="1">
<use xlink:href="#glyph-8-0" x="324.302" y="179.506"/>
</g>
<g fill="rgb(38.587952%, 47.370911%, 54.275513%)" fill-opacity="1">
<use xlink:href="#glyph-9-1" x="329.407" y="181.251"/>
</g>
<g fill="rgb(38.587952%, 47.370911%, 54.275513%)" fill-opacity="1">
<use xlink:href="#glyph-10-0" x="335.753" y="179.506"/>
</g>
<g fill="rgb(38.587952%, 47.370911%, 54.275513%)" fill-opacity="1">
<use xlink:href="#glyph-8-0" x="346.178593" y="179.506"/>
</g>
<g fill="rgb(38.587952%, 47.370911%, 54.275513%)" fill-opacity="1">
<use xlink:href="#glyph-11-0" x="351.478" y="175.89"/>
</g>
<path fill="none" stroke-width="1.79329" stroke-linecap="butt" stroke-linejoin="miter" stroke="rgb(48.234558%, 59.214783%, 67.843628%)" stroke-opacity="1" stroke-miterlimit="10" d="M 113.386 164.409719 L 133.956312 100.132375 " transform="matrix(1, 0, 0, -1, 125.739, 290.148)"/>
<path fill-rule="nonzero" fill="rgb(48.234558%, 59.214783%, 67.843628%)" fill-opacity="1" stroke-width="1.79329" stroke-linecap="butt" stroke-linejoin="miter" stroke="rgb(48.234558%, 59.214783%, 67.843628%)" stroke-opacity="1" stroke-miterlimit="10" d="M 8.786051 0.00165559 L 2.894582 2.239651 L 4.872298 -0.00102919 L 2.896673 -2.239929 Z M 8.786051 0.00165559 " transform="matrix(0.30476, 0.95238, 0.95238, -0.30476, 258.34813, 185.80472)"/>
<g fill="rgb(38.587952%, 47.370911%, 54.275513%)" fill-opacity="1">
<use xlink:href="#glyph-8-0" x="246.092" y="209.394"/>
</g>
<g fill="rgb(38.587952%, 47.370911%, 54.275513%)" fill-opacity="1">
<use xlink:href="#glyph-9-2" x="251.198" y="211.139"/>
</g>
<g fill="rgb(38.587952%, 47.370911%, 54.275513%)" fill-opacity="1">
<use xlink:href="#glyph-10-0" x="257.544" y="209.394"/>
</g>
<g fill="rgb(38.587952%, 47.370911%, 54.275513%)" fill-opacity="1">
<use xlink:href="#glyph-8-0" x="267.969593" y="209.394"/>
</g>
<g fill="rgb(38.587952%, 47.370911%, 54.275513%)" fill-opacity="1">
<use xlink:href="#glyph-11-0" x="273.269" y="205.778"/>
</g>
<path fill="none" stroke-width="1.49442" stroke-linecap="butt" stroke-linejoin="miter" stroke="rgb(56.469727%, 49.412537%, 62.745667%)" stroke-opacity="1" stroke-miterlimit="10" d="M 121.163344 140.112844 C 128.682875 142.519094 134.663344 148.273 137.362562 155.694875 " transform="matrix(1, 0, 0, -1, 125.739, 290.148)"/>
<g fill="rgb(56.469727%, 49.412537%, 62.745667%)" fill-opacity="1">
<use xlink:href="#glyph-10-1" x="220.221" y="165.307"/>
</g>
<g fill="rgb(56.469727%, 49.412537%, 62.745667%)" fill-opacity="1">
<use xlink:href="#glyph-12-0" x="231.184574" y="165.307"/>
<use xlink:href="#glyph-12-1" x="236.165874" y="165.307"/>
</g>
<path fill-rule="nonzero" fill="rgb(76.861572%, 47.840881%, 41.569519%)" fill-opacity="1" stroke-width="0.99628" stroke-linecap="butt" stroke-linejoin="miter" stroke="rgb(100%, 100%, 100%)" stroke-opacity="1" stroke-miterlimit="10" d="M 118.370375 164.409719 C 118.370375 167.163625 116.139906 169.394094 113.386 169.394094 C 110.636 169.394094 108.405531 167.163625 108.405531 164.409719 C 108.405531 161.659719 110.636 159.42925 113.386 159.42925 C 116.139906 159.42925 118.370375 161.659719 118.370375 164.409719 Z M 118.370375 164.409719 " transform="matrix(1, 0, 0, -1, 125.739, 290.148)"/>
<g fill="rgb(76.861572%, 47.840881%, 41.569519%)" fill-opacity="1">
<use xlink:href="#glyph-13-0" x="219.183" y="119.094"/>
</g>
<g fill="rgb(76.861572%, 47.840881%, 41.569519%)" fill-opacity="1">
<use xlink:href="#glyph-10-2" x="226.804" y="113.886"/>
</g>
<path fill-rule="nonzero" fill="rgb(97.645569%, 96.470642%, 94.119263%)" fill-opacity="1" stroke-width="0.99628" stroke-linecap="butt" stroke-linejoin="miter" stroke="rgb(83.137512%, 78.823853%, 72.155762%)" stroke-opacity="1" stroke-miterlimit="10" d="M 235.690687 -30.062938 L 76.124281 -30.062938 C 72.8235 -30.062938 70.143812 -32.742625 70.143812 -36.043406 L 70.143812 -66.00825 C 70.143812 -69.309031 72.8235 -71.984813 76.124281 -71.984813 L 235.690687 -71.984813 C 238.991469 -71.984813 241.671156 -69.309031 241.671156 -66.00825 L 241.671156 -36.043406 C 241.671156 -32.742625 238.991469 -30.062938 235.690687 -30.062938 Z M 235.690687 -30.062938 " transform="matrix(1, 0, 0, -1, 125.739, 290.148)"/>
<g fill="rgb(23.922729%, 20.783997%, 18.824768%)" fill-opacity="1">
<use xlink:href="#glyph-10-3" x="213.853" y="335.973"/>
</g>
<g fill="rgb(23.922729%, 20.783997%, 18.824768%)" fill-opacity="1">
<use xlink:href="#glyph-10-4" x="218.128975" y="335.973"/>
</g>
<g fill="rgb(23.922729%, 20.783997%, 18.824768%)" fill-opacity="1">
<use xlink:href="#glyph-8-1" x="226.659995" y="335.973"/>
</g>
<g fill="rgb(23.922729%, 20.783997%, 18.824768%)" fill-opacity="1">
<use xlink:href="#glyph-14-0" x="231.017906" y="335.973"/>
</g>
<g fill="rgb(23.922729%, 20.783997%, 18.824768%)" fill-opacity="1">
<use xlink:href="#glyph-8-0" x="235.463582" y="335.973"/>
</g>
<g fill="rgb(23.922729%, 20.783997%, 18.824768%)" fill-opacity="1">
<use xlink:href="#glyph-11-0" x="240.765" y="332.357"/>
</g>
<g fill="rgb(23.922729%, 20.783997%, 18.824768%)" fill-opacity="1">
<use xlink:href="#glyph-14-1" x="245.427" y="335.973"/>
</g>
<g fill="rgb(23.922729%, 20.783997%, 18.824768%)" fill-opacity="1">
<use xlink:href="#glyph-12-2" x="249.573798" y="335.973"/>
</g>
<g fill="rgb(23.922729%, 20.783997%, 18.824768%)" fill-opacity="1">
<use xlink:href="#glyph-8-0" x="256.786721" y="335.973"/>
</g>
<g fill="rgb(23.922729%, 20.783997%, 18.824768%)" fill-opacity="1">
<use xlink:href="#glyph-10-0" x="264.051863" y="335.973"/>
</g>
<g fill="rgb(23.922729%, 20.783997%, 18.824768%)" fill-opacity="1">
<use xlink:href="#glyph-8-0" x="274.477456" y="335.973"/>
</g>
<g fill="rgb(23.922729%, 20.783997%, 18.824768%)" fill-opacity="1">
<use xlink:href="#glyph-11-0" x="279.781" y="332.357"/>
</g>
<g fill="rgb(23.922729%, 20.783997%, 18.824768%)" fill-opacity="1">
<use xlink:href="#glyph-10-5" x="284.443" y="335.973"/>
</g>
<g fill="rgb(23.922729%, 20.783997%, 18.824768%)" fill-opacity="1">
<use xlink:href="#glyph-10-1" x="291.480348" y="335.973"/>
</g>
<g fill="rgb(23.922729%, 20.783997%, 18.824768%)" fill-opacity="1">
<use xlink:href="#glyph-12-1" x="302.443921" y="335.973"/>
</g>
<g fill="rgb(23.922729%, 20.783997%, 18.824768%)" fill-opacity="1">
<use xlink:href="#glyph-10-6" x="317.51565" y="335.973"/>
</g>
<g fill="rgb(23.922729%, 20.783997%, 18.824768%)" fill-opacity="1">
<use xlink:href="#glyph-8-0" x="325.35561" y="335.973"/>
</g>
<g fill="rgb(23.922729%, 20.783997%, 18.824768%)" fill-opacity="1">
<use xlink:href="#glyph-10-7" x="333.45124" y="335.973"/>
</g>
<g fill="rgb(23.922729%, 20.783997%, 18.824768%)" fill-opacity="1">
<use xlink:href="#glyph-10-8" x="343.382839" y="335.973"/>
</g>
<g fill="rgb(23.922729%, 20.783997%, 18.824768%)" fill-opacity="1">
<use xlink:href="#glyph-15-0" x="203.954" y="351.914"/>
</g>
<g fill="rgb(23.922729%, 20.783997%, 18.824768%)" fill-opacity="1">
<use xlink:href="#glyph-16-0" x="210.778832" y="351.914"/>
</g>
<g fill="rgb(23.922729%, 20.783997%, 18.824768%)" fill-opacity="1">
<use xlink:href="#glyph-17-0" x="214.273474" y="351.914"/>
</g>
<g fill="rgb(23.922729%, 20.783997%, 18.824768%)" fill-opacity="1">
<use xlink:href="#glyph-16-1" x="217.822054" y="351.914"/>
</g>
<g fill="rgb(23.922729%, 20.783997%, 18.824768%)" fill-opacity="1">
<use xlink:href="#glyph-18-0" x="222.063" y="349.021"/>
</g>
<g fill="rgb(23.922729%, 20.783997%, 18.824768%)" fill-opacity="1">
<use xlink:href="#glyph-17-1" x="225.85" y="351.914"/>
</g>
<g fill="rgb(23.922729%, 20.783997%, 18.824768%)" fill-opacity="1">
<use xlink:href="#glyph-15-1" x="231.479892" y="351.914"/>
</g>
<g fill="rgb(23.922729%, 20.783997%, 18.824768%)" fill-opacity="1">
<use xlink:href="#glyph-17-2" x="231.679209" y="351.914"/>
</g>
<g fill="rgb(23.922729%, 20.783997%, 18.824768%)" fill-opacity="1">
<use xlink:href="#glyph-19-0" x="240.45009" y="351.914"/>
</g>
<g fill="rgb(23.922729%, 20.783997%, 18.824768%)" fill-opacity="1">
<use xlink:href="#glyph-19-1" x="246.427665" y="351.914"/>
<use xlink:href="#glyph-19-2" x="250.83513" y="351.914"/>
<use xlink:href="#glyph-19-3" x="255.6411" y="351.914"/>
</g>
<g fill="rgb(23.922729%, 20.783997%, 18.824768%)" fill-opacity="1">
<use xlink:href="#glyph-19-4" x="260.231878" y="351.914"/>
<use xlink:href="#glyph-19-5" x="264.216928" y="351.914"/>
<use xlink:href="#glyph-19-5" x="266.536227" y="351.914"/>
</g>
<g fill="rgb(23.922729%, 20.783997%, 18.824768%)" fill-opacity="1">
<use xlink:href="#glyph-19-6" x="270.848051" y="351.914"/>
<use xlink:href="#glyph-19-7" x="273.502094" y="351.914"/>
<use xlink:href="#glyph-19-4" x="277.319772" y="351.914"/>
<use xlink:href="#glyph-19-8" x="281.304822" y="351.914"/>
<use xlink:href="#glyph-19-9" x="284.684145" y="351.914"/>
<use xlink:href="#glyph-19-1" x="287.003444" y="351.914"/>
<use xlink:href="#glyph-19-5" x="291.410909" y="351.914"/>
<use xlink:href="#glyph-19-7" x="293.730208" y="351.914"/>
</g>
<g fill="rgb(23.922729%, 20.783997%, 18.824768%)" fill-opacity="1">
<use xlink:href="#glyph-19-8" x="299.540411" y="351.914"/>
<use xlink:href="#glyph-19-3" x="302.919733" y="351.914"/>
<use xlink:href="#glyph-19-7" x="305.517986" y="351.914"/>
<use xlink:href="#glyph-19-10" x="309.335664" y="351.914"/>
<use xlink:href="#glyph-19-8" x="314.125694" y="351.914"/>
</g>
<g fill="rgb(23.922729%, 20.783997%, 18.824768%)" fill-opacity="1">
<use xlink:href="#glyph-19-11" x="319.497541" y="351.914"/>
<use xlink:href="#glyph-19-12" x="323.928917" y="351.914"/>
</g>
<g fill="rgb(23.922729%, 20.783997%, 18.824768%)" fill-opacity="1">
<use xlink:href="#glyph-19-13" x="330.273117" y="351.914"/>
<use xlink:href="#glyph-19-2" x="334.258167" y="351.914"/>
<use xlink:href="#glyph-19-10" x="339.064137" y="351.914"/>
<use xlink:href="#glyph-19-14" x="343.854167" y="351.914"/>
<use xlink:href="#glyph-19-9" x="348.492765" y="351.914"/>
<use xlink:href="#glyph-19-5" x="350.812064" y="351.914"/>
<use xlink:href="#glyph-19-5" x="353.131363" y="351.914"/>
<use xlink:href="#glyph-19-15" x="355.450662" y="351.914"/>
</g>
</svg>
