<?xml version="1.0" encoding="UTF-8"?>
<svg xmlns="http://www.w3.org/2000/svg" xmlns:xlink="http://www.w3.org/1999/xlink" width="620.68pt" height="450.601pt" viewBox="0 0 620.68 450.601">
<defs>
<g>
<g id="glyph-0-0">
<path d="M 5.4375 -11.703125 C 5.03125 -11.6875 3.84375 -11.671875 3.5625 -11.671875 C 3.328125 -11.671875 2.828125 -11.671875 2.03125 -11.6875 L 0.671875 -11.71875 L 0.671875 -11.09375 L 1.3125 -11.03125 C 2.078125 -10.96875 2.140625 -10.859375 2.140625 -9.34375 L 2.140625 -1.640625 C 2.140625 -1.046875 2.046875 -0.796875 1.796875 -0.65625 L 1.234375 -0.34375 L 1.234375 0.046875 C 2.484375 0.015625 2.921875 0 3.40625 0 C 3.671875 0 4.03125 0 4.4375 0.015625 C 5.34375 0.03125 5.796875 0.046875 5.859375 0.046875 C 8.609375 0.046875 10.515625 -1.5 10.515625 -3.71875 C 10.515625 -4.625 10.171875 -5.390625 9.578125 -5.8125 C 8.953125 -6.25 8.375 -6.40625 6.984375 -6.484375 C 8.4375 -7.015625 8.9375 -7.25 9.46875 -7.75 C 9.890625 -8.125 10.125 -8.75 10.125 -9.40625 C 10.125 -10.96875 9.0625 -11.71875 6.875 -11.71875 Z M 4.5625 -5.984375 L 5.078125 -5.984375 C 7.078125 -5.984375 7.9375 -5.234375 7.9375 -3.484375 C 7.9375 -1.6875 7.125 -0.890625 5.296875 -0.890625 C 5.046875 -0.890625 4.859375 -0.90625 4.5625 -0.96875 Z M 4.5625 -10.796875 C 4.96875 -10.84375 5.234375 -10.859375 5.5625 -10.859375 C 6.953125 -10.859375 7.578125 -10.296875 7.578125 -9.015625 C 7.578125 -7.53125 6.8125 -6.890625 5.078125 -6.890625 L 4.5625 -6.890625 Z M 4.5625 -10.796875 "/>
</g>
<g id="glyph-0-1">
<path d="M 3.671875 -8.109375 L 2.46875 -7.734375 C 1.90625 -7.5625 1.59375 -7.5 0.515625 -7.375 L 0.515625 -6.75 L 1.296875 -6.703125 C 1.6875 -6.65625 1.734375 -6.515625 1.734375 -5.5 L 1.734375 -1.71875 C 1.734375 -0.796875 1.65625 -0.65625 1.125 -0.625 L 0.515625 -0.578125 L 0.515625 0.046875 L 2.734375 0 C 2.96875 0 3.015625 0 5.34375 0.046875 L 5.34375 -0.578125 L 4.671875 -0.625 C 3.921875 -0.65625 3.84375 -0.75 3.84375 -1.71875 L 3.84375 -5.125 C 3.84375 -5.671875 4.546875 -6.234375 5.21875 -6.234375 C 5.640625 -6.234375 5.953125 -6.03125 6.203125 -5.609375 L 6.609375 -5.78125 L 6.703125 -8 C 6.53125 -8.078125 6.296875 -8.109375 6.0625 -8.109375 C 5.578125 -8.109375 5.25 -7.90625 4.59375 -7.203125 L 3.84375 -6.375 L 3.84375 -8 Z M 3.671875 -8.109375 "/>
</g>
<g id="glyph-0-2">
<path d="M 7.9375 -5.078125 C 7.9375 -6.921875 6.640625 -8.109375 4.6875 -8.109375 C 4.078125 -8.109375 3.640625 -7.984375 3.171875 -7.71875 L 2.359375 -7.234375 C 1.21875 -6.5625 0.71875 -5.53125 0.71875 -3.890625 C 0.71875 -1.15625 2.09375 0.296875 4.671875 0.296875 C 5.640625 0.296875 6.28125 0.125 7.390625 -0.453125 L 7.765625 -1.28125 L 7.5625 -1.53125 C 6.75 -1.078125 6.234375 -0.9375 5.546875 -0.9375 C 4.65625 -0.9375 3.8125 -1.40625 3.375 -2.15625 C 3.09375 -2.640625 3 -3.03125 2.96875 -3.84375 L 5.21875 -3.84375 C 6.203125 -3.84375 6.96875 -3.9375 7.9375 -4.1875 Z M 4.3125 -4.703125 L 4.234375 -4.703125 C 4.125 -4.703125 3.671875 -4.71875 3.40625 -4.734375 L 2.859375 -4.75 C 2.90625 -6.453125 3.328125 -7.140625 4.328125 -7.140625 C 5.296875 -7.140625 5.71875 -6.453125 5.75 -4.75 Z M 4.3125 -4.703125 "/>
</g>
<g id="glyph-0-3">
<path d="M 9.109375 -6.34375 L 9.1875 -7.4375 C 8.484375 -7.375 8.15625 -7.359375 7.78125 -7.359375 C 7.640625 -7.359375 7.4375 -7.359375 7.15625 -7.375 C 6.453125 -7.890625 5.640625 -8.109375 4.546875 -8.109375 C 2.34375 -8.109375 0.8125 -6.828125 0.8125 -5.03125 C 0.8125 -4.390625 1.03125 -3.828125 1.453125 -3.375 C 1.78125 -3.03125 2.03125 -2.875 2.640625 -2.671875 L 1.40625 -1.734375 C 1.234375 -1.625 1.125 -1.25 1.125 -0.90625 C 1.125 -0.296875 1.421875 0.015625 2.296875 0.234375 L 0.890625 1.0625 C 0.640625 1.21875 0.453125 1.671875 0.453125 2.140625 C 0.453125 3.640625 1.890625 4.578125 4.171875 4.578125 C 7.1875 4.578125 9.21875 3.015625 9.21875 0.71875 C 9.21875 -0.71875 8.40625 -1.40625 6.65625 -1.40625 L 6.25 -1.40625 C 4.546875 -1.359375 3.921875 -1.34375 3.734375 -1.34375 C 3.203125 -1.34375 2.921875 -1.515625 2.921875 -1.859375 C 2.921875 -2.125 3.078125 -2.328125 3.421875 -2.53125 C 3.734375 -2.515625 3.90625 -2.5 4.109375 -2.5 C 5.296875 -2.5 6.40625 -2.890625 7.109375 -3.59375 C 7.640625 -4.125 7.875 -4.734375 7.875 -5.59375 C 7.875 -5.875 7.859375 -6.078125 7.78125 -6.40625 Z M 4.34375 -7.25 C 5.25 -7.25 5.75 -6.515625 5.75 -5.140625 C 5.75 -3.921875 5.28125 -3.28125 4.375 -3.28125 C 3.484375 -3.28125 2.921875 -4.0625 2.921875 -5.359375 C 2.921875 -6.59375 3.40625 -7.25 4.34375 -7.25 Z M 4.6875 0.265625 C 6.78125 0.265625 7.296875 0.53125 7.296875 1.640625 C 7.296875 2.828125 6.140625 3.71875 4.609375 3.71875 C 3.078125 3.71875 2.0625 3 2.0625 1.921875 C 2.0625 1.296875 2.421875 0.703125 2.9375 0.453125 C 3.21875 0.328125 3.84375 0.265625 4.6875 0.265625 Z M 4.6875 0.265625 "/>
</g>
<g id="glyph-0-4">
<path d="M 0.40625 -6.75 L 1.1875 -6.703125 C 1.578125 -6.65625 1.640625 -6.515625 1.640625 -5.5 L 1.640625 -1.71875 C 1.640625 -0.796875 1.546875 -0.65625 1.015625 -0.625 L 0.40625 -0.578125 L 0.40625 0.046875 L 2.640625 0 C 3.03125 0 3.765625 0.015625 4.828125 0.046875 L 4.828125 -0.578125 L 4.359375 -0.625 C 3.8125 -0.65625 3.734375 -0.796875 3.734375 -1.71875 L 3.734375 -5.453125 C 3.734375 -6.03125 4.4375 -6.625 5.125 -6.625 C 6.125 -6.625 6.609375 -5.96875 6.609375 -4.625 L 6.609375 -1.71875 C 6.609375 -0.796875 6.546875 -0.65625 5.984375 -0.625 L 5.453125 -0.578125 L 5.453125 0.046875 C 7.25 0 7.25 0 7.671875 0 C 8.09375 0 8.09375 0 9.9375 0.046875 L 9.9375 -0.578125 L 9.328125 -0.625 C 8.796875 -0.65625 8.71875 -0.796875 8.71875 -1.71875 L 8.71875 -5.453125 C 8.71875 -6.03125 9.421875 -6.625 10.109375 -6.625 C 11.109375 -6.625 11.59375 -5.96875 11.59375 -4.625 L 11.59375 0.046875 L 13.1875 0 C 14.046875 0.015625 14.171875 0.015625 14.875 0.046875 L 14.875 -0.578125 L 14.3125 -0.625 C 13.78125 -0.65625 13.6875 -0.796875 13.6875 -1.71875 L 13.6875 -4.921875 C 13.6875 -7.296875 13.0625 -8.109375 11.234375 -8.109375 C 10.65625 -8.109375 10.28125 -8 9.984375 -7.78125 L 8.609375 -6.71875 C 8.21875 -7.703125 7.53125 -8.109375 6.34375 -8.109375 C 5.78125 -8.109375 5.40625 -8 5.109375 -7.78125 L 3.734375 -6.71875 L 3.734375 -8 L 3.640625 -8.109375 C 1.84375 -7.53125 1.359375 -7.421875 0.40625 -7.375 Z M 0.40625 -6.75 "/>
</g>
<g id="glyph-0-5">
<path d="M 5.140625 -1.15625 L 5.0625 -0.09375 L 5.140625 0.046875 C 6.21875 0.015625 6.515625 0 6.71875 0 C 6.921875 0 7.203125 0.015625 8.234375 0.046875 L 8.234375 -0.578125 L 7.71875 -0.640625 C 7.328125 -0.703125 7.25 -0.875 7.234375 -1.6875 L 7.234375 -2.046875 C 7.21875 -2.59375 7.203125 -3.078125 7.203125 -3.5 C 7.203125 -3.953125 7.21875 -4.515625 7.234375 -5.171875 C 7.25 -5.390625 7.25 -5.546875 7.25 -5.671875 C 7.25 -7.203125 6.21875 -8.109375 4.484375 -8.109375 C 3.75 -8.109375 3.046875 -7.921875 2.40625 -7.53125 L 1.5 -6.96875 L 1.5 -5.78125 L 2.015625 -5.671875 L 2.390625 -6.53125 C 2.4375 -6.640625 2.921875 -6.765625 3.390625 -6.765625 C 4.546875 -6.765625 5.09375 -6.140625 5.140625 -4.734375 L 3.640625 -4.421875 C 1.46875 -3.984375 0.6875 -3.3125 0.6875 -1.84375 C 0.6875 -0.453125 1.390625 0.296875 2.703125 0.296875 C 3.078125 0.296875 3.375 0.21875 3.546875 0.09375 Z M 5.140625 -1.984375 C 4.828125 -1.53125 4.1875 -1.203125 3.671875 -1.203125 C 3.109375 -1.203125 2.796875 -1.625 2.796875 -2.296875 C 2.796875 -3.140625 3.15625 -3.484375 4.375 -3.8125 L 5.140625 -4.015625 Z M 5.140625 -1.984375 "/>
</g>
<g id="glyph-0-6">
<path d="M 0.40625 -6.75 L 1.1875 -6.703125 C 1.578125 -6.65625 1.640625 -6.515625 1.640625 -5.5 L 1.640625 -1.71875 C 1.640625 -0.796875 1.546875 -0.65625 1.015625 -0.625 L 0.40625 -0.578125 L 0.40625 0.046875 L 2.640625 0 C 2.984375 0 3.8125 0.015625 4.953125 0.046875 L 4.953125 -0.578125 L 4.359375 -0.625 C 3.828125 -0.65625 3.734375 -0.796875 3.734375 -1.71875 L 3.734375 -5.453125 C 3.734375 -6.0625 4.4375 -6.625 5.203125 -6.625 C 6.34375 -6.625 6.8125 -6.03125 6.8125 -4.65625 L 6.8125 0.046875 C 7.796875 0.015625 8.09375 0 8.375 0 C 8.609375 0 8.609375 0 10.109375 0.046875 L 10.109375 -0.578125 L 9.546875 -0.625 C 9 -0.65625 8.921875 -0.796875 8.921875 -1.71875 L 8.921875 -4.921875 C 8.921875 -6.25 8.765625 -6.90625 8.3125 -7.390625 C 7.875 -7.859375 7.15625 -8.109375 6.3125 -8.109375 C 5.796875 -8.109375 5.390625 -8 5.109375 -7.78125 L 3.734375 -6.71875 L 3.734375 -8 L 3.640625 -8.109375 C 1.84375 -7.53125 1.359375 -7.421875 0.40625 -7.375 Z M 0.40625 -6.75 "/>
</g>
<g id="glyph-0-7">
<path d="M 1.171875 -0.34375 L 1.171875 0.046875 C 3.515625 0 3.515625 0 3.84375 0 C 4.15625 0 5.078125 0.015625 5.515625 0.03125 L 6.53125 0.046875 C 8.578125 0.046875 10.453125 -0.671875 11.75 -1.953125 C 12.9375 -3.09375 13.53125 -4.625 13.53125 -6.46875 C 13.53125 -8.109375 13.0625 -9.453125 12.203125 -10.296875 C 11.203125 -11.296875 9.828125 -11.703125 7.5 -11.71875 C 4.828125 -11.6875 3.4375 -11.671875 3.390625 -11.671875 C 3.171875 -11.671875 3.171875 -11.671875 0.609375 -11.71875 L 0.609375 -11.09375 L 1.234375 -11.03125 C 2.015625 -10.96875 2.0625 -10.859375 2.0625 -9.34375 L 2.0625 -1.640625 C 2.0625 -1.0625 1.984375 -0.796875 1.71875 -0.65625 Z M 4.5 -10.796875 C 4.90625 -10.84375 5.1875 -10.859375 5.578125 -10.859375 C 7.59375 -10.859375 8.96875 -10.453125 9.8125 -9.625 C 10.59375 -8.875 10.953125 -7.703125 10.953125 -5.984375 C 10.953125 -4.25 10.515625 -2.9375 9.6875 -2.125 C 8.828125 -1.28125 7.609375 -0.890625 5.671875 -0.890625 C 5.234375 -0.890625 4.921875 -0.90625 4.5 -0.984375 Z M 4.5 -10.796875 "/>
</g>
<g id="glyph-0-8">
<path d="M 3.734375 -8.109375 L 2.53125 -7.734375 C 1.984375 -7.5625 1.5625 -7.484375 0.84375 -7.40625 C 0.796875 -7.40625 0.703125 -7.390625 0.578125 -7.375 L 0.578125 -6.75 L 1.359375 -6.703125 C 1.75 -6.65625 1.8125 -6.515625 1.8125 -5.5 L 1.8125 -1.71875 C 1.8125 -0.796875 1.71875 -0.65625 1.1875 -0.625 L 0.578125 -0.578125 L 0.578125 0.046875 L 2.8125 0 C 3.15625 0 3.984375 0.015625 5.125 0.046875 L 5.125 -0.578125 L 4.53125 -0.625 C 4 -0.65625 3.90625 -0.796875 3.90625 -1.71875 L 3.90625 -8 Z M 2.8125 -12.15625 C 2.0625 -12.15625 1.5 -11.609375 1.5 -10.875 C 1.5 -10.15625 2.0625 -9.578125 2.796875 -9.578125 C 3.5 -9.578125 4.078125 -10.15625 4.078125 -10.859375 C 4.078125 -11.578125 3.515625 -12.15625 2.8125 -12.15625 Z M 2.8125 -12.15625 "/>
</g>
<g id="glyph-0-9">
<path d="M 3.90625 0.046875 L 5.390625 0.046875 C 5.671875 -0.71875 5.84375 -1.15625 6.046875 -1.625 L 8.25 -6.578125 C 8.40625 -6.953125 8.578125 -7.109375 8.875 -7.15625 L 9.390625 -7.25 L 9.390625 -7.90625 L 7.734375 -7.859375 C 6.859375 -7.875 6.703125 -7.875 6.0625 -7.90625 L 6.0625 -7.25 L 6.71875 -7.21875 C 6.953125 -7.203125 7.109375 -7.078125 7.109375 -6.921875 C 7.109375 -6.71875 7.0625 -6.46875 6.953125 -6.21875 L 5.90625 -3.609375 C 5.75 -3.234375 5.59375 -2.875 5.296875 -2.234375 L 3.78125 -6.046875 C 3.609375 -6.46875 3.546875 -6.734375 3.546875 -6.921875 C 3.546875 -7.09375 3.6875 -7.203125 3.9375 -7.21875 L 4.65625 -7.25 L 4.65625 -7.90625 L 2.421875 -7.859375 C 2.203125 -7.859375 1.921875 -7.859375 0.1875 -7.90625 L 0.1875 -7.25 L 0.625 -7.21875 C 0.90625 -7.1875 1.140625 -6.890625 1.453125 -6.140625 Z M 3.90625 0.046875 "/>
</g>
<g id="glyph-0-10">
<path d="M 6.71875 -5.109375 C 6.8125 -6.21875 6.90625 -6.78125 7.0625 -7.546875 L 6.9375 -7.765625 C 6.140625 -8.046875 5.78125 -8.109375 5.171875 -8.109375 C 4.515625 -8.109375 4.03125 -7.984375 3.609375 -7.75 L 2.71875 -7.21875 C 1.1875 -6.296875 0.640625 -5.4375 0.640625 -3.9375 C 0.640625 -1.203125 2 0.296875 4.453125 0.296875 C 5.328125 0.296875 5.953125 0.140625 6.765625 -0.296875 L 7.125 -1.078125 L 6.96875 -1.25 C 6.390625 -1.015625 6.015625 -0.9375 5.515625 -0.9375 C 3.828125 -0.9375 2.765625 -2.296875 2.765625 -4.484375 C 2.765625 -6.046875 3.359375 -6.890625 4.453125 -6.890625 C 5.234375 -6.890625 5.921875 -6.546875 5.96875 -6.140625 L 6.09375 -5.109375 Z M 6.71875 -5.109375 "/>
</g>
<g id="glyph-0-11">
<path d="M 2.171875 -2.484375 C 1.453125 -2.484375 0.8125 -1.84375 0.8125 -1.125 C 0.8125 -0.390625 1.421875 0.203125 2.140625 0.203125 C 2.859375 0.203125 3.5 -0.40625 3.5 -1.125 C 3.5 -1.828125 2.859375 -2.484375 2.171875 -2.484375 Z M 2.171875 -7.8125 C 1.453125 -7.8125 0.8125 -7.1875 0.8125 -6.453125 C 0.8125 -5.734375 1.421875 -5.125 2.140625 -5.125 C 2.859375 -5.125 3.5 -5.75 3.5 -6.453125 C 3.5 -7.15625 2.859375 -7.8125 2.171875 -7.8125 Z M 2.171875 -7.8125 "/>
</g>
<g id="glyph-0-12">
<path d="M 13.359375 -4.75 C 11.234375 -4.703125 11.234375 -4.703125 10.78125 -4.703125 C 10.390625 -4.703125 9.71875 -4.71875 8.3125 -4.75 L 8.3125 -4.046875 L 9.234375 -4.015625 C 9.953125 -3.984375 10.203125 -3.828125 10.203125 -3.375 L 10.203125 -1.109375 C 9.328125 -0.78125 8.765625 -0.671875 8.03125 -0.671875 C 5.25 -0.671875 3.390625 -2.890625 3.390625 -6.171875 C 3.390625 -9.1875 5.046875 -11 7.859375 -11 C 8.734375 -11 9.640625 -10.828125 10.390625 -10.5 C 10.8125 -10.328125 10.96875 -10.203125 11.375 -9.8125 L 11.46875 -8.328125 L 12.140625 -8.328125 C 12.328125 -9.984375 12.375 -10.3125 12.53125 -10.96875 L 12.4375 -11.15625 C 10.859375 -11.75 9.625 -11.96875 7.9375 -11.96875 C 3.53125 -11.96875 0.8125 -9.671875 0.8125 -5.953125 C 0.8125 -2.171875 3.46875 0.296875 7.546875 0.296875 C 9.28125 0.296875 10.59375 0.03125 12.65625 -0.734375 L 12.65625 -3.546875 C 12.65625 -3.953125 12.71875 -4.03125 13.359375 -4.171875 Z M 13.359375 -4.75 "/>
</g>
<g id="glyph-0-13">
<path d="M 4.9375 -8.109375 C 2.203125 -8.109375 0.6875 -6.59375 0.6875 -3.859375 C 0.6875 -1.203125 2.09375 0.296875 4.59375 0.296875 C 7.359375 0.296875 8.90625 -1.28125 8.90625 -4.0625 C 8.90625 -6.6875 7.484375 -8.109375 4.9375 -8.109375 Z M 4.734375 -7.28125 C 5.96875 -7.28125 6.5625 -6.0625 6.5625 -3.53125 C 6.5625 -1.421875 6.078125 -0.53125 4.90625 -0.53125 C 3.671875 -0.53125 3.03125 -1.796875 3.03125 -4.265625 C 3.03125 -6.359375 3.546875 -7.28125 4.734375 -7.28125 Z M 4.734375 -7.28125 "/>
</g>
<g id="glyph-0-14">
<path d="M 5.578125 -1.03125 L 5.4375 -1.359375 C 5.09375 -1.1875 4.921875 -1.140625 4.65625 -1.140625 C 3.84375 -1.140625 3.578125 -1.40625 3.578125 -2.25 L 3.578125 -6.359375 L 5.40625 -6.359375 L 5.546875 -7.46875 L 3.578125 -7.375 L 3.578125 -8.375 C 3.578125 -9.28125 3.640625 -9.84375 3.78125 -10.703125 L 3.546875 -10.875 C 2.859375 -10.5625 2.328125 -10.34375 1.453125 -10.015625 C 1.5 -9.125 1.515625 -8.796875 1.515625 -8.4375 L 1.515625 -7.40625 L 0.375 -6.65625 L 0.375 -6.28125 L 1.484375 -6.359375 L 1.484375 -1.890625 C 1.484375 -0.359375 2.125 0.296875 3.609375 0.296875 C 4.15625 0.296875 4.578125 0.171875 4.734375 -0.015625 Z M 5.578125 -1.03125 "/>
</g>
<g id="glyph-0-15">
<path d="M 4.5625 -9.34375 C 4.5625 -10.875 4.578125 -10.921875 5.390625 -10.984375 L 6.03125 -11.03125 L 6.03125 -11.71875 C 3.921875 -11.671875 3.921875 -11.671875 3.34375 -11.671875 C 2.75 -11.671875 2.734375 -11.671875 0.671875 -11.71875 L 0.671875 -11.03125 L 1.3125 -10.984375 C 2.125 -10.921875 2.140625 -10.875 2.140625 -9.34375 L 2.140625 -2.328125 C 2.140625 -0.796875 2.125 -0.75 1.3125 -0.6875 L 0.671875 -0.640625 L 0.671875 0.046875 C 2.75 0 2.75 0 3.34375 0 C 3.921875 0 3.9375 0 6.03125 0.046875 L 6.03125 -0.640625 L 5.390625 -0.6875 C 4.578125 -0.75 4.5625 -0.796875 4.5625 -2.328125 Z M 4.5625 -9.34375 "/>
</g>
<g id="glyph-0-16">
<path d="M 3.65625 -8.109375 L 2.4375 -7.734375 C 1.859375 -7.5625 1.5625 -7.5 0.6875 -7.390625 L 0.5 -7.375 L 0.5 -6.75 L 1.28125 -6.703125 C 1.671875 -6.65625 1.71875 -6.515625 1.71875 -5.5 L 1.71875 2.671875 C 1.71875 3.59375 1.640625 3.734375 1.109375 3.765625 L 0.5 3.8125 L 0.5 4.4375 L 2.71875 4.390625 C 2.9375 4.390625 2.984375 4.390625 5.21875 4.4375 L 5.21875 3.8125 L 4.4375 3.765625 C 3.90625 3.75 3.828125 3.59375 3.828125 2.671875 L 3.828125 0 C 4.671875 0.234375 4.9375 0.296875 5.359375 0.296875 C 5.9375 0.296875 6.546875 -0.015625 7.71875 -0.953125 C 7.8125 -1.015625 7.921875 -1.109375 8 -1.171875 C 9.140625 -2.03125 9.765625 -3.375 9.765625 -4.921875 C 9.765625 -6.75 8.4375 -8.109375 6.640625 -8.109375 C 5.96875 -8.109375 5.46875 -7.921875 4.875 -7.4375 L 3.828125 -6.59375 L 3.828125 -8 Z M 3.828125 -5.703125 C 4.203125 -6.265625 4.765625 -6.5625 5.46875 -6.5625 C 6.796875 -6.5625 7.59375 -5.53125 7.59375 -3.8125 C 7.59375 -2.015625 6.8125 -0.875 5.5625 -0.875 C 4.84375 -0.875 4.28125 -1.171875 3.828125 -1.828125 Z M 3.828125 -5.703125 "/>
</g>
<g id="glyph-1-0">
<path d="M 1.328125 -2.171875 C 1.328125 -3.765625 2.34375 -5.515625 3.4375 -6.125 C 3.609375 -6.203125 3.859375 -6.28125 4.140625 -6.328125 C 4.28125 -6.453125 4.28125 -6.453125 4.359375 -6.578125 C 4.3125 -6.734375 4.265625 -6.75 4.21875 -6.75 C 3.90625 -6.75 3.34375 -6.484375 2.890625 -6.265625 C 1.1875 -5.4375 0.25 -3.96875 0.25 -2.1875 C 0.25 -0.640625 1.140625 0.15625 2.828125 0.15625 C 2.90625 0.15625 3 0.15625 3.078125 0.140625 C 2.921875 0.984375 2.6875 2.1875 2.421875 3.34375 L 2.3125 3.875 L 2.40625 3.953125 C 2.71875 3.859375 3 3.78125 3.453125 3.71875 L 4.046875 0.015625 C 4.734375 -0.140625 5.40625 -0.421875 5.96875 -0.78125 C 7.25 -1.640625 8.140625 -3.265625 8.140625 -4.75 C 8.140625 -5.09375 8.0625 -5.390625 7.953125 -5.671875 C 7.765625 -6.09375 7.140625 -6.90625 6.75 -6.90625 C 6.421875 -6.90625 6.0625 -6.8125 5.75 -6.640625 C 5.203125 -6.328125 4.546875 -5.796875 4.1875 -5.390625 C 4.046875 -5.234375 3.9375 -4.96875 3.90625 -4.734375 L 3.171875 -0.40625 C 2.015625 -0.515625 1.328125 -1.140625 1.328125 -2.171875 Z M 5.25 -0.859375 C 4.953125 -0.640625 4.5625 -0.484375 4.109375 -0.421875 C 4.21875 -0.96875 4.34375 -1.6875 4.421875 -2.125 C 4.59375 -3.25 4.9375 -5.578125 5.28125 -5.859375 C 5.453125 -6.078125 5.859375 -6.203125 6.328125 -6.203125 C 6.71875 -6.203125 7.0625 -5.28125 7.0625 -4.515625 C 7.046875 -3.125 6.25 -1.625 5.25 -0.859375 Z M 5.25 -0.859375 "/>
</g>
<g id="glyph-2-0">
<path d="M 4.953125 3.59375 C 4.953125 3.546875 4.953125 3.515625 4.6875 3.265625 C 2.828125 1.375 2.34375 -1.453125 2.34375 -3.734375 C 2.34375 -6.34375 2.921875 -8.9375 4.75 -10.8125 C 4.953125 -10.984375 4.953125 -11.015625 4.953125 -11.0625 C 4.953125 -11.171875 4.890625 -11.21875 4.796875 -11.21875 C 4.65625 -11.21875 3.296875 -10.203125 2.421875 -8.296875 C 1.65625 -6.65625 1.484375 -5 1.484375 -3.734375 C 1.484375 -2.578125 1.640625 -0.765625 2.46875 0.921875 C 3.359375 2.765625 4.65625 3.734375 4.796875 3.734375 C 4.890625 3.734375 4.953125 3.6875 4.953125 3.59375 Z M 4.953125 3.59375 "/>
</g>
<g id="glyph-2-1">
<path d="M 4.328125 -3.734375 C 4.328125 -4.90625 4.15625 -6.71875 3.328125 -8.40625 C 2.4375 -10.25 1.15625 -11.21875 1 -11.21875 C 0.90625 -11.21875 0.859375 -11.15625 0.859375 -11.0625 C 0.859375 -11.015625 0.859375 -10.984375 1.140625 -10.71875 C 2.609375 -9.234375 3.453125 -6.859375 3.453125 -3.734375 C 3.453125 -1.1875 2.90625 1.453125 1.046875 3.328125 C 0.859375 3.515625 0.859375 3.546875 0.859375 3.59375 C 0.859375 3.671875 0.90625 3.734375 1 3.734375 C 1.15625 3.734375 2.5 2.71875 3.375 0.828125 C 4.140625 -0.828125 4.328125 -2.484375 4.328125 -3.734375 Z M 4.328125 -3.734375 "/>
</g>
<g id="glyph-3-0">
<path d="M 0.296875 -1.265625 C 0.296875 -0.96875 0.265625 -0.78125 0.1875 -0.328125 C 0.15625 -0.15625 0.140625 -0.109375 0.125 -0.015625 C 0.34375 0.09375 0.578125 0.15625 0.75 0.15625 C 1.21875 0.15625 1.78125 -0.265625 2.21875 -0.9375 L 3.3125 -2.609375 L 3.46875 -1.625 C 3.65625 -0.40625 3.984375 0.15625 4.5 0.15625 C 4.8125 0.15625 5.28125 -0.09375 5.734375 -0.5 L 6.4375 -1.140625 L 6.3125 -1.40625 C 5.796875 -0.96875 5.4375 -0.765625 5.203125 -0.765625 C 4.984375 -0.765625 4.8125 -0.90625 4.65625 -1.1875 C 4.53125 -1.46875 4.375 -2 4.296875 -2.40625 L 4.046875 -3.859375 L 4.546875 -4.5625 C 5.21875 -5.5 5.609375 -5.828125 6.046875 -5.828125 C 6.28125 -5.828125 6.453125 -5.703125 6.53125 -5.5 L 6.734375 -5.546875 L 6.9375 -6.765625 C 6.765625 -6.875 6.640625 -6.90625 6.515625 -6.90625 C 5.9375 -6.90625 5.359375 -6.390625 4.46875 -5.078125 L 3.9375 -4.28125 L 3.859375 -4.984375 C 3.6875 -6.390625 3.296875 -6.90625 2.453125 -6.90625 C 2.078125 -6.90625 1.765625 -6.796875 1.640625 -6.609375 L 0.796875 -5.421875 L 1.046875 -5.28125 C 1.484375 -5.765625 1.765625 -5.96875 2.03125 -5.96875 C 2.515625 -5.96875 2.828125 -5.375 3.0625 -3.96875 L 3.234375 -3.078125 L 2.65625 -2.1875 C 2.03125 -1.234375 1.546875 -0.78125 1.140625 -0.78125 C 0.9375 -0.78125 0.78125 -0.828125 0.75 -0.90625 L 0.59375 -1.3125 Z M 0.296875 -1.265625 "/>
</g>
<g id="glyph-3-1">
<path d="M -0.09375 2.578125 C -0.109375 2.6875 -0.109375 2.765625 -0.109375 2.84375 C -0.109375 3.453125 0.421875 3.953125 1.0625 3.953125 C 2.578125 3.953125 4.15625 2.1875 5 -0.46875 L 7.03125 -6.78125 L 6.875 -6.90625 C 6.453125 -6.75 6.125 -6.671875 5.8125 -6.640625 L 5.3125 -4.75 C 5.140625 -4.078125 4.640625 -3.03125 4.15625 -2.328125 C 3.65625 -1.59375 2.953125 -0.96875 2.640625 -0.96875 C 2.46875 -0.96875 2.34375 -1.296875 2.359375 -1.65625 L 2.359375 -1.84375 L 2.578125 -4.625 C 2.609375 -5.0625 2.640625 -5.609375 2.640625 -6.015625 C 2.640625 -6.65625 2.53125 -6.90625 2.296875 -6.90625 C 2.109375 -6.90625 1.90625 -6.8125 1.21875 -6.34375 L 0.046875 -5.53125 L 0.203125 -5.28125 L 0.921875 -5.703125 L 0.96875 -5.75 C 1.125 -5.84375 1.21875 -5.875 1.28125 -5.875 C 1.484375 -5.875 1.59375 -5.609375 1.59375 -5.140625 C 1.59375 -5.125 1.59375 -5.03125 1.578125 -4.921875 L 1.328125 -1.4375 L 1.3125 -0.859375 C 1.3125 -0.265625 1.578125 0.15625 1.9375 0.15625 C 2.46875 0.15625 3.671875 -1.0625 4.75 -2.6875 L 4.046875 -0.234375 C 3.3125 2.3125 2.59375 3.359375 1.59375 3.359375 C 1.09375 3.359375 0.703125 2.96875 0.703125 2.46875 C 0.703125 2.390625 0.71875 2.28125 0.734375 2.15625 L 0.59375 2.09375 Z M -0.09375 2.578125 "/>
</g>
<g id="glyph-3-2">
<path d="M 0.46875 -0.328125 L 0.40625 0.046875 L 1.734375 0 L 2.53125 0 C 2.796875 0 3.25 0.015625 3.875 0.03125 C 4.15625 0.046875 4.375 0.046875 4.53125 0.046875 C 5.5625 0.046875 6.265625 -0.109375 7.015625 -0.484375 C 9.25 -1.640625 10.625 -3.796875 10.625 -6.1875 C 10.625 -7.59375 10.203125 -8.59375 9.328125 -9.203125 C 8.65625 -9.6875 7.4375 -9.9375 6.078125 -9.921875 L 3.15625 -9.890625 L 3.015625 -9.890625 C 2.890625 -9.890625 2.84375 -9.890625 1.390625 -9.921875 L 1.34375 -9.53125 L 2.109375 -9.5 C 2.453125 -9.484375 2.609375 -9.359375 2.609375 -9.109375 C 2.609375 -8.90625 2.546875 -8.453125 2.484375 -8.015625 L 1.234375 -0.78125 C 1.1875 -0.5625 1.03125 -0.4375 0.59375 -0.359375 Z M 3.84375 -9.328125 C 4.0625 -9.328125 4.125 -9.34375 4.515625 -9.359375 C 4.96875 -9.375 5.25 -9.390625 5.515625 -9.390625 C 8.125 -9.390625 9.3125 -8.3125 9.3125 -5.953125 C 9.3125 -4.28125 8.765625 -2.765625 7.78125 -1.78125 C 7.015625 -0.984375 5.96875 -0.59375 4.71875 -0.59375 C 4.09375 -0.59375 3.390625 -0.65625 2.40625 -0.796875 C 2.40625 -0.96875 2.421875 -1.078125 2.46875 -1.328125 Z M 3.84375 -9.328125 "/>
</g>
<g id="glyph-4-0">
<path d="M 0.921875 -1.5 C 0.921875 -2.625 1.625 -3.84375 2.390625 -4.25 C 2.515625 -4.3125 2.6875 -4.359375 2.875 -4.390625 C 2.984375 -4.484375 2.96875 -4.484375 3.03125 -4.578125 C 3 -4.6875 2.953125 -4.6875 2.9375 -4.6875 C 2.71875 -4.6875 2.328125 -4.5 2.015625 -4.359375 C 0.828125 -3.78125 0.171875 -2.765625 0.171875 -1.515625 C 0.171875 -0.453125 0.796875 0.109375 1.96875 0.109375 C 2.03125 0.109375 2.078125 0.109375 2.140625 0.09375 C 2.03125 0.6875 1.859375 1.515625 1.6875 2.328125 L 1.609375 2.6875 L 1.671875 2.75 C 1.890625 2.6875 2.078125 2.625 2.40625 2.578125 L 2.8125 0.015625 C 3.296875 -0.09375 3.765625 -0.296875 4.140625 -0.546875 C 5.03125 -1.140625 5.65625 -2.265625 5.65625 -3.296875 C 5.65625 -3.53125 5.609375 -3.75 5.515625 -3.9375 C 5.390625 -4.234375 4.96875 -4.8125 4.6875 -4.8125 C 4.46875 -4.8125 4.21875 -4.734375 4 -4.609375 C 3.625 -4.390625 3.15625 -4.03125 2.90625 -3.75 C 2.8125 -3.640625 2.734375 -3.453125 2.71875 -3.296875 L 2.203125 -0.28125 C 1.40625 -0.359375 0.921875 -0.78125 0.921875 -1.5 Z M 3.65625 -0.59375 C 3.4375 -0.453125 3.171875 -0.34375 2.859375 -0.296875 C 2.9375 -0.671875 3.015625 -1.171875 3.078125 -1.46875 C 3.1875 -2.265625 3.421875 -3.875 3.671875 -4.078125 C 3.78125 -4.234375 4.0625 -4.3125 4.390625 -4.3125 C 4.671875 -4.3125 4.90625 -3.671875 4.90625 -3.140625 C 4.890625 -2.171875 4.34375 -1.125 3.65625 -0.59375 Z M 3.65625 -0.59375 "/>
</g>
<g id="glyph-5-0">
<path d="M 2.921875 -1.765625 C 2.53125 -1.640625 2.28125 -1.546875 1.515625 -1.328125 C 1.421875 -0.25 1.0625 0.6875 0.234375 2.0625 L 0.4375 2.21875 L 1.015625 1.953125 C 2.1875 0.4375 2.71875 -0.453125 3.125 -1.5625 Z M 2.921875 -1.765625 "/>
</g>
<g id="glyph-6-0">
<path d="M 1.171875 -4.5625 L 1.171875 -1.125 C 1.171875 -0.234375 1.5625 0.140625 2.484375 0.140625 C 2.765625 0.140625 3.046875 0.078125 3.125 0 L 3.6875 -0.640625 L 3.53125 -0.84375 C 3.234375 -0.671875 3.0625 -0.609375 2.828125 -0.609375 C 2.359375 -0.609375 2.171875 -0.84375 2.171875 -1.4375 L 2.171875 -4.5625 L 3.703125 -4.5625 L 3.8125 -5.21875 L 2.171875 -5.140625 L 2.171875 -5.59375 C 2.171875 -6.09375 2.21875 -6.53125 2.3125 -7.296875 L 2.15625 -7.421875 C 1.875 -7.25 1.515625 -7.09375 1.140625 -6.96875 C 1.1875 -6.609375 1.1875 -6.390625 1.1875 -6.03125 L 1.1875 -5.1875 L 0.265625 -4.765625 L 0.265625 -4.515625 Z M 1.171875 -4.5625 "/>
</g>
<g id="glyph-6-1">
<path d="M 3.875 -0.984375 L 3.8125 0.03125 C 4.59375 0 4.59375 0 4.75 0 C 4.8125 0 5.109375 0.015625 5.625 0.03125 L 5.625 -0.328125 L 5.15625 -0.34375 C 4.875 -0.359375 4.828125 -0.453125 4.828125 -1.046875 L 4.828125 -3.234375 C 4.828125 -4.96875 4.328125 -5.609375 2.9375 -5.609375 C 2.421875 -5.609375 1.953125 -5.46875 1.5 -5.203125 L 0.859375 -4.8125 L 0.859375 -4.046875 L 1.171875 -3.953125 L 1.328125 -4.328125 C 1.578125 -4.890625 1.703125 -4.96875 2.25 -4.96875 C 3.375 -4.96875 3.84375 -4.53125 3.875 -3.4375 L 2.6875 -3.234375 C 1.0625 -2.921875 0.375 -2.359375 0.375 -1.328125 C 0.375 -0.390625 0.9375 0.140625 1.890625 0.140625 C 2.109375 0.140625 2.3125 0.109375 2.390625 0.046875 Z M 3.875 -1.484375 C 3.53125 -0.984375 2.765625 -0.53125 2.3125 -0.53125 C 1.828125 -0.53125 1.40625 -0.984375 1.40625 -1.5 C 1.40625 -1.9375 1.65625 -2.359375 2.015625 -2.578125 C 2.3125 -2.765625 2.96875 -2.921875 3.875 -3.0625 Z M 3.875 -1.484375 "/>
</g>
<g id="glyph-6-2">
<path d="M 4.90625 0.03125 C 5.625 0 5.640625 0 5.84375 0 C 6.015625 0 6.015625 0 6.84375 0.03125 L 6.84375 -0.328125 L 6.34375 -0.359375 C 5.9375 -0.375 5.90625 -0.453125 5.90625 -1.21875 L 5.90625 -3.53125 C 5.90625 -4.921875 5.25 -5.609375 3.90625 -5.609375 C 3.46875 -5.609375 3.21875 -5.515625 2.96875 -5.3125 L 2.0625 -4.515625 L 2.0625 -5.5625 L 1.953125 -5.609375 C 1.34375 -5.359375 0.71875 -5.1875 0.078125 -5.109375 L 0.078125 -4.78125 L 0.53125 -4.78125 C 1 -4.78125 1.046875 -4.703125 1.046875 -3.90625 L 1.046875 -1.21875 C 1.046875 -0.46875 1.015625 -0.375 0.609375 -0.359375 L 0.078125 -0.328125 L 0.078125 0.03125 C 0.890625 0.015625 1.203125 0 1.546875 0 C 1.90625 0 2.21875 0.015625 3.03125 0.03125 L 3.03125 -0.328125 L 2.5 -0.359375 C 2.09375 -0.375 2.0625 -0.46875 2.0625 -1.21875 L 2.0625 -3.75 C 2.0625 -4.296875 2.84375 -4.875 3.578125 -4.875 C 4.375 -4.875 4.90625 -4.28125 4.90625 -3.359375 Z M 4.90625 0.03125 "/>
</g>
<g id="glyph-6-3">
<path d="M 6.203125 -4.515625 L 6.5 -5.015625 L 6.453125 -5.15625 L 4.75 -5.109375 C 4.3125 -5.46875 3.890625 -5.609375 3.296875 -5.609375 C 2.765625 -5.609375 2.15625 -5.4375 1.671875 -5.15625 C 1 -4.765625 0.65625 -4.1875 0.65625 -3.453125 C 0.65625 -2.5625 1.203125 -1.953125 2.09375 -1.859375 L 1.140625 -1.140625 C 1.03125 -0.953125 0.96875 -0.796875 0.96875 -0.625 C 0.96875 -0.28125 1.1875 -0.09375 1.75 0.078125 L 0.71875 0.640625 C 0.546875 0.734375 0.375 1.171875 0.375 1.546875 C 0.375 2.625 1.453125 3.375 2.96875 3.375 C 4.765625 3.375 6.1875 2.25 6.1875 0.78125 C 6.1875 -0.078125 5.625 -0.671875 4.78125 -0.671875 L 2.875 -0.671875 C 2.25 -0.671875 1.953125 -0.8125 1.953125 -1.140625 C 1.953125 -1.296875 2.0625 -1.421875 2.359375 -1.6875 C 2.4375 -1.75 2.46875 -1.765625 2.515625 -1.8125 C 2.625 -1.8125 2.703125 -1.796875 2.796875 -1.796875 C 3.3125 -1.796875 3.9375 -2.015625 4.4375 -2.359375 C 4.96875 -2.765625 5.234375 -3.234375 5.234375 -3.875 C 5.234375 -4.109375 5.203125 -4.265625 5.109375 -4.515625 Z M 2.875 -5.203125 C 3.6875 -5.203125 4.234375 -4.53125 4.234375 -3.515625 C 4.234375 -2.734375 3.734375 -2.203125 3 -2.203125 C 2.203125 -2.203125 1.65625 -2.828125 1.65625 -3.734375 C 1.65625 -4.65625 2.109375 -5.203125 2.875 -5.203125 Z M 3.4375 0.171875 C 4.78125 0.171875 5.25 0.4375 5.25 1.21875 C 5.25 2.25 4.296875 3.015625 3.046875 3.015625 C 2.015625 3.015625 1.296875 2.40625 1.296875 1.515625 C 1.296875 0.984375 1.609375 0.484375 2.078125 0.28125 C 2.265625 0.1875 2.609375 0.171875 3.4375 0.171875 Z M 3.4375 0.171875 "/>
</g>
<g id="glyph-6-4">
<path d="M 5.21875 -0.84375 L 5.0625 -0.953125 C 4.296875 -0.5 4.03125 -0.390625 3.515625 -0.390625 C 2.734375 -0.390625 2.09375 -0.734375 1.75 -1.328125 C 1.53125 -1.71875 1.453125 -2.0625 1.421875 -2.75 L 3.171875 -2.75 C 4 -2.75 4.5 -2.78125 5.328125 -2.921875 C 5.34375 -3.078125 5.359375 -3.1875 5.359375 -3.328125 C 5.359375 -4.703125 4.46875 -5.609375 3.125 -5.609375 C 2.6875 -5.609375 2.171875 -5.453125 1.6875 -5.15625 C 0.703125 -4.609375 0.3125 -3.859375 0.3125 -2.625 C 0.3125 -1.859375 0.484375 -1.21875 0.8125 -0.765625 C 1.296875 -0.125 2.09375 0.234375 2.984375 0.234375 C 3.4375 0.234375 3.875 0.140625 4.359375 -0.078125 C 4.6875 -0.203125 4.9375 -0.359375 4.984375 -0.4375 Z M 4.296875 -3.1875 C 3.671875 -3.171875 3.375 -3.15625 2.953125 -3.15625 C 2.40625 -3.15625 2.09375 -3.171875 1.453125 -3.234375 C 1.453125 -3.796875 1.5 -4.046875 1.65625 -4.359375 C 1.90625 -4.890625 2.421875 -5.21875 2.984375 -5.21875 C 3.375 -5.21875 3.6875 -5.0625 3.90625 -4.734375 C 4.171875 -4.34375 4.25 -4 4.296875 -3.1875 Z M 4.296875 -3.1875 "/>
</g>
<g id="glyph-6-5">
<path d="M 2.4375 -1.46875 C 2.109375 -1.359375 1.90625 -1.296875 1.265625 -1.109375 C 1.1875 -0.203125 0.890625 0.578125 0.1875 1.71875 L 0.359375 1.859375 L 0.84375 1.625 C 1.8125 0.375 2.265625 -0.375 2.609375 -1.296875 Z M 2.4375 -1.46875 "/>
</g>
<g id="glyph-6-6">
<path d="M 3.140625 -8.234375 C 1.296875 -8.234375 0.34375 -6.765625 0.34375 -3.875 C 0.34375 -2.46875 0.59375 -1.265625 1.015625 -0.6875 C 1.4375 -0.09375 2.109375 0.234375 2.84375 0.234375 C 4.65625 0.234375 5.5625 -1.3125 5.5625 -4.375 C 5.5625 -7 4.78125 -8.234375 3.140625 -8.234375 Z M 2.921875 -7.8125 C 4.09375 -7.8125 4.546875 -6.640625 4.546875 -3.78125 C 4.546875 -1.234375 4.09375 -0.171875 3 -0.171875 C 1.84375 -0.171875 1.34375 -1.390625 1.34375 -4.296875 C 1.34375 -6.828125 1.796875 -7.8125 2.921875 -7.8125 Z M 2.921875 -7.8125 "/>
</g>
<g id="glyph-7-0">
<path d="M -0.078125 2.15625 C -0.09375 2.234375 -0.09375 2.3125 -0.09375 2.359375 C -0.09375 2.875 0.34375 3.296875 0.890625 3.296875 C 2.15625 3.296875 3.46875 1.8125 4.171875 -0.390625 L 5.859375 -5.65625 L 5.71875 -5.765625 C 5.375 -5.625 5.109375 -5.5625 4.84375 -5.53125 L 4.421875 -3.953125 C 4.28125 -3.390625 3.859375 -2.515625 3.46875 -1.9375 C 3.046875 -1.328125 2.46875 -0.796875 2.203125 -0.796875 C 2.0625 -0.796875 1.953125 -1.078125 1.953125 -1.375 L 1.96875 -1.53125 L 2.15625 -3.84375 C 2.171875 -4.21875 2.203125 -4.671875 2.203125 -5.015625 C 2.203125 -5.546875 2.109375 -5.765625 1.90625 -5.765625 C 1.75 -5.765625 1.59375 -5.671875 1.015625 -5.28125 L 0.03125 -4.609375 L 0.171875 -4.40625 L 0.765625 -4.75 L 0.8125 -4.796875 C 0.9375 -4.859375 1.015625 -4.90625 1.0625 -4.90625 C 1.234375 -4.90625 1.328125 -4.671875 1.328125 -4.28125 C 1.328125 -4.265625 1.328125 -4.203125 1.3125 -4.09375 L 1.109375 -1.1875 L 1.09375 -0.71875 C 1.09375 -0.21875 1.3125 0.125 1.609375 0.125 C 2.0625 0.125 3.0625 -0.890625 3.953125 -2.234375 L 3.375 -0.1875 C 2.765625 1.921875 2.15625 2.796875 1.328125 2.796875 C 0.90625 2.796875 0.578125 2.46875 0.578125 2.0625 C 0.578125 2 0.59375 1.90625 0.609375 1.796875 L 0.484375 1.75 Z M -0.078125 2.15625 "/>
</g>
<g id="glyph-7-1">
<path d="M 0.390625 -0.28125 L 0.328125 0.03125 L 1.453125 0 L 2.109375 0 C 2.328125 0 2.71875 0.015625 3.234375 0.03125 C 3.46875 0.03125 3.640625 0.03125 3.78125 0.03125 C 4.640625 0.03125 5.21875 -0.09375 5.84375 -0.40625 C 7.703125 -1.359375 8.859375 -3.171875 8.859375 -5.15625 C 8.859375 -6.328125 8.5 -7.15625 7.765625 -7.671875 C 7.21875 -8.0625 6.203125 -8.28125 5.0625 -8.265625 L 2.625 -8.234375 L 2.515625 -8.234375 C 2.40625 -8.234375 2.359375 -8.234375 1.15625 -8.265625 L 1.125 -7.9375 L 1.75 -7.90625 C 2.046875 -7.90625 2.171875 -7.8125 2.171875 -7.59375 C 2.171875 -7.421875 2.125 -7.046875 2.0625 -6.6875 L 1.03125 -0.65625 C 0.984375 -0.46875 0.859375 -0.375 0.484375 -0.296875 Z M 3.203125 -7.765625 C 3.375 -7.765625 3.4375 -7.78125 3.765625 -7.796875 C 4.140625 -7.8125 4.375 -7.828125 4.59375 -7.828125 C 6.765625 -7.828125 7.75 -6.921875 7.75 -4.953125 C 7.75 -3.5625 7.296875 -2.3125 6.484375 -1.484375 C 5.84375 -0.828125 4.96875 -0.484375 3.9375 -0.484375 C 3.40625 -0.484375 2.828125 -0.546875 2.015625 -0.671875 C 2.015625 -0.8125 2.015625 -0.890625 2.0625 -1.109375 Z M 3.203125 -7.765625 "/>
</g>
<g id="glyph-7-2">
<path d="M 0.25 -1.046875 C 0.25 -0.8125 0.234375 -0.65625 0.15625 -0.28125 C 0.125 -0.125 0.125 -0.09375 0.109375 -0.015625 C 0.28125 0.078125 0.484375 0.125 0.625 0.125 C 1.015625 0.125 1.484375 -0.21875 1.859375 -0.78125 L 2.765625 -2.171875 L 2.890625 -1.34375 C 3.046875 -0.328125 3.328125 0.125 3.75 0.125 C 4.015625 0.125 4.40625 -0.078125 4.78125 -0.421875 L 5.359375 -0.9375 L 5.265625 -1.171875 C 4.828125 -0.8125 4.53125 -0.640625 4.34375 -0.640625 C 4.15625 -0.640625 4 -0.75 3.890625 -0.984375 C 3.78125 -1.21875 3.640625 -1.65625 3.578125 -2.015625 L 3.375 -3.21875 L 3.796875 -3.796875 C 4.34375 -4.578125 4.671875 -4.859375 5.046875 -4.859375 C 5.234375 -4.859375 5.375 -4.75 5.4375 -4.578125 L 5.609375 -4.625 L 5.78125 -5.640625 C 5.640625 -5.71875 5.53125 -5.765625 5.421875 -5.765625 C 4.953125 -5.765625 4.46875 -5.328125 3.734375 -4.234375 L 3.28125 -3.578125 L 3.21875 -4.140625 C 3.078125 -5.328125 2.75 -5.765625 2.046875 -5.765625 C 1.734375 -5.765625 1.46875 -5.671875 1.359375 -5.515625 L 0.671875 -4.515625 L 0.875 -4.40625 C 1.234375 -4.8125 1.46875 -4.96875 1.703125 -4.96875 C 2.09375 -4.96875 2.359375 -4.484375 2.5625 -3.3125 L 2.6875 -2.5625 L 2.21875 -1.828125 C 1.703125 -1.03125 1.296875 -0.640625 0.953125 -0.640625 C 0.78125 -0.640625 0.640625 -0.6875 0.625 -0.75 L 0.484375 -1.09375 Z M 0.25 -1.046875 "/>
</g>
<g id="glyph-8-0">
<path d="M 0.828125 -1.359375 C 0.828125 -2.359375 1.46875 -3.453125 2.15625 -3.828125 C 2.265625 -3.890625 2.40625 -3.921875 2.59375 -3.953125 C 2.6875 -4.03125 2.671875 -4.03125 2.71875 -4.109375 C 2.703125 -4.21875 2.65625 -4.21875 2.640625 -4.21875 C 2.4375 -4.21875 2.09375 -4.046875 1.8125 -3.921875 C 0.75 -3.40625 0.15625 -2.484375 0.15625 -1.359375 C 0.15625 -0.40625 0.71875 0.09375 1.765625 0.09375 C 1.828125 0.09375 1.875 0.09375 1.921875 0.09375 C 1.828125 0.625 1.671875 1.359375 1.515625 2.09375 L 1.4375 2.421875 L 1.5 2.46875 C 1.6875 2.40625 1.875 2.375 2.15625 2.328125 L 2.53125 0.015625 C 2.953125 -0.09375 3.375 -0.265625 3.734375 -0.5 C 4.53125 -1.015625 5.09375 -2.046875 5.09375 -2.96875 C 5.09375 -3.1875 5.046875 -3.375 4.96875 -3.546875 C 4.859375 -3.8125 4.46875 -4.328125 4.21875 -4.328125 C 4.015625 -4.328125 3.796875 -4.265625 3.59375 -4.15625 C 3.25 -3.953125 2.84375 -3.625 2.625 -3.375 C 2.53125 -3.28125 2.46875 -3.109375 2.4375 -2.953125 L 1.984375 -0.25 C 1.265625 -0.328125 0.828125 -0.703125 0.828125 -1.359375 Z M 3.28125 -0.53125 C 3.09375 -0.40625 2.859375 -0.3125 2.578125 -0.265625 C 2.640625 -0.59375 2.71875 -1.0625 2.765625 -1.328125 C 2.875 -2.03125 3.078125 -3.484375 3.296875 -3.671875 C 3.40625 -3.796875 3.65625 -3.890625 3.953125 -3.890625 C 4.203125 -3.890625 4.40625 -3.296875 4.40625 -2.828125 C 4.40625 -1.953125 3.90625 -1.015625 3.28125 -0.53125 Z M 3.28125 -0.53125 "/>
</g>
<g id="glyph-9-0">
<path d="M 4.125 2.984375 C 4.125 2.953125 4.125 2.921875 3.90625 2.71875 C 2.359375 1.140625 1.953125 -1.203125 1.953125 -3.109375 C 1.953125 -5.28125 2.421875 -7.453125 3.953125 -9 C 4.125 -9.15625 4.125 -9.171875 4.125 -9.21875 C 4.125 -9.296875 4.078125 -9.34375 4 -9.34375 C 3.875 -9.34375 2.75 -8.5 2.015625 -6.90625 C 1.375 -5.546875 1.234375 -4.15625 1.234375 -3.109375 C 1.234375 -2.140625 1.375 -0.640625 2.0625 0.765625 C 2.796875 2.296875 3.875 3.109375 4 3.109375 C 4.078125 3.109375 4.125 3.078125 4.125 2.984375 Z M 4.125 2.984375 "/>
</g>
<g id="glyph-9-1">
<path d="M 3.59375 -3.109375 C 3.59375 -4.078125 3.46875 -5.59375 2.78125 -7 C 2.03125 -8.53125 0.953125 -9.34375 0.828125 -9.34375 C 0.765625 -9.34375 0.703125 -9.296875 0.703125 -9.21875 C 0.703125 -9.171875 0.703125 -9.15625 0.953125 -8.921875 C 2.171875 -7.703125 2.875 -5.71875 2.875 -3.109375 C 2.875 -0.984375 2.421875 1.203125 0.875 2.78125 C 0.703125 2.921875 0.703125 2.953125 0.703125 2.984375 C 0.703125 3.0625 0.765625 3.109375 0.828125 3.109375 C 0.953125 3.109375 2.078125 2.265625 2.8125 0.6875 C 3.453125 -0.6875 3.59375 -2.0625 3.59375 -3.109375 Z M 3.59375 -3.109375 "/>
</g>
<g id="glyph-9-2">
<path d="M 8.5625 -4.078125 C 8.734375 -4.078125 8.984375 -4.078125 8.984375 -4.328125 C 8.984375 -4.5625 8.734375 -4.5625 8.5625 -4.5625 L 1.109375 -4.5625 C 0.9375 -4.5625 0.703125 -4.5625 0.703125 -4.328125 C 0.703125 -4.078125 0.9375 -4.078125 1.125 -4.078125 Z M 8.5625 -1.65625 C 8.734375 -1.65625 8.984375 -1.65625 8.984375 -1.90625 C 8.984375 -2.15625 8.734375 -2.15625 8.5625 -2.15625 L 1.125 -2.15625 C 0.9375 -2.15625 0.703125 -2.15625 0.703125 -1.90625 C 0.703125 -1.65625 0.9375 -1.65625 1.109375 -1.65625 Z M 8.5625 -1.65625 "/>
</g>
<g id="glyph-10-0">
<path d="M 1.109375 -1.8125 C 1.109375 -3.140625 1.953125 -4.609375 2.875 -5.109375 C 3.015625 -5.171875 3.21875 -5.234375 3.453125 -5.265625 C 3.578125 -5.375 3.5625 -5.375 3.640625 -5.484375 C 3.59375 -5.625 3.546875 -5.625 3.515625 -5.625 C 3.25 -5.625 2.78125 -5.40625 2.421875 -5.21875 C 0.984375 -4.53125 0.203125 -3.3125 0.203125 -1.8125 C 0.203125 -0.53125 0.953125 0.125 2.359375 0.125 C 2.421875 0.125 2.5 0.125 2.5625 0.125 C 2.4375 0.828125 2.234375 1.8125 2.015625 2.78125 L 1.921875 3.234375 L 2.015625 3.296875 C 2.265625 3.21875 2.5 3.15625 2.875 3.09375 L 3.375 0.015625 C 3.9375 -0.125 4.5 -0.34375 4.96875 -0.65625 C 6.03125 -1.359375 6.796875 -2.71875 6.796875 -3.953125 C 6.796875 -4.25 6.71875 -4.5 6.625 -4.71875 C 6.46875 -5.078125 5.953125 -5.765625 5.625 -5.765625 C 5.359375 -5.765625 5.0625 -5.671875 4.796875 -5.53125 C 4.34375 -5.265625 3.796875 -4.828125 3.484375 -4.5 C 3.375 -4.359375 3.28125 -4.140625 3.25 -3.9375 L 2.640625 -0.328125 C 1.6875 -0.4375 1.109375 -0.9375 1.109375 -1.8125 Z M 4.375 -0.71875 C 4.125 -0.53125 3.796875 -0.40625 3.4375 -0.34375 C 3.515625 -0.796875 3.625 -1.40625 3.6875 -1.765625 C 3.828125 -2.71875 4.109375 -4.65625 4.40625 -4.890625 C 4.546875 -5.0625 4.875 -5.171875 5.265625 -5.171875 C 5.59375 -5.171875 5.875 -4.40625 5.875 -3.765625 C 5.875 -2.609375 5.21875 -1.34375 4.375 -0.71875 Z M 4.375 -0.71875 "/>
</g>
<g id="glyph-11-0">
<path d="M 8.203125 -2.859375 C 8.421875 -2.859375 8.640625 -2.859375 8.640625 -3.109375 C 8.640625 -3.359375 8.421875 -3.359375 8.203125 -3.359375 L 1.46875 -3.359375 C 1.25 -3.359375 1.03125 -3.359375 1.03125 -3.109375 C 1.03125 -2.859375 1.25 -2.859375 1.46875 -2.859375 Z M 8.203125 -2.859375 "/>
</g>
<g id="glyph-11-1">
<path d="M 4.078125 -8.859375 C 4.140625 -9 4.140625 -9.03125 4.140625 -9.09375 C 4.140625 -9.234375 4.03125 -9.34375 3.890625 -9.34375 C 3.78125 -9.34375 3.703125 -9.28125 3.609375 -9.046875 L 1.4375 -3.34375 C 1.40625 -3.265625 1.375 -3.1875 1.375 -3.109375 C 1.375 -3.078125 1.375 -3.046875 1.4375 -2.90625 L 3.609375 2.8125 C 3.65625 2.953125 3.71875 3.109375 3.890625 3.109375 C 4.03125 3.109375 4.140625 3 4.140625 2.859375 C 4.140625 2.828125 4.140625 2.796875 4.078125 2.671875 L 1.875 -3.109375 Z M 4.078125 -8.859375 "/>
</g>
<g id="glyph-11-2">
<path d="M 9.71875 -8.234375 C 9.734375 -8.265625 9.78125 -8.359375 9.78125 -8.40625 C 9.78125 -8.5 9.765625 -8.5 9.484375 -8.5 L 0.890625 -8.5 C 0.59375 -8.5 0.578125 -8.5 0.578125 -8.40625 C 0.578125 -8.359375 0.625 -8.265625 0.640625 -8.234375 L 4.84375 0.171875 C 4.9375 0.34375 4.96875 0.40625 5.1875 0.40625 C 5.390625 0.40625 5.421875 0.34375 5.515625 0.171875 Z M 2.125 -7.609375 L 8.96875 -7.609375 L 5.546875 -0.765625 Z M 2.125 -7.609375 "/>
</g>
<g id="glyph-11-3">
<path d="M 3.40625 -2.90625 C 3.46875 -3.046875 3.46875 -3.078125 3.46875 -3.109375 C 3.46875 -3.15625 3.46875 -3.171875 3.40625 -3.328125 L 1.21875 -9.046875 C 1.140625 -9.265625 1.078125 -9.34375 0.9375 -9.34375 C 0.796875 -9.34375 0.6875 -9.234375 0.6875 -9.09375 C 0.6875 -9.046875 0.6875 -9.03125 0.75 -8.890625 L 2.953125 -3.109375 L 0.75 2.640625 C 0.6875 2.78125 0.6875 2.796875 0.6875 2.859375 C 0.6875 3 0.796875 3.109375 0.9375 3.109375 C 1.09375 3.109375 1.140625 2.984375 1.203125 2.859375 Z M 3.40625 -2.90625 "/>
</g>
<g id="glyph-11-4">
<path d="M 8.390625 -4.03125 C 8.5625 -4.109375 8.640625 -4.203125 8.640625 -4.3125 C 8.640625 -4.4375 8.59375 -4.515625 8.390625 -4.59375 L 1.53125 -7.828125 C 1.359375 -7.921875 1.3125 -7.921875 1.28125 -7.921875 C 1.140625 -7.921875 1.03125 -7.8125 1.03125 -7.671875 C 1.03125 -7.515625 1.140625 -7.453125 1.265625 -7.390625 L 7.8125 -4.328125 L 1.296875 -1.25 C 1.046875 -1.140625 1.03125 -1.03125 1.03125 -0.953125 C 1.03125 -0.828125 1.140625 -0.703125 1.28125 -0.703125 C 1.3125 -0.703125 1.34375 -0.703125 1.5 -0.796875 Z M 8.203125 1.703125 C 8.421875 1.703125 8.640625 1.703125 8.640625 1.453125 C 8.640625 1.203125 8.375 1.203125 8.1875 1.203125 L 1.484375 1.203125 C 1.296875 1.203125 1.03125 1.203125 1.03125 1.453125 C 1.03125 1.703125 1.25 1.703125 1.46875 1.703125 Z M 8.203125 1.703125 "/>
</g>
</g>
<clipPath id="clip-0">
<path clip-rule="nonzero" d="M 0 0 L 620.679688 0 L 620.679688 450.601562 L 0 450.601562 Z M 0 0 "/>
</clipPath>
</defs>
<path fill-rule="nonzero" fill="rgb(97.645569%, 96.470642%, 94.119263%)" fill-opacity="1" d="M 12.703125 423.953125 L 12.703125 26.644531 C 12.703125 18.941406 18.945312 12.699219 26.648438 12.699219 L 594.039062 12.699219 C 601.742188 12.699219 607.984375 18.941406 607.984375 26.644531 L 607.984375 423.953125 C 607.984375 431.65625 601.742188 437.898438 594.039062 437.898438 L 26.648438 437.898438 C 18.945312 437.898438 12.703125 431.65625 12.703125 423.953125 Z M 12.703125 423.953125 "/>
<g clip-path="url(#clip-0)">
<path fill="none" stroke-width="1.49442" stroke-linecap="butt" stroke-linejoin="miter" stroke="rgb(83.137512%, 78.823853%, 72.155762%)" stroke-opacity="1" stroke-miterlimit="10" d="M -28.345875 -42.747125 L -28.345875 354.561469 C -28.345875 362.264594 -22.103687 368.506781 -14.400562 368.506781 L 552.990063 368.506781 C 560.693188 368.506781 566.935375 362.264594 566.935375 354.561469 L 566.935375 -42.747125 C 566.935375 -50.45025 560.693188 -56.692437 552.990063 -56.692437 L -14.400562 -56.692437 C -22.103687 -56.692437 -28.345875 -50.45025 -28.345875 -42.747125 Z M -28.345875 -42.747125 " transform="matrix(1, 0, 0, -1, 41.049, 381.206)"/>
</g>
<g fill="rgb(23.922729%, 20.783997%, 18.824768%)" fill-opacity="1">
<use xlink:href="#glyph-0-0" x="124.768" y="44.87"/>
<use xlink:href="#glyph-0-1" x="136.250672" y="44.87"/>
<use xlink:href="#glyph-0-2" x="142.947462" y="44.87"/>
<use xlink:href="#glyph-0-3" x="151.555162" y="44.87"/>
<use xlink:href="#glyph-0-4" x="161.126925" y="44.87"/>
<use xlink:href="#glyph-0-5" x="176.431415" y="44.87"/>
<use xlink:href="#glyph-0-6" x="185.039115" y="44.87"/>
</g>
<g fill="rgb(23.922729%, 20.783997%, 18.824768%)" fill-opacity="1">
<use xlink:href="#glyph-0-7" x="199.861575" y="44.87"/>
<use xlink:href="#glyph-0-8" x="214.202003" y="44.87"/>
<use xlink:href="#glyph-0-9" x="219.934731" y="44.87"/>
<use xlink:href="#glyph-0-2" x="229.506494" y="44.87"/>
<use xlink:href="#glyph-0-1" x="238.114194" y="44.87"/>
<use xlink:href="#glyph-0-3" x="244.810984" y="44.87"/>
<use xlink:href="#glyph-0-2" x="254.382747" y="44.87"/>
<use xlink:href="#glyph-0-6" x="262.990447" y="44.87"/>
<use xlink:href="#glyph-0-10" x="273.509056" y="44.87"/>
<use xlink:href="#glyph-0-2" x="281.152694" y="44.87"/>
<use xlink:href="#glyph-0-11" x="289.760394" y="44.87"/>
</g>
<g fill="rgb(23.922729%, 20.783997%, 18.824768%)" fill-opacity="1">
<use xlink:href="#glyph-0-12" x="299.401018" y="44.87"/>
<use xlink:href="#glyph-0-2" x="313.741446" y="44.87"/>
<use xlink:href="#glyph-0-13" x="322.349146" y="44.87"/>
<use xlink:href="#glyph-0-4" x="331.920908" y="44.87"/>
<use xlink:href="#glyph-0-2" x="347.225399" y="44.87"/>
<use xlink:href="#glyph-0-14" x="355.833099" y="44.87"/>
<use xlink:href="#glyph-0-1" x="361.565827" y="44.87"/>
<use xlink:href="#glyph-0-8" x="368.262618" y="44.87"/>
<use xlink:href="#glyph-0-10" x="373.995346" y="44.87"/>
</g>
<g fill="rgb(23.922729%, 20.783997%, 18.824768%)" fill-opacity="1">
<use xlink:href="#glyph-0-15" x="385.942833" y="44.87"/>
<use xlink:href="#glyph-0-6" x="392.639624" y="44.87"/>
<use xlink:href="#glyph-0-14" x="403.158233" y="44.87"/>
<use xlink:href="#glyph-0-2" x="408.890962" y="44.87"/>
<use xlink:href="#glyph-0-1" x="417.498662" y="44.87"/>
<use xlink:href="#glyph-0-16" x="424.195452" y="44.87"/>
<use xlink:href="#glyph-0-1" x="434.714062" y="44.87"/>
<use xlink:href="#glyph-0-2" x="441.410852" y="44.87"/>
<use xlink:href="#glyph-0-14" x="450.018552" y="44.87"/>
<use xlink:href="#glyph-0-5" x="455.75128" y="44.87"/>
<use xlink:href="#glyph-0-14" x="464.35898" y="44.87"/>
<use xlink:href="#glyph-0-8" x="470.091709" y="44.87"/>
<use xlink:href="#glyph-0-13" x="475.824437" y="44.87"/>
<use xlink:href="#glyph-0-6" x="485.396199" y="44.87"/>
</g>
<path fill="none" stroke-width="0.99628" stroke-linecap="butt" stroke-linejoin="miter" stroke="rgb(48.234558%, 43.920898%, 40.391541%)" stroke-opacity="1" stroke-miterlimit="10" d="M 28.345531 42.5185 L 502.997875 42.5185 " transform="matrix(1, 0, 0, -1, 41.049, 381.206)"/>
<path fill-rule="nonzero" fill="rgb(48.234558%, 43.920898%, 40.391541%)" fill-opacity="1" stroke-width="0.99628" stroke-linecap="butt" stroke-linejoin="miter" stroke="rgb(48.234558%, 43.920898%, 40.391541%)" stroke-opacity="1" stroke-miterlimit="10" d="M 9.918244 -0.0017 L 1.60965 3.135019 L 4.344025 -0.0017 L 1.60965 -3.134512 Z M 9.918244 -0.0017 " transform="matrix(1, 0, 0, -1, 539.95285, 338.6858)"/>
<path fill="none" stroke-width="0.99628" stroke-linecap="butt" stroke-linejoin="miter" stroke="rgb(48.234558%, 43.920898%, 40.391541%)" stroke-opacity="1" stroke-miterlimit="10" d="M 28.345531 42.5185 L 28.345531 304.573188 " transform="matrix(1, 0, 0, -1, 41.049, 381.206)"/>
<path fill-rule="nonzero" fill="rgb(48.234558%, 43.920898%, 40.391541%)" fill-opacity="1" stroke-width="0.99628" stroke-linecap="butt" stroke-linejoin="miter" stroke="rgb(48.234558%, 43.920898%, 40.391541%)" stroke-opacity="1" stroke-miterlimit="10" d="M 9.921226 0.00126875 L 1.608726 3.134081 L 4.343101 0.00126875 L 1.608726 -3.131544 Z M 9.921226 0.00126875 " transform="matrix(0, -1, -1, 0, 69.3958, 80.72982)"/>
<g fill="rgb(48.234558%, 43.920898%, 40.391541%)" fill-opacity="1">
<use xlink:href="#glyph-1-0" x="65.529" y="56.706"/>
</g>
<path fill="none" stroke-width="2.49069" stroke-linecap="butt" stroke-linejoin="miter" stroke="rgb(48.234558%, 59.214783%, 67.843628%)" stroke-opacity="1" stroke-miterlimit="10" d="M 85.040844 222.217719 C 85.040844 222.217719 90.072094 217.815375 92.005687 216.151313 C 93.939281 214.48725 97.040844 211.850531 98.974437 210.225531 C 100.908031 208.604438 104.005687 206.026313 105.939281 204.440375 C 107.872875 202.854438 110.974437 200.338813 112.908031 198.791938 C 114.837719 197.241156 117.939281 194.788031 119.872875 193.280219 C 121.806469 191.7685 124.904125 189.373969 126.837719 187.901313 C 128.771312 186.428656 131.872875 184.100531 133.806469 182.663031 C 135.740062 181.229438 138.837719 178.956 140.771312 177.557563 C 142.704906 176.163031 145.806469 173.952094 147.740062 172.592719 C 149.66975 171.233344 152.771312 169.084906 154.704906 167.764594 C 156.6385 166.444281 159.740062 164.358344 161.66975 163.073188 C 163.603344 161.791938 166.704906 159.764594 168.6385 158.522406 C 170.572094 157.276313 173.66975 155.311469 175.603344 154.104438 C 177.536937 152.897406 180.6385 150.991156 182.572094 149.823188 C 184.505687 148.655219 187.603344 146.811469 189.536937 145.678656 C 191.470531 144.54975 194.572094 142.764594 196.501781 141.670844 C 198.435375 140.577094 201.536937 138.854438 203.470531 137.79975 C 205.404125 136.745063 208.501781 135.084906 210.435375 134.069281 C 212.368969 133.053656 215.470531 131.452094 217.404125 130.471625 C 219.337719 129.495063 222.435375 127.956 224.368969 127.014594 C 226.302562 126.073188 229.404125 124.596625 231.337719 123.694281 C 233.267406 122.788031 236.368969 121.373969 238.302562 120.506781 C 240.236156 119.6435 243.337719 118.284125 245.267406 117.456 C 247.201 116.631781 250.302562 115.334906 252.236156 114.545844 C 254.16975 113.756781 257.267406 112.522406 259.201 111.772406 C 261.134594 111.022406 264.236156 109.846625 266.16975 109.135688 C 268.103344 108.420844 271.201 107.311469 273.134594 106.635688 C 275.068188 105.959906 278.16975 104.909125 280.099438 104.272406 C 282.033031 103.635688 285.134594 102.6435 287.068188 102.045844 C 289.001781 101.448188 292.099438 100.5185 294.033031 99.956 C 295.966625 99.3935 299.068188 98.526313 301.001781 98.002875 C 302.935375 97.479438 306.033031 96.670844 307.966625 96.186469 C 309.900219 95.702094 313.001781 94.956 314.935375 94.506781 C 316.865063 94.061469 319.966625 93.373969 321.900219 92.967719 C 323.833813 92.557563 326.931469 91.932563 328.865063 91.561469 C 330.798656 91.190375 333.900219 90.627875 335.833813 90.291938 C 337.767406 89.959906 340.865063 89.456 342.798656 89.163031 C 344.73225 88.866156 347.833813 88.42475 349.767406 88.166938 C 351.697094 87.913031 354.798656 87.530219 356.73225 87.311469 C 358.665844 87.092719 361.767406 86.772406 363.697094 86.592719 C 365.630688 86.409125 368.73225 86.151313 370.665844 86.006781 C 372.599438 85.866156 375.697094 85.666938 377.630688 85.561469 C 379.564281 85.456 382.665844 85.319281 384.599438 85.252875 C 386.533031 85.186469 389.630688 85.108344 391.564281 85.081 C 393.497875 85.04975 396.599438 85.034125 398.529125 85.045844 C 400.462719 85.053656 403.564281 85.096625 405.497875 85.147406 C 407.431469 85.194281 410.529125 85.29975 412.462719 85.385688 C 414.396313 85.467719 417.497875 85.635688 419.431469 85.760688 C 421.365063 85.881781 424.462719 86.11225 426.396313 86.272406 C 428.329906 86.432563 431.431469 86.721625 433.365063 86.920844 C 435.29475 87.120063 438.396313 87.467719 440.329906 87.706 C 442.2635 87.944281 445.361156 88.354438 447.29475 88.627875 C 449.228344 88.905219 452.329906 89.373969 454.2635 89.690375 C 456.197094 90.002875 459.29475 90.534125 461.228344 90.885688 C 463.161938 91.23725 466.2635 91.831 468.197094 92.221625 C 470.126781 92.608344 473.228344 93.264594 475.161938 93.690375 C 477.095531 94.120063 480.197094 94.834906 482.126781 95.29975 C 484.060375 95.764594 487.161938 96.538031 489.095531 97.041938 C 491.029125 97.545844 496.060375 98.92475 496.060375 98.92475 " transform="matrix(1, 0, 0, -1, 41.049, 381.206)"/>
<g fill="rgb(48.234558%, 59.214783%, 67.843628%)" fill-opacity="1">
<use xlink:href="#glyph-1-0" x="533.024" y="237.43"/>
</g>
<g fill="rgb(48.234558%, 59.214783%, 67.843628%)" fill-opacity="1">
<use xlink:href="#glyph-2-0" x="541.832681" y="237.43"/>
</g>
<g fill="rgb(48.234558%, 59.214783%, 67.843628%)" fill-opacity="1">
<use xlink:href="#glyph-3-0" x="548.234424" y="237.43"/>
</g>
<g fill="rgb(48.234558%, 59.214783%, 67.843628%)" fill-opacity="1">
<use xlink:href="#glyph-2-1" x="555.900831" y="237.43"/>
</g>
<path fill-rule="nonzero" fill="rgb(47.840881%, 60.392761%, 49.412537%)" fill-opacity="1" stroke-width="0.99628" stroke-linecap="butt" stroke-linejoin="miter" stroke="rgb(23.922729%, 20.783997%, 18.824768%)" stroke-opacity="1" stroke-miterlimit="10" d="M 203.408031 140.600531 C 203.408031 143.350531 201.177562 145.581 198.427562 145.581 C 195.677562 145.581 193.447094 143.350531 193.447094 140.600531 C 193.447094 137.850531 195.677562 135.620063 198.427562 135.620063 C 201.177562 135.620063 203.408031 137.850531 203.408031 140.600531 Z M 203.408031 140.600531 " transform="matrix(1, 0, 0, -1, 41.049, 381.206)"/>
<g fill="rgb(47.840881%, 60.392761%, 49.412537%)" fill-opacity="1">
<use xlink:href="#glyph-3-1" x="225.784" y="230.303"/>
</g>
<path fill="none" stroke-width="1.49442" stroke-linecap="butt" stroke-linejoin="miter" stroke="rgb(47.840881%, 60.392761%, 49.412537%)" stroke-opacity="1" stroke-dasharray="2.98883 2.98883" stroke-miterlimit="10" d="M 85.040844 204.096625 L 115.275219 187.166938 L 130.396312 178.698188 L 160.630687 161.7685 L 175.747875 153.29975 L 190.865062 144.834906 L 205.986156 136.370063 L 221.103344 127.901313 L 251.337719 110.971625 L 266.458813 102.502875 L 296.693188 85.573188 L 311.810375 77.104438 L 326.927563 68.639594 L 342.048656 60.17475 L 357.165844 51.709906 L 372.283031 43.241156 L 387.400219 34.776313 L 402.521313 26.311469 L 417.6385 17.842719 L 447.872875 0.913031 " transform="matrix(1, 0, 0, -1, 41.049, 381.206)"/>
<path fill-rule="nonzero" fill="rgb(76.861572%, 47.840881%, 41.569519%)" fill-opacity="1" stroke-width="0.99628" stroke-linecap="butt" stroke-linejoin="miter" stroke="rgb(23.922729%, 20.783997%, 18.824768%)" stroke-opacity="1" stroke-miterlimit="10" d="M 373.490063 86.17475 C 373.490063 88.92475 371.259594 91.155219 368.509594 91.155219 C 365.755688 91.155219 363.525219 88.92475 363.525219 86.17475 C 363.525219 83.42475 365.755688 81.194281 368.509594 81.194281 C 371.259594 81.194281 373.490063 83.42475 373.490063 86.17475 Z M 373.490063 86.17475 " transform="matrix(1, 0, 0, -1, 41.049, 381.206)"/>
<g fill="rgb(76.861572%, 47.840881%, 41.569519%)" fill-opacity="1">
<use xlink:href="#glyph-3-0" x="416.313" y="288.559"/>
</g>
<path fill="none" stroke-width="1.99255" stroke-linecap="butt" stroke-linejoin="miter" stroke="rgb(76.861572%, 47.840881%, 41.569519%)" stroke-opacity="1" stroke-miterlimit="10" d="M 368.509594 45.354438 L 368.509594 86.17475 " transform="matrix(1, 0, 0, -1, 41.049, 381.206)"/>
<path fill-rule="nonzero" fill="rgb(47.840881%, 60.392761%, 49.412537%)" fill-opacity="1" d="M 412.546875 335.851562 C 412.546875 334.199219 411.207031 332.863281 409.558594 332.863281 C 407.90625 332.863281 406.570312 334.199219 406.570312 335.851562 C 406.570312 337.5 407.90625 338.839844 409.558594 338.839844 C 411.207031 338.839844 412.546875 337.5 412.546875 335.851562 Z M 412.546875 335.851562 "/>
<path fill="none" stroke-width="1.19553" stroke-linecap="butt" stroke-linejoin="miter" stroke="rgb(76.861572%, 47.840881%, 41.569519%)" stroke-opacity="1" stroke-miterlimit="10" d="M 382.681469 45.354438 C 385.072094 46.54975 386.665844 49.338813 386.665844 53.327094 L 386.665844 57.795844 C 386.665844 61.780219 388.259594 64.569281 390.650219 65.764594 C 388.259594 66.959906 386.665844 69.748969 386.665844 73.733344 L 386.665844 78.202094 C 386.665844 82.190375 385.072094 84.979438 382.681469 86.17475 " transform="matrix(1, 0, 0, -1, 41.049, 381.206)"/>
<g fill="rgb(76.861572%, 47.840881%, 41.569519%)" fill-opacity="1">
<use xlink:href="#glyph-3-2" x="437.674" y="318.598"/>
</g>
<g fill="rgb(76.861572%, 47.840881%, 41.569519%)" fill-opacity="1">
<use xlink:href="#glyph-4-0" x="449.423" y="320.75"/>
</g>
<g fill="rgb(76.861572%, 47.840881%, 41.569519%)" fill-opacity="1">
<use xlink:href="#glyph-2-0" x="456.093" y="318.598"/>
</g>
<g fill="rgb(76.861572%, 47.840881%, 41.569519%)" fill-opacity="1">
<use xlink:href="#glyph-3-0" x="462.494744" y="318.598"/>
</g>
<g fill="rgb(76.861572%, 47.840881%, 41.569519%)" fill-opacity="1">
<use xlink:href="#glyph-5-0" x="469.98346" y="318.598"/>
</g>
<g fill="rgb(76.861572%, 47.840881%, 41.569519%)" fill-opacity="1">
<use xlink:href="#glyph-3-1" x="476.13798" y="318.598"/>
</g>
<g fill="rgb(76.861572%, 47.840881%, 41.569519%)" fill-opacity="1">
<use xlink:href="#glyph-2-1" x="483.669849" y="318.598"/>
</g>
<path fill-rule="nonzero" fill="rgb(97.645569%, 96.470642%, 94.119263%)" fill-opacity="1" d="M 134.523438 199.585938 L 202.695312 199.585938 L 202.695312 182.992188 L 134.523438 182.992188 Z M 134.523438 199.585938 "/>
<g fill="rgb(47.840881%, 60.392761%, 49.412537%)" fill-opacity="1">
<use xlink:href="#glyph-6-0" x="137.513" y="193.229"/>
<use xlink:href="#glyph-6-1" x="141.410395" y="193.229"/>
<use xlink:href="#glyph-6-2" x="147.387995" y="193.229"/>
<use xlink:href="#glyph-6-3" x="154.345922" y="193.229"/>
<use xlink:href="#glyph-6-4" x="160.993013" y="193.229"/>
<use xlink:href="#glyph-6-2" x="166.719554" y="193.229"/>
<use xlink:href="#glyph-6-0" x="173.67748" y="193.229"/>
</g>
<g fill="rgb(47.840881%, 60.392761%, 49.412537%)" fill-opacity="1">
<use xlink:href="#glyph-6-1" x="180.563675" y="193.229"/>
<use xlink:href="#glyph-6-0" x="186.541275" y="193.229"/>
</g>
<g fill="rgb(47.840881%, 60.392761%, 49.412537%)" fill-opacity="1">
<use xlink:href="#glyph-7-0" x="193.570933" y="193.229"/>
</g>
<path fill-rule="nonzero" fill="rgb(94.430542%, 91.999817%, 87.371826%)" fill-opacity="1" stroke-width="1.19553" stroke-linecap="butt" stroke-linejoin="miter" stroke="rgb(72.155762%, 59.999084%, 36.863708%)" stroke-opacity="1" stroke-miterlimit="10" d="M 56.693188 -28.879937 L 56.693188 -10.805719 C 56.693188 -6.403375 60.2635 -2.833062 64.661937 -2.833062 L 473.923656 -2.833062 C 478.326 -2.833062 481.896313 -6.403375 481.896313 -10.805719 L 481.896313 -28.879937 C 481.896313 -33.282281 478.326 -36.852594 473.923656 -36.852594 L 64.661937 -36.852594 C 60.2635 -36.852594 56.693188 -33.282281 56.693188 -28.879937 Z M 56.693188 -28.879937 " transform="matrix(1, 0, 0, -1, 41.049, 381.206)"/>
<g fill="rgb(23.922729%, 20.783997%, 18.824768%)" fill-opacity="1">
<use xlink:href="#glyph-7-1" x="189.794" y="403.586"/>
</g>
<g fill="rgb(23.922729%, 20.783997%, 18.824768%)" fill-opacity="1">
<use xlink:href="#glyph-8-0" x="199.626" y="405.38"/>
</g>
<g fill="rgb(23.922729%, 20.783997%, 18.824768%)" fill-opacity="1">
<use xlink:href="#glyph-9-0" x="205.667" y="403.586"/>
</g>
<g fill="rgb(23.922729%, 20.783997%, 18.824768%)" fill-opacity="1">
<use xlink:href="#glyph-7-2" x="211.001807" y="403.586"/>
</g>
<g fill="rgb(23.922729%, 20.783997%, 18.824768%)" fill-opacity="1">
<use xlink:href="#glyph-6-5" x="217.242422" y="403.586"/>
</g>
<g fill="rgb(23.922729%, 20.783997%, 18.824768%)" fill-opacity="1">
<use xlink:href="#glyph-7-0" x="222.371202" y="403.586"/>
</g>
<g fill="rgb(23.922729%, 20.783997%, 18.824768%)" fill-opacity="1">
<use xlink:href="#glyph-9-1" x="228.647778" y="403.586"/>
</g>
<g fill="rgb(23.922729%, 20.783997%, 18.824768%)" fill-opacity="1">
<use xlink:href="#glyph-9-2" x="237.105039" y="403.586"/>
</g>
<g fill="rgb(23.922729%, 20.783997%, 18.824768%)" fill-opacity="1">
<use xlink:href="#glyph-10-0" x="251.002557" y="403.586"/>
</g>
<g fill="rgb(23.922729%, 20.783997%, 18.824768%)" fill-opacity="1">
<use xlink:href="#glyph-9-0" x="258.343145" y="403.586"/>
</g>
<g fill="rgb(23.922729%, 20.783997%, 18.824768%)" fill-opacity="1">
<use xlink:href="#glyph-7-2" x="263.677952" y="403.586"/>
</g>
<g fill="rgb(23.922729%, 20.783997%, 18.824768%)" fill-opacity="1">
<use xlink:href="#glyph-9-1" x="270.066643" y="403.586"/>
</g>
<g fill="rgb(23.922729%, 20.783997%, 18.824768%)" fill-opacity="1">
<use xlink:href="#glyph-11-0" x="277.52732" y="403.586"/>
</g>
<g fill="rgb(23.922729%, 20.783997%, 18.824768%)" fill-opacity="1">
<use xlink:href="#glyph-10-0" x="290.432557" y="403.586"/>
</g>
<g fill="rgb(23.922729%, 20.783997%, 18.824768%)" fill-opacity="1">
<use xlink:href="#glyph-9-0" x="297.773145" y="403.586"/>
</g>
<g fill="rgb(23.922729%, 20.783997%, 18.824768%)" fill-opacity="1">
<use xlink:href="#glyph-7-0" x="302.904713" y="403.586"/>
</g>
<g fill="rgb(23.922729%, 20.783997%, 18.824768%)" fill-opacity="1">
<use xlink:href="#glyph-9-1" x="309.181289" y="403.586"/>
</g>
<g fill="rgb(23.922729%, 20.783997%, 18.824768%)" fill-opacity="1">
<use xlink:href="#glyph-11-0" x="316.629508" y="403.586"/>
</g>
<g fill="rgb(23.922729%, 20.783997%, 18.824768%)" fill-opacity="1">
<use xlink:href="#glyph-11-1" x="328.934829" y="403.586"/>
</g>
<g fill="rgb(23.922729%, 20.783997%, 18.824768%)" fill-opacity="1">
<use xlink:href="#glyph-11-2" x="334.065991" y="403.586"/>
</g>
<g fill="rgb(23.922729%, 20.783997%, 18.824768%)" fill-opacity="1">
<use xlink:href="#glyph-10-0" x="345.343299" y="403.586"/>
</g>
<g fill="rgb(23.922729%, 20.783997%, 18.824768%)" fill-opacity="1">
<use xlink:href="#glyph-9-0" x="352.683887" y="403.586"/>
</g>
<g fill="rgb(23.922729%, 20.783997%, 18.824768%)" fill-opacity="1">
<use xlink:href="#glyph-7-0" x="357.803501" y="403.586"/>
</g>
<g fill="rgb(23.922729%, 20.783997%, 18.824768%)" fill-opacity="1">
<use xlink:href="#glyph-9-1" x="364.080076" y="403.586"/>
</g>
<g fill="rgb(23.922729%, 20.783997%, 18.824768%)" fill-opacity="1">
<use xlink:href="#glyph-6-5" x="369.068182" y="403.586"/>
</g>
<g fill="rgb(23.922729%, 20.783997%, 18.824768%)" fill-opacity="1">
<use xlink:href="#glyph-7-2" x="376.384765" y="403.586"/>
</g>
<g fill="rgb(23.922729%, 20.783997%, 18.824768%)" fill-opacity="1">
<use xlink:href="#glyph-11-0" x="385.115428" y="403.586"/>
</g>
<g fill="rgb(23.922729%, 20.783997%, 18.824768%)" fill-opacity="1">
<use xlink:href="#glyph-7-0" x="397.422905" y="403.586"/>
</g>
<g fill="rgb(23.922729%, 20.783997%, 18.824768%)" fill-opacity="1">
<use xlink:href="#glyph-11-3" x="403.69948" y="403.586"/>
</g>
<g fill="rgb(23.922729%, 20.783997%, 18.824768%)" fill-opacity="1">
<use xlink:href="#glyph-11-4" x="412.144284" y="403.586"/>
</g>
<g fill="rgb(23.922729%, 20.783997%, 18.824768%)" fill-opacity="1">
<use xlink:href="#glyph-6-6" x="425.30058" y="403.586"/>
</g>
</svg>
